SplineFontDB: 3.2
FontName: FdSymbolB-Medium
FullName: FdSymbolB-Medium
FamilyName: FdSymbolB
Weight: Medium
Copyright: Copyright (c) 2011-2025, Michael Ummels. This Font Software is licensed under the SIL Open Font License, Version 1.1.
Version: 1.010
ItalicAngle: 0
UnderlinePosition: -100
UnderlineWidth: 50
Ascent: 800
Descent: 200
InvalidEm: 0
LayerCount: 2
Layer: 0 0 "Back" 1
Layer: 1 0 "Fore" 0
OS2Version: 0
OS2_WeightWidthSlopeOnly: 0
OS2_UseTypoMetrics: 0
CreationTime: 1739799031
ModificationTime: 1739799031
OS2TypoAscent: 0
OS2TypoAOffset: 1
OS2TypoDescent: 0
OS2TypoDOffset: 1
OS2TypoLinegap: 0
OS2WinAscent: 0
OS2WinAOffset: 1
OS2WinDescent: 0
OS2WinDOffset: 1
HheadAscent: 0
HheadAOffset: 1
HheadDescent: 0
HheadDOffset: 1
OS2Vendor: 'PfEd'
DEI: 91125
Encoding: Custom
UnicodeInterp: none
NameList: AGL For New Fonts
DisplaySize: -48
AntiAlias: 1
FitToEm: 0
BeginPrivate: 2
BlueValues 31 [-10 0 546 556 707 717 754 764]
OtherBlues 11 [-230 -220]
EndPrivate
BeginChars: 256 236

StartChar: equal
Encoding: 0 61 0
Width: 660
Flags: HW
HStem: 160 86<90 570> 355 86<90 570>
LayerCount: 2
Fore
SplineSet
90 355 m 1
 90 441 l 1
 570 441 l 1
 570 355 l 1
 90 355 l 1
90 160 m 1
 90 246 l 1
 570 246 l 1
 570 160 l 1
 90 160 l 1
EndSplineSet
EndChar

StartChar: uni2261
Encoding: 1 8801 1
Width: 660
Flags: HW
HStem: 62 86<90 570> 257 86<90 570> 452 86<90 570>
CounterMasks: 1 e0
LayerCount: 2
Fore
SplineSet
90 452 m 1
 90 538 l 1
 570 538 l 1
 570 452 l 1
 90 452 l 1
90 257 m 1
 90 343 l 1
 570 343 l 1
 570 257 l 1
 90 257 l 1
90 62 m 1
 90 148 l 1
 570 148 l 1
 570 62 l 1
 90 62 l 1
EndSplineSet
EndChar

StartChar: similar
Encoding: 2 8764 2
Width: 660
Flags: HW
HStem: 208 86<379.066 484.613> 306 86<175.387 280.934>
LayerCount: 2
Fore
SplineSet
141 250 m 1
 90 300 l 1
 130 341 167 392 224 392 c 0
 275 392 320 365 358 333 c 0
 381 313 406 294 436 294 c 0
 471 294 494 325 519 350 c 1
 570 300 l 1
 530 259 493 208 436 208 c 0
 385 208 340 235 302 267 c 0
 279 287 254 306 224 306 c 0
 189 306 166 275 141 250 c 1
EndSplineSet
EndChar

StartChar: uni223D
Encoding: 3 8765 3
Width: 660
Flags: HW
HStem: 208 86<175.387 280.934> 306 86<379.066 484.613>
LayerCount: 2
Fore
SplineSet
519 250 m 1
 494 275 471 306 436 306 c 0
 406 306 381 287 358 267 c 0
 320 235 275 208 224 208 c 0
 167 208 130 259 90 300 c 1
 141 350 l 1
 166 325 189 294 224 294 c 0
 254 294 279 313 302 333 c 0
 340 365 385 392 436 392 c 0
 493 392 530 341 570 300 c 1
 519 250 l 1
EndSplineSet
EndChar

StartChar: approxequal
Encoding: 4 8776 4
Width: 660
Flags: HW
HStem: 111 86<380.175 484.613> 208 86<175.387 279.825> 306 86<380.175 484.613> 403 86<175.387 279.825>
LayerCount: 2
Fore
SplineSet
436 306 m 0
 331 306 291 403 224 403 c 0
 189 403 166 372 141 347 c 1
 90 398 l 1
 130 438 167 489 224 489 c 0
 329 489 369 392 436 392 c 0
 471 392 494 423 519 448 c 1
 570 398 l 1
 530 357 493 306 436 306 c 0
436 111 m 0
 331 111 291 208 224 208 c 0
 189 208 166 177 141 152 c 1
 90 203 l 1
 130 243 167 294 224 294 c 0
 329 294 369 197 436 197 c 0
 471 197 494 228 519 253 c 1
 570 203 l 1
 530 162 493 111 436 111 c 0
EndSplineSet
EndChar

StartChar: uni224B
Encoding: 5 8779 5
Width: 660
Flags: HW
HStem: 13 86<379.066 484.613> 111 86<175.387 280.934> 208 86<379.066 484.613> 306 86<175.387 280.934> 403 86<379.066 484.613> 501 86<175.387 280.934> 525 20G<506.5 539.4>
LayerCount: 2
Fore
SplineSet
141 445 m 1xfc
 90 495 l 1
 130 536 167 587 224 587 c 0xfc
 275 587 320 560 358 528 c 0
 381 508 406 489 436 489 c 0
 471 489 494 520 519 545 c 1xfa
 570 495 l 1
 530 454 493 403 436 403 c 0
 385 403 340 430 302 462 c 0
 279 482 254 501 224 501 c 0
 189 501 166 470 141 445 c 1xfc
141 250 m 1
 90 300 l 1
 130 341 167 392 224 392 c 0
 275 392 320 365 358 333 c 0
 381 313 406 294 436 294 c 0
 471 294 494 325 519 350 c 1
 570 300 l 1
 530 259 493 208 436 208 c 0
 385 208 340 235 302 267 c 0
 279 287 254 306 224 306 c 0
 189 306 166 275 141 250 c 1
141 55 m 1
 90 105 l 1
 130 146 167 197 224 197 c 0
 275 197 320 170 358 138 c 0
 381 118 406 99 436 99 c 0
 471 99 494 130 519 155 c 1
 570 105 l 1
 530 64 493 13 436 13 c 0
 385 13 340 40 302 72 c 0
 279 92 254 111 224 111 c 0
 189 111 166 80 141 55 c 1
EndSplineSet
EndChar

StartChar: uni2243
Encoding: 6 8771 6
Width: 660
Flags: HW
HStem: 160 86<90 570> 306 86<380.175 484.613> 403 86<175.387 279.825>
LayerCount: 2
Fore
SplineSet
436 306 m 0
 331 306 291 403 224 403 c 0
 189 403 166 372 141 347 c 1
 90 398 l 1
 130 438 167 489 224 489 c 0
 329 489 369 392 436 392 c 0
 471 392 494 423 519 448 c 1
 570 398 l 1
 530 357 493 306 436 306 c 0
90 160 m 1
 90 246 l 1
 570 246 l 1
 570 160 l 1
 90 160 l 1
EndSplineSet
EndChar

StartChar: uni22CD
Encoding: 7 8909 7
Width: 660
Flags: HW
HStem: 160 86<90 570> 306 86<175.387 279.825> 403 86<380.175 484.613>
LayerCount: 2
Fore
SplineSet
224 392 m 0
 291 392 331 489 436 489 c 0
 493 489 530 438 570 398 c 1
 519 347 l 1
 494 372 471 403 436 403 c 0
 369 403 329 306 224 306 c 0
 167 306 130 357 90 398 c 1
 141 448 l 1
 166 423 189 392 224 392 c 0
570 246 m 1
 570 160 l 1
 90 160 l 1
 90 246 l 1
 570 246 l 1
EndSplineSet
EndChar

StartChar: uni2242
Encoding: 8 8770 8
Width: 660
Flags: HW
HStem: 111 86<380.175 484.613> 208 86<175.387 279.825> 355 86<90 570>
LayerCount: 2
Fore
SplineSet
90 355 m 1
 90 441 l 1
 570 441 l 1
 570 355 l 1
 90 355 l 1
436 111 m 0
 331 111 291 208 224 208 c 0
 189 208 166 177 141 152 c 1
 90 203 l 1
 130 243 167 294 224 294 c 0
 329 294 369 197 436 197 c 0
 471 197 494 228 519 253 c 1
 570 203 l 1
 530 162 493 111 436 111 c 0
EndSplineSet
EndChar

StartChar: congruent
Encoding: 9 8773 9
Width: 660
Flags: HW
HStem: 62 86<90 570> 257 86<90 570> 403 86<379.066 484.613> 501 86<175.387 280.934> 525 20G<506.5 539.4>
LayerCount: 2
Fore
SplineSet
141 445 m 1xf0
 90 495 l 1
 130 536 167 587 224 587 c 0xf0
 275 587 320 560 358 528 c 0
 381 508 406 489 436 489 c 0
 471 489 494 520 519 545 c 1xe8
 570 495 l 1
 530 454 493 403 436 403 c 0
 385 403 340 430 302 462 c 0
 279 482 254 501 224 501 c 0
 189 501 166 470 141 445 c 1xf0
90 257 m 1
 90 343 l 1
 570 343 l 1
 570 257 l 1
 90 257 l 1
90 62 m 1
 90 148 l 1
 570 148 l 1
 570 62 l 1
 90 62 l 1
EndSplineSet
EndChar

StartChar: uni224C
Encoding: 10 8780 10
Width: 660
Flags: HW
HStem: 62 86<90 570> 257 86<90 570> 403 86<175.387 280.934> 501 86<379.066 484.613> 525 20G<120.6 153.5>
LayerCount: 2
Fore
SplineSet
519 445 m 1xf0
 494 470 471 501 436 501 c 0xf0
 406 501 381 482 358 462 c 0
 320 430 275 403 224 403 c 0
 167 403 130 454 90 495 c 1
 141 545 l 1xe8
 166 520 189 489 224 489 c 0
 254 489 279 508 302 528 c 0
 340 560 385 587 436 587 c 0
 493 587 530 536 570 495 c 1
 519 445 l 1xf0
570 343 m 1
 570 257 l 1
 90 257 l 1
 90 343 l 1
 570 343 l 1
570 148 m 1
 570 62 l 1
 90 62 l 1
 90 148 l 1
 570 148 l 1
EndSplineSet
EndChar

StartChar: uni224A
Encoding: 11 8778 11
Width: 660
Flags: HW
HStem: 62 86<90 570> 208 86<379.066 484.613> 306 86<175.387 280.934> 403 86<379.066 484.613> 501 86<175.387 280.934> 525 20G<506.5 539.4>
LayerCount: 2
Fore
SplineSet
141 445 m 1xf8
 90 495 l 1
 130 536 167 587 224 587 c 0xf8
 275 587 320 560 358 528 c 0
 381 508 406 489 436 489 c 0
 471 489 494 520 519 545 c 1xf4
 570 495 l 1
 530 454 493 403 436 403 c 0
 385 403 340 430 302 462 c 0
 279 482 254 501 224 501 c 0
 189 501 166 470 141 445 c 1xf8
141 250 m 1
 90 300 l 1
 130 341 167 392 224 392 c 0
 275 392 320 365 358 333 c 0
 381 313 406 294 436 294 c 0
 471 294 494 325 519 350 c 1
 570 300 l 1
 530 259 493 208 436 208 c 0
 385 208 340 235 302 267 c 0
 279 287 254 306 224 306 c 0
 189 306 166 275 141 250 c 1
90 62 m 1
 90 148 l 1
 570 148 l 1
 570 62 l 1
 90 62 l 1
EndSplineSet
EndChar

StartChar: uni224F
Encoding: 12 8783 12
Width: 660
Flags: HW
HStem: 160 86<90 570> 355 86<90 206.297 453.703 570> 451 86<287.986 372.014>
LayerCount: 2
Fore
SplineSet
90 441 m 1
 198 441 l 1
 216 496 268 537 330 537 c 0
 392 537 444 496 462 441 c 1
 570 441 l 1
 570 355 l 1
 383 355 l 1
 383 398 l 2
 383 427 359 451 330 451 c 0
 301 451 277 427 277 398 c 2
 277 355 l 1
 90 355 l 1
 90 441 l 1
90 160 m 1
 90 246 l 1
 570 246 l 1
 570 160 l 1
 90 160 l 1
EndSplineSet
EndChar

StartChar: uni2AAE
Encoding: 13 10926 13
Width: 660
Flags: HW
HStem: 62 86<90 570> 257 86<90 570> 452 86<90 206.297 453.703 570> 548 86<287.986 372.014>
LayerCount: 2
Fore
SplineSet
90 538 m 1
 198 538 l 1
 216 594 268 634 330 634 c 0
 392 634 444 594 462 538 c 1
 570 538 l 1
 570 452 l 1
 383 452 l 1
 383 495 l 2
 383 524 359 548 330 548 c 0
 301 548 277 524 277 495 c 2
 277 452 l 1
 90 452 l 1
 90 538 l 1
90 257 m 1
 90 343 l 1
 570 343 l 1
 570 257 l 1
 90 257 l 1
90 62 m 1
 90 148 l 1
 570 148 l 1
 570 62 l 1
 90 62 l 1
EndSplineSet
EndChar

StartChar: uni224E
Encoding: 14 8782 14
Width: 660
Flags: HW
HStem: 63 86<287.986 372.014> 160 86<90 206.297 453.703 570> 355 86<90 206.297 453.703 570> 451 86<287.986 372.014>
VStem: 90 187<160.463 246 355 440.391> 383 187<160.463 246 355 440.391>
LayerCount: 2
Fore
SplineSet
90 441 m 1
 198 441 l 1
 216 496 268 537 330 537 c 0
 392 537 444 496 462 441 c 1
 570 441 l 1
 570 355 l 1
 383 355 l 1
 383 398 l 2
 383 427 359 451 330 451 c 0
 301 451 277 427 277 398 c 2
 277 355 l 1
 90 355 l 1
 90 441 l 1
90 160 m 1
 90 246 l 1
 277 246 l 1
 277 203 l 2
 277 173 301 149 330 149 c 0
 359 149 383 173 383 203 c 2
 383 246 l 1
 570 246 l 1
 570 160 l 1
 462 159 l 1
 444 104 392 63 330 63 c 0
 268 63 216 104 198 159 c 1
 90 160 l 1
EndSplineSet
EndChar

StartChar: uni2250
Encoding: 15 8784 15
Width: 660
Flags: HW
HStem: 160 86<90 570> 355 86<90 570> 522 141<294.676 365.488>
VStem: 260 141<558.135 627.085>
LayerCount: 2
Fore
SplineSet
90 355 m 1
 90 441 l 1
 570 441 l 1
 570 355 l 1
 90 355 l 1
90 160 m 1
 90 246 l 1
 570 246 l 1
 570 160 l 1
 90 160 l 1
260 592 m 0
 260 614 311 663 330 663 c 0
 344 663 360 647 372 635 c 0
 385 622 401 607 401 592 c 0
 401 578 385 563 372 550 c 0
 360 538 344 522 330 522 c 0
 310 522 260 572 260 592 c 0
EndSplineSet
EndChar

StartChar: uni2A66
Encoding: 16 10854 16
Width: 660
Flags: HW
HStem: -63 141<294.676 365.488> 160 86<90 570> 355 86<90 570>
VStem: 260 141<-27.0851 41.8647>
LayerCount: 2
Fore
SplineSet
90 355 m 1
 90 441 l 1
 570 441 l 1
 570 355 l 1
 90 355 l 1
90 160 m 1
 90 246 l 1
 570 246 l 1
 570 160 l 1
 90 160 l 1
260 8 m 0
 260 28 310 78 330 78 c 0
 344 78 360 62 372 50 c 0
 385 37 401 22 401 8 c 0
 401 -7 385 -22 372 -35 c 0
 360 -47 344 -63 330 -63 c 0
 311 -63 260 -14 260 8 c 0
EndSplineSet
EndChar

StartChar: uni2251
Encoding: 17 8785 17
Width: 660
Flags: HW
HStem: -63 141<294.676 365.488> 160 86<90 570> 355 86<90 570> 522 141<294.676 365.488>
VStem: 260 141<-27.0851 41.8647 558.135 627.085>
LayerCount: 2
Fore
SplineSet
90 355 m 1
 90 441 l 1
 570 441 l 1
 570 355 l 1
 90 355 l 1
90 160 m 1
 90 246 l 1
 570 246 l 1
 570 160 l 1
 90 160 l 1
260 592 m 0
 260 614 311 663 330 663 c 0
 344 663 360 647 372 635 c 0
 385 622 401 607 401 592 c 0
 401 578 385 563 372 550 c 0
 360 538 344 522 330 522 c 0
 310 522 260 572 260 592 c 0
260 8 m 0
 260 28 310 78 330 78 c 0
 344 78 360 62 372 50 c 0
 385 37 401 22 401 8 c 0
 401 -7 385 -22 372 -35 c 0
 360 -47 344 -63 330 -63 c 0
 311 -63 260 -14 260 8 c 0
EndSplineSet
EndChar

StartChar: uni2252
Encoding: 18 8786 18
Width: 660
Flags: HW
HStem: -63 141<463.869 534.901> 160 86<90 570> 355 86<90 570> 522 141<124.869 195.901>
VStem: 90 141<557.099 628.131> 429 141<-28.1306 42.9008>
LayerCount: 2
Fore
SplineSet
90 355 m 1
 90 441 l 1
 570 441 l 1
 570 355 l 1
 90 355 l 1
90 160 m 1
 90 246 l 1
 570 246 l 1
 570 160 l 1
 90 160 l 1
161 663 m 0
 180 663 231 613 231 592 c 0
 231 573 180 522 161 522 c 0
 140 522 90 573 90 592 c 0
 90 613 140 663 161 663 c 0
500 78 m 0
 519 78 570 27 570 8 c 0
 570 -13 519 -63 500 -63 c 0
 479 -63 429 -13 429 8 c 0
 429 27 479 78 500 78 c 0
EndSplineSet
EndChar

StartChar: uni2253
Encoding: 19 8787 19
Width: 660
Flags: HW
HStem: -63 141<124.869 195.901> 160 86<90 570> 355 86<90 570> 522 141<463.869 534.901>
VStem: 90 141<-28.1306 42.9008> 429 141<557.099 628.131>
LayerCount: 2
Fore
SplineSet
570 441 m 1
 570 355 l 1
 90 355 l 1
 90 441 l 1
 570 441 l 1
570 246 m 1
 570 160 l 1
 90 160 l 1
 90 246 l 1
 570 246 l 1
500 663 m 0
 519 663 570 613 570 592 c 0
 570 573 519 522 500 522 c 0
 479 522 429 573 429 592 c 0
 429 613 479 663 500 663 c 0
161 78 m 0
 180 78 231 27 231 8 c 0
 231 -13 180 -63 161 -63 c 0
 140 -63 90 -13 90 8 c 0
 90 27 140 78 161 78 c 0
EndSplineSet
EndChar

StartChar: uni2254
Encoding: 20 8788 20
Width: 891
Flags: HW
HStem: 132 141<124.869 195.901> 160 86<321 801> 327 141<124.869 195.901> 355 86<321 801>
VStem: 90 141<166.869 237.901 361.869 432.901>
LayerCount: 2
Fore
SplineSet
161 468 m 0x28
 180 468 231 417 231 398 c 0
 231 377 180 327 161 327 c 0
 140 327 90 377 90 398 c 0
 90 417 140 468 161 468 c 0x28
161 273 m 0x88
 180 273 231 222 231 203 c 0
 231 182 180 132 161 132 c 0
 140 132 90 182 90 203 c 0
 90 222 140 273 161 273 c 0x88
321 355 m 1x18
 321 441 l 1
 801 441 l 1
 801 355 l 1
 321 355 l 1x18
321 160 m 1x48
 321 246 l 1
 801 246 l 1
 801 160 l 1
 321 160 l 1x48
EndSplineSet
EndChar

StartChar: uni2255
Encoding: 21 8789 21
Width: 891
Flags: HW
HStem: 132 141<694.676 765.488> 160 86<90 570> 327 141<694.676 765.488> 355 86<90 570>
VStem: 660 141<167.915 236.865 362.915 431.865>
LayerCount: 2
Fore
SplineSet
660 398 m 0x28
 660 418 710 468 730 468 c 0x28
 744 468 760 452 772 440 c 0
 785 427 801 412 801 398 c 0
 801 383 785 368 772 355 c 0x18
 760 343 744 327 730 327 c 0
 711 327 660 376 660 398 c 0x28
660 203 m 0
 660 223 710 273 730 273 c 0x88
 744 273 760 257 772 245 c 0
 785 232 801 217 801 203 c 0
 801 188 785 173 772 160 c 0x48
 760 148 744 132 730 132 c 0x88
 711 132 660 181 660 203 c 0
570 441 m 1x18
 570 355 l 1
 90 355 l 1
 90 441 l 1
 570 441 l 1x18
570 246 m 1x48
 570 160 l 1
 90 160 l 1
 90 246 l 1
 570 246 l 1x48
EndSplineSet
EndChar

StartChar: uni2323
Encoding: 22 8995 22
Width: 660
Flags: HW
HStem: 208 86<238.376 421.624>
LayerCount: 2
Fore
SplineSet
151 379 m 1
 199 330 261 294 330 294 c 0
 399 294 461 330 509 379 c 1
 570 319 l 1
 506 253 422 208 330 208 c 0
 238 208 154 253 90 319 c 1
 151 379 l 1
EndSplineSet
EndChar

StartChar: uni2322
Encoding: 23 8994 23
Width: 660
Flags: HW
HStem: 306 86<238.376 421.624>
LayerCount: 2
Fore
SplineSet
151 221 m 1
 90 281 l 1
 154 347 238 392 330 392 c 0
 422 392 506 347 570 281 c 1
 509 221 l 1
 461 270 399 306 330 306 c 0
 261 306 199 270 151 221 c 1
EndSplineSet
EndChar

StartChar: uni224D
Encoding: 24 8781 24
Width: 660
Flags: HW
HStem: 176 86<238.376 421.624> 338 86<238.376 421.624>
LayerCount: 2
Fore
SplineSet
151 509 m 1
 199 460 261 424 330 424 c 0
 399 424 461 460 509 509 c 1
 570 449 l 1
 506 383 422 338 330 338 c 0
 238 338 154 383 90 449 c 1
 151 509 l 1
151 91 m 1
 90 151 l 1
 154 217 238 262 330 262 c 0
 422 262 506 217 570 151 c 1
 509 91 l 1
 461 140 399 176 330 176 c 0
 261 176 199 140 151 91 c 1
EndSplineSet
EndChar

StartChar: uni2050
Encoding: 25 8272 25
Width: 660
Flags: HW
HStem: 78 86<238.376 421.624> 436 86<238.376 421.624>
LayerCount: 2
Fore
SplineSet
151 351 m 1
 90 411 l 1
 154 477 238 522 330 522 c 0
 422 522 506 477 570 411 c 1
 509 351 l 1
 461 400 399 436 330 436 c 0
 261 436 199 400 151 351 c 1
151 249 m 1
 199 200 261 164 330 164 c 0
 399 164 461 200 509 249 c 1
 570 189 l 1
 506 123 422 78 330 78 c 0
 238 78 154 123 90 189 c 1
 151 249 l 1
EndSplineSet
EndChar

StartChar: sym020
Encoding: 26 -1 26
Width: 660
Flags: HW
HStem: 62 86<90 570> 257 86<90 570> 403 86<238.376 421.624>
LayerCount: 2
Fore
SplineSet
151 574 m 1
 199 525 261 489 330 489 c 0
 399 489 461 525 509 574 c 1
 570 514 l 1
 506 448 422 403 330 403 c 0
 238 403 154 448 90 514 c 1
 151 574 l 1
90 257 m 1
 90 343 l 1
 570 343 l 1
 570 257 l 1
 90 257 l 1
90 62 m 1
 90 148 l 1
 570 148 l 1
 570 62 l 1
 90 62 l 1
EndSplineSet
EndChar

StartChar: uni2258
Encoding: 27 8792 27
Width: 660
Flags: HW
HStem: 62 86<90 570> 257 86<90 570> 501 86<238.376 421.624>
LayerCount: 2
Fore
SplineSet
151 416 m 1
 90 476 l 1
 154 542 238 587 330 587 c 0
 422 587 506 542 570 476 c 1
 509 416 l 1
 461 465 399 501 330 501 c 0
 261 501 199 465 151 416 c 1
90 257 m 1
 90 343 l 1
 570 343 l 1
 570 257 l 1
 90 257 l 1
90 62 m 1
 90 148 l 1
 570 148 l 1
 570 62 l 1
 90 62 l 1
EndSplineSet
EndChar

StartChar: uni2256
Encoding: 28 8790 28
Width: 660
Flags: HW
HStem: 160 86<90 230 292.97 367.03 430 570> 355 86<90 231 294.553 365.447 430 570>
VStem: 217 64<259.357 340.421> 379 65<259.357 340.421>
LayerCount: 2
Fore
SplineSet
90 160 m 1
 90 246 l 1
 230 246 l 1
 221 262 217 281 217 300 c 0
 217 319 222 338 231 355 c 1
 90 355 l 1
 90 441 l 1
 570 441 l 1
 570 355 l 1
 430 355 l 1
 439 338 444 319 444 300 c 0
 444 281 439 262 430 246 c 1
 570 246 l 1
 570 160 l 1
 90 160 l 1
330 251 m 0
 357 251 379 273 379 300 c 0
 379 327 357 349 330 349 c 0
 303 349 281 327 281 300 c 0
 281 273 303 251 330 251 c 0
EndSplineSet
EndChar

StartChar: uni2257
Encoding: 29 8791 29
Width: 660
Flags: HW
HStem: 160 86<90 570> 355 86<90 570> 528 64<290.016 369.382> 690 65<289.395 370.191>
VStem: 217 64<601.686 681.597> 379 65<601.344 680.796>
LayerCount: 2
Fore
SplineSet
90 355 m 1
 90 441 l 1
 570 441 l 1
 570 355 l 1
 90 355 l 1
90 160 m 1
 90 246 l 1
 570 246 l 1
 570 160 l 1
 90 160 l 1
330 755 m 0
 394 755 444 703 444 641 c 0
 444 578 391 528 330 528 c 0
 272 528 217 573 217 641 c 0
 217 707 270 755 330 755 c 0
330 592 m 0
 356 592 379 613 379 641 c 0
 379 671 355 690 330 690 c 0
 305 690 281 671 281 641 c 0
 281 613 304 592 330 592 c 0
EndSplineSet
EndChar

StartChar: uni2259
Encoding: 30 8793 30
Width: 660
Flags: HW
HStem: 160 86<90 570> 355 86<90 570>
LayerCount: 2
Fore
SplineSet
90 355 m 1
 90 441 l 1
 570 441 l 1
 570 355 l 1
 90 355 l 1
90 160 m 1
 90 246 l 1
 570 246 l 1
 570 160 l 1
 90 160 l 1
538 548 m 1
 470 495 l 1
 330 675 l 1
 190 495 l 1
 122 548 l 1
 309 787 l 1
 351 787 l 1
 538 548 l 1
EndSplineSet
EndChar

StartChar: uni225A
Encoding: 31 8794 31
Width: 660
Flags: HW
HStem: 160 86<90 570> 355 86<90 570>
LayerCount: 2
Fore
SplineSet
90 355 m 1
 90 441 l 1
 570 441 l 1
 570 355 l 1
 90 355 l 1
90 160 m 1
 90 246 l 1
 570 246 l 1
 570 160 l 1
 90 160 l 1
122 735 m 1
 190 787 l 1
 330 608 l 1
 470 787 l 1
 538 735 l 1
 351 495 l 1
 309 495 l 1
 122 735 l 1
EndSplineSet
EndChar

StartChar: uni225B
Encoding: 32 8795 32
Width: 660
Flags: HW
HStem: 160 86<90 570> 355 86<90 570>
LayerCount: 2
Fore
SplineSet
90 355 m 1
 90 441 l 1
 570 441 l 1
 570 355 l 1
 90 355 l 1
90 160 m 1
 90 246 l 1
 570 246 l 1
 570 160 l 1
 90 160 l 1
330 828 m 1
 374 702 l 1
 507 699 l 1
 401 618 l 1
 440 490 l 1
 330 567 l 1
 220 490 l 1
 259 618 l 1
 153 699 l 1
 286 702 l 1
 330 828 l 1
EndSplineSet
EndChar

StartChar: uni225C
Encoding: 33 8796 33
Width: 660
Flags: HW
HStem: 160 86<90 570> 355 86<90 570> 536 64<259 401>
LayerCount: 2
Fore
SplineSet
90 355 m 1
 90 441 l 1
 570 441 l 1
 570 355 l 1
 90 355 l 1
90 160 m 1
 90 246 l 1
 570 246 l 1
 570 160 l 1
 90 160 l 1
330 852 m 1
 513 536 l 1
 147 536 l 1
 330 852 l 1
330 723 m 1
 259 600 l 1
 401 600 l 1
 330 723 l 1
EndSplineSet
EndChar

StartChar: element
Encoding: 34 8712 34
Width: 660
Flags: HW
HStem: 13 86<260.955 570> 257 86<179 570> 501 86<260.955 570>
VStem: 90 89<191.453 257 343 408.547>
CounterMasks: 1 e0
LayerCount: 2
Fore
SplineSet
570 501 m 1
 330 501 l 2
 248 501 193 429 179 343 c 1
 570 343 l 1
 570 257 l 1
 179 257 l 1
 193 171 248 99 330 99 c 2
 570 99 l 1
 570 13 l 1
 330 13 l 2
 188 13 90 149 90 300 c 0
 90 451 188 587 330 587 c 2
 570 587 l 1
 570 501 l 1
EndSplineSet
EndChar

StartChar: uni220B
Encoding: 35 8715 35
Width: 660
Flags: HW
HStem: 13 86<90 399.045> 257 86<90 481> 501 86<90 399.045>
VStem: 481 89<191.453 257 343 408.547>
CounterMasks: 1 e0
LayerCount: 2
Fore
SplineSet
90 99 m 1
 330 99 l 2
 412 99 467 171 481 257 c 1
 90 257 l 1
 90 343 l 1
 481 343 l 1
 467 429 412 501 330 501 c 2
 90 501 l 1
 90 587 l 1
 330 587 l 2
 472 587 570 451 570 300 c 0
 570 149 472 13 330 13 c 2
 90 13 l 1
 90 99 l 1
EndSplineSet
EndChar

StartChar: less
Encoding: 36 60 36
Width: 660
Flags: HW
LayerCount: 2
Fore
SplineSet
528 570 m 1
 570 495 l 1
 221 300 l 1
 570 105 l 1
 528 30 l 1
 90 275 l 1
 90 325 l 1
 528 570 l 1
EndSplineSet
EndChar

StartChar: greater
Encoding: 37 62 37
Width: 660
Flags: HW
LayerCount: 2
Fore
SplineSet
132 30 m 1
 90 105 l 1
 439 300 l 1
 90 495 l 1
 132 570 l 1
 570 325 l 1
 570 275 l 1
 132 30 l 1
EndSplineSet
EndChar

StartChar: lessequal
Encoding: 38 8804 38
Width: 660
Flags: HW
HStem: 9 86<90 570>
LayerCount: 2
Fore
SplineSet
537 581 m 1
 570 501 l 1
 244 365 l 1
 570 229 l 1
 537 149 l 1
 90 336 l 1
 90 394 l 1
 537 581 l 1
90 9 m 1
 90 95 l 1
 570 95 l 1
 570 9 l 1
 90 9 l 1
EndSplineSet
EndChar

StartChar: greaterequal
Encoding: 39 8805 39
Width: 660
Flags: HW
HStem: 9 86<90 570>
LayerCount: 2
Fore
SplineSet
123 149 m 1
 90 229 l 1
 416 365 l 1
 90 501 l 1
 123 581 l 1
 570 394 l 1
 570 336 l 1
 123 149 l 1
570 95 m 1
 570 9 l 1
 90 9 l 1
 90 95 l 1
 570 95 l 1
EndSplineSet
EndChar

StartChar: uni2A7D
Encoding: 40 10877 40
Width: 660
Flags: HW
LayerCount: 2
Fore
SplineSet
537 613 m 1
 570 534 l 1
 244 398 l 1
 570 261 l 1
 537 182 l 1
 90 369 l 1
 90 426 l 1
 537 613 l 1
570 66 m 1
 537 -13 l 1
 90 174 l 1
 123 253 l 1
 570 66 l 1
EndSplineSet
EndChar

StartChar: uni2A7E
Encoding: 41 10878 41
Width: 660
Flags: HW
LayerCount: 2
Fore
SplineSet
123 182 m 1
 90 261 l 1
 416 398 l 1
 90 534 l 1
 123 613 l 1
 570 426 l 1
 570 369 l 1
 123 182 l 1
123 -13 m 1
 90 66 l 1
 537 253 l 1
 570 174 l 1
 123 -13 l 1
EndSplineSet
EndChar

StartChar: uni2266
Encoding: 42 8806 42
Width: 660
Flags: HW
HStem: -88 86<90 570> 107 86<90 570>
LayerCount: 2
Fore
SplineSet
537 678 m 1
 570 599 l 1
 244 462 l 1
 570 326 l 1
 537 247 l 1
 90 434 l 1
 90 491 l 1
 537 678 l 1
90 107 m 1
 90 193 l 1
 570 193 l 1
 570 107 l 1
 90 107 l 1
90 -88 m 1
 90 -2 l 1
 570 -2 l 1
 570 -88 l 1
 90 -88 l 1
EndSplineSet
EndChar

StartChar: uni2267
Encoding: 43 8807 43
Width: 660
Flags: HW
HStem: -88 86<90 570> 107 86<90 570>
LayerCount: 2
Fore
SplineSet
123 247 m 1
 90 326 l 1
 416 462 l 1
 90 599 l 1
 123 678 l 1
 570 491 l 1
 570 434 l 1
 123 247 l 1
570 193 m 1
 570 107 l 1
 90 107 l 1
 90 193 l 1
 570 193 l 1
570 -2 m 1
 570 -88 l 1
 90 -88 l 1
 90 -2 l 1
 570 -2 l 1
EndSplineSet
EndChar

StartChar: uni2272
Encoding: 44 8818 44
Width: 660
Flags: HW
HStem: -23 86<380.175 484.613> 74 86<175.387 279.825>
LayerCount: 2
Fore
SplineSet
537 613 m 1
 570 534 l 1
 244 398 l 1
 570 261 l 1
 537 182 l 1
 90 369 l 1
 90 426 l 1
 537 613 l 1
436 -23 m 0
 331 -23 291 74 224 74 c 0
 189 74 166 43 141 18 c 1
 90 68 l 1
 130 109 167 160 224 160 c 0
 329 160 369 63 436 63 c 0
 471 63 494 94 519 119 c 1
 570 68 l 1
 530 28 493 -23 436 -23 c 0
EndSplineSet
EndChar

StartChar: uni2273
Encoding: 45 8819 45
Width: 660
Flags: HW
HStem: -23 86<380.175 484.613> 74 86<175.387 279.825>
LayerCount: 2
Fore
SplineSet
123 182 m 1
 90 261 l 1
 416 398 l 1
 90 534 l 1
 123 613 l 1
 570 426 l 1
 570 369 l 1
 123 182 l 1
436 -23 m 0
 331 -23 291 74 224 74 c 0
 189 74 166 43 141 18 c 1
 90 68 l 1
 130 109 167 160 224 160 c 0
 329 160 369 63 436 63 c 0
 471 63 494 94 519 119 c 1
 570 68 l 1
 530 28 493 -23 436 -23 c 0
EndSplineSet
EndChar

StartChar: uni2A85
Encoding: 46 10885 46
Width: 660
Flags: HW
HStem: -121 86<379.066 484.613> -23 86<175.387 280.934> 74 86<379.066 484.613> 172 86<175.387 280.934> 691 20G<489.193 545.25>
LayerCount: 2
Fore
SplineSet
537 711 m 1
 570 631 l 1
 244 495 l 1
 570 359 l 1
 537 279 l 1
 90 466 l 1
 90 524 l 1
 537 711 l 1
141 116 m 1
 90 166 l 1
 130 207 167 258 224 258 c 0
 275 258 320 231 358 199 c 0
 381 179 406 160 436 160 c 0
 471 160 494 191 519 216 c 1
 570 166 l 1
 530 125 493 74 436 74 c 0
 385 74 340 101 302 133 c 0
 279 153 254 172 224 172 c 0
 189 172 166 141 141 116 c 1
141 -79 m 1
 90 -29 l 1
 130 12 167 63 224 63 c 0
 275 63 320 36 358 4 c 0
 381 -16 406 -35 436 -35 c 0
 471 -35 494 -4 519 21 c 1
 570 -29 l 1
 530 -70 493 -121 436 -121 c 0
 385 -121 340 -94 302 -62 c 0
 279 -42 254 -23 224 -23 c 0
 189 -23 166 -54 141 -79 c 1
EndSplineSet
EndChar

StartChar: uni2A86
Encoding: 47 10886 47
Width: 660
Flags: HW
HStem: -121 86<379.066 484.613> -23 86<175.387 280.934> 74 86<379.066 484.613> 172 86<175.387 280.934> 691 20G<114.75 170.807>
LayerCount: 2
Fore
SplineSet
123 279 m 1
 90 359 l 1
 416 495 l 1
 90 631 l 1
 123 711 l 1
 570 524 l 1
 570 466 l 1
 123 279 l 1
141 116 m 1
 90 166 l 1
 130 207 167 258 224 258 c 0
 275 258 320 231 358 199 c 0
 381 179 406 160 436 160 c 0
 471 160 494 191 519 216 c 1
 570 166 l 1
 530 125 493 74 436 74 c 0
 385 74 340 101 302 133 c 0
 279 153 254 172 224 172 c 0
 189 172 166 141 141 116 c 1
141 -79 m 1
 90 -29 l 1
 130 12 167 63 224 63 c 0
 275 63 320 36 358 4 c 0
 381 -16 406 -35 436 -35 c 0
 471 -35 494 -4 519 21 c 1
 570 -29 l 1
 530 -70 493 -121 436 -121 c 0
 385 -121 340 -94 302 -62 c 0
 279 -42 254 -23 224 -23 c 0
 189 -23 166 -54 141 -79 c 1
EndSplineSet
EndChar

StartChar: uni2276
Encoding: 48 8822 48
Width: 660
Flags: HW
LayerCount: 2
Fore
SplineSet
537 704 m 1
 570 625 l 1
 244 489 l 1
 570 353 l 1
 537 273 l 1
 90 460 l 1
 90 518 l 1
 537 704 l 1
123 -104 m 1
 90 -25 l 1
 416 111 l 1
 90 247 l 1
 123 327 l 1
 570 140 l 1
 570 82 l 1
 123 -104 l 1
EndSplineSet
EndChar

StartChar: uni2277
Encoding: 49 8823 49
Width: 660
Flags: HW
LayerCount: 2
Fore
SplineSet
123 273 m 1
 90 353 l 1
 416 489 l 1
 90 625 l 1
 123 704 l 1
 570 518 l 1
 570 460 l 1
 123 273 l 1
537 327 m 1
 570 247 l 1
 244 111 l 1
 570 -25 l 1
 537 -104 l 1
 90 82 l 1
 90 140 l 1
 537 327 l 1
EndSplineSet
EndChar

StartChar: uni22DA
Encoding: 50 8922 50
Width: 660
Flags: HW
HStem: -228 21G<114.646 170.807> 257 86<90 570>
LayerCount: 2
Fore
SplineSet
537 828 m 1
 570 749 l 1
 244 613 l 1
 570 477 l 1
 537 397 l 1
 90 584 l 1
 90 641 l 1
 537 828 l 1
123 -228 m 1
 90 -149 l 1
 416 -13 l 1
 90 123 l 1
 123 203 l 1
 570 16 l 1
 570 -41 l 1
 123 -228 l 1
90 257 m 1
 90 343 l 1
 570 343 l 1
 570 257 l 1
 90 257 l 1
EndSplineSet
EndChar

StartChar: uni22DB
Encoding: 51 8923 51
Width: 660
Flags: HW
HStem: -228 21G<489.193 545.354> 257 86<90 570>
LayerCount: 2
Fore
SplineSet
123 397 m 1
 90 477 l 1
 416 613 l 1
 90 749 l 1
 123 828 l 1
 570 641 l 1
 570 584 l 1
 123 397 l 1
537 203 m 1
 570 123 l 1
 244 -13 l 1
 570 -149 l 1
 537 -228 l 1
 90 -41 l 1
 90 16 l 1
 537 203 l 1
570 343 m 1
 570 257 l 1
 90 257 l 1
 90 343 l 1
 570 343 l 1
EndSplineSet
EndChar

StartChar: uni2A8B
Encoding: 52 10891 52
Width: 660
Flags: HW
HStem: 160 86<90 570> 355 86<90 570>
LayerCount: 2
Fore
SplineSet
537 926 m 1
 570 847 l 1
 244 710 l 1
 570 574 l 1
 537 495 l 1
 90 682 l 1
 90 739 l 1
 537 926 l 1
123 -326 m 1
 90 -247 l 1
 416 -110 l 1
 90 26 l 1
 123 105 l 1
 570 -82 l 1
 570 -139 l 1
 123 -326 l 1
90 355 m 1
 90 441 l 1
 570 441 l 1
 570 355 l 1
 90 355 l 1
90 160 m 1
 90 246 l 1
 570 246 l 1
 570 160 l 1
 90 160 l 1
EndSplineSet
EndChar

StartChar: uni2A8C
Encoding: 53 10892 53
Width: 660
Flags: HW
HStem: 160 86<90 570> 355 86<90 570>
LayerCount: 2
Fore
SplineSet
123 495 m 1
 90 574 l 1
 416 710 l 1
 90 847 l 1
 123 926 l 1
 570 739 l 1
 570 682 l 1
 123 495 l 1
537 105 m 1
 570 26 l 1
 244 -110 l 1
 570 -247 l 1
 537 -326 l 1
 90 -139 l 1
 90 -82 l 1
 537 105 l 1
570 441 m 1
 570 355 l 1
 90 355 l 1
 90 441 l 1
 570 441 l 1
570 246 m 1
 570 160 l 1
 90 160 l 1
 90 246 l 1
 570 246 l 1
EndSplineSet
EndChar

StartChar: uni22DA.alt
Encoding: 54 -1 54
Width: 660
Flags: HW
LayerCount: 2
Fore
SplineSet
537 802 m 1
 570 723 l 1
 244 586 l 1
 570 450 l 1
 537 371 l 1
 90 558 l 1
 90 615 l 1
 537 802 l 1
123 -202 m 1
 90 -123 l 1
 416 14 l 1
 90 150 l 1
 123 229 l 1
 570 42 l 1
 570 -15 l 1
 123 -202 l 1
570 246 m 1
 537 167 l 1
 90 354 l 1
 123 433 l 1
 570 246 l 1
EndSplineSet
EndChar

StartChar: uni22DB.alt
Encoding: 55 -1 55
Width: 660
Flags: HW
LayerCount: 2
Fore
SplineSet
123 371 m 1
 90 450 l 1
 416 586 l 1
 90 723 l 1
 123 802 l 1
 570 615 l 1
 570 558 l 1
 123 371 l 1
537 229 m 1
 570 150 l 1
 244 14 l 1
 570 -123 l 1
 537 -202 l 1
 90 -15 l 1
 90 42 l 1
 537 229 l 1
123 167 m 1
 90 246 l 1
 537 433 l 1
 570 354 l 1
 123 167 l 1
EndSplineSet
EndChar

StartChar: uni226A
Encoding: 56 8810 56
Width: 1136
Flags: HW
LayerCount: 2
Fore
SplineSet
620 574 m 1
 656 496 l 1
 235 300 l 1
 656 104 l 1
 620 26 l 1
 90 273 l 1
 90 327 l 1
 620 574 l 1
1010 574 m 1
 1046 496 l 1
 625 300 l 1
 1046 104 l 1
 1010 26 l 1
 480 273 l 1
 480 327 l 1
 1010 574 l 1
EndSplineSet
EndChar

StartChar: uni226B
Encoding: 57 8811 57
Width: 1136
Flags: HW
LayerCount: 2
Fore
SplineSet
516 26 m 1
 480 104 l 1
 901 300 l 1
 480 496 l 1
 516 574 l 1
 1046 327 l 1
 1046 273 l 1
 516 26 l 1
126 26 m 1
 90 104 l 1
 511 300 l 1
 90 496 l 1
 126 574 l 1
 656 327 l 1
 656 273 l 1
 126 26 l 1
EndSplineSet
EndChar

StartChar: uni22D8
Encoding: 58 8920 58
Width: 1526
Flags: HW
LayerCount: 2
Fore
SplineSet
620 574 m 1
 656 496 l 1
 235 300 l 1
 656 104 l 1
 620 26 l 1
 90 273 l 1
 90 327 l 1
 620 574 l 1
1010 574 m 1
 1046 496 l 1
 625 300 l 1
 1046 104 l 1
 1010 26 l 1
 480 273 l 1
 480 327 l 1
 1010 574 l 1
1400 574 m 1
 1436 496 l 1
 1015 300 l 1
 1436 104 l 1
 1400 26 l 1
 870 273 l 1
 870 327 l 1
 1400 574 l 1
EndSplineSet
EndChar

StartChar: uni22D9
Encoding: 59 8921 59
Width: 1526
Flags: HW
LayerCount: 2
Fore
SplineSet
906 26 m 1
 870 104 l 1
 1291 300 l 1
 870 496 l 1
 906 574 l 1
 1436 327 l 1
 1436 273 l 1
 906 26 l 1
516 26 m 1
 480 104 l 1
 901 300 l 1
 480 496 l 1
 516 574 l 1
 1046 327 l 1
 1046 273 l 1
 516 26 l 1
126 26 m 1
 90 104 l 1
 511 300 l 1
 90 496 l 1
 126 574 l 1
 656 327 l 1
 656 273 l 1
 126 26 l 1
EndSplineSet
EndChar

StartChar: uni22B2
Encoding: 60 8882 60
Width: 660
Flags: HW
VStem: 484 86<153 447>
LayerCount: 2
Fore
SplineSet
484 153 m 1
 484 447 l 1
 221 300 l 1
 484 153 l 1
528 30 m 1
 90 275 l 1
 90 325 l 1
 528 570 l 1
 570 545 l 1
 570 55 l 1
 528 30 l 1
EndSplineSet
EndChar

StartChar: uni22B3
Encoding: 61 8883 61
Width: 660
Flags: HW
VStem: 90 86<153 447>
LayerCount: 2
Fore
SplineSet
176 447 m 1
 176 153 l 1
 439 300 l 1
 176 447 l 1
132 570 m 1
 570 325 l 1
 570 275 l 1
 132 30 l 1
 90 55 l 1
 90 545 l 1
 132 570 l 1
EndSplineSet
EndChar

StartChar: uni22B4
Encoding: 62 8884 62
Width: 660
Flags: HW
HStem: 9 86<90 570>
VStem: 484 86<265 465>
LayerCount: 2
Fore
SplineSet
484 265 m 1
 484 465 l 1
 244 365 l 1
 484 265 l 1
537 149 m 1
 90 336 l 1
 90 394 l 1
 537 581 l 1
 570 558 l 1
 570 172 l 1
 537 149 l 1
90 9 m 1
 90 95 l 1
 570 95 l 1
 570 9 l 1
 90 9 l 1
EndSplineSet
EndChar

StartChar: uni22B5
Encoding: 63 8885 63
Width: 660
Flags: HW
HStem: 9 86<90 570>
VStem: 90 86<265 465>
LayerCount: 2
Fore
SplineSet
176 465 m 1
 176 265 l 1
 416 365 l 1
 176 465 l 1
123 581 m 1
 570 394 l 1
 570 336 l 1
 123 149 l 1
 90 172 l 1
 90 558 l 1
 123 581 l 1
570 95 m 1
 570 9 l 1
 90 9 l 1
 90 95 l 1
 570 95 l 1
EndSplineSet
EndChar

StartChar: uni2AA6
Encoding: 64 10918 64
Width: 717
Flags: HW
VStem: 535 85<186.815 414.375>
LayerCount: 2
Fore
SplineSet
495 147 m 0
 521 195 535 247 535 300 c 0
 535 331 530 392 495 453 c 1
 221 300 l 1
 495 147 l 0
570 105 m 2
 528 30 l 1
 90 275 l 1
 90 325 l 1
 528 570 l 1
 570 495 l 2
 604 435 620 367 620 300 c 0
 620 233 604 165 570 105 c 2
EndSplineSet
EndChar

StartChar: uni2AA7
Encoding: 65 10919 65
Width: 717
Flags: HW
VStem: 96 86<186.6 413.4>
LayerCount: 2
Fore
SplineSet
222 453 m 1
 196 406 182 353 182 300 c 0
 182 247 196 194 222 147 c 1
 495 300 l 1
 222 453 l 1
147 495 m 2
 189 570 l 1
 627 325 l 1
 627 275 l 1
 189 30 l 1
 147 105 l 2
 113 165 96 233 96 300 c 0
 96 367 113 435 147 495 c 2
EndSplineSet
EndChar

StartChar: uni2AA8
Encoding: 66 10920 66
Width: 698
Flags: HW
VStem: 502 86<295.946 499.132>
LayerCount: 2
Fore
SplineSet
488 295 m 1
 498 328 502 364 502 398 c 0
 502 432 498 467 488 500 c 1
 244 398 l 1
 488 295 l 1
537 613 m 1
 570 534 l 1
 568 533 l 1
 582 489 588 444 588 398 c 0
 588 352 582 306 568 262 c 1
 570 261 l 1
 537 182 l 1
 90 369 l 1
 90 426 l 1
 537 613 l 1
570 66 m 1
 537 -13 l 1
 90 174 l 1
 123 253 l 1
 570 66 l 1
EndSplineSet
EndChar

StartChar: uni2AA9
Encoding: 67 10921 67
Width: 698
Flags: HW
VStem: 110 86<295.946 499.132>
LayerCount: 2
Fore
SplineSet
210 500 m 1
 200 467 196 432 196 398 c 0
 196 364 200 328 210 295 c 1
 454 398 l 1
 210 500 l 1
162 182 m 1
 128 261 l 1
 130 262 l 1
 116 306 110 352 110 398 c 0
 110 444 116 489 130 533 c 1
 128 534 l 1
 162 613 l 1
 608 426 l 1
 608 369 l 1
 162 182 l 1
162 -13 m 1
 128 66 l 1
 575 253 l 1
 608 174 l 1
 162 -13 l 1
EndSplineSet
EndChar

StartChar: uni228F
Encoding: 68 8847 68
Width: 660
Flags: HW
HStem: 13 86<176 570> 501 86<176 570>
VStem: 90 86<99 501>
LayerCount: 2
Fore
SplineSet
176 99 m 1
 570 99 l 1
 570 13 l 1
 90 13 l 1
 90 587 l 1
 570 587 l 1
 570 501 l 1
 176 501 l 1
 176 99 l 1
EndSplineSet
EndChar

StartChar: uni2290
Encoding: 69 8848 69
Width: 660
Flags: HW
HStem: 13 86<90 484> 501 86<90 484>
VStem: 484 86<99 501>
LayerCount: 2
Fore
SplineSet
484 99 m 1
 484 501 l 1
 90 501 l 1
 90 587 l 1
 570 587 l 1
 570 13 l 1
 90 13 l 1
 90 99 l 1
 484 99 l 1
EndSplineSet
EndChar

StartChar: uni2291
Encoding: 70 8849 70
Width: 660
Flags: HW
HStem: -23 86<90 570> 172 86<176 570> 537 86<176 570>
VStem: 90 86<258 537>
LayerCount: 2
Fore
SplineSet
176 258 m 1
 570 258 l 1
 570 172 l 1
 90 172 l 1
 90 623 l 1
 570 623 l 1
 570 537 l 1
 176 537 l 1
 176 258 l 1
90 -23 m 1
 90 63 l 1
 570 63 l 1
 570 -23 l 1
 90 -23 l 1
EndSplineSet
EndChar

StartChar: uni2292
Encoding: 71 8850 71
Width: 660
Flags: HW
HStem: -23 86<90 570> 172 86<90 484> 537 86<90 484>
VStem: 484 86<258 537>
LayerCount: 2
Fore
SplineSet
484 258 m 1
 484 537 l 1
 90 537 l 1
 90 623 l 1
 570 623 l 1
 570 172 l 1
 90 172 l 1
 90 258 l 1
 484 258 l 1
570 63 m 1
 570 -23 l 1
 90 -23 l 1
 90 63 l 1
 570 63 l 1
EndSplineSet
EndChar

StartChar: sym021
Encoding: 72 -1 72
Width: 660
Flags: HW
HStem: -121 86<90 570> 74 86<90 570> 269 86<176 570> 635 86<176 570>
VStem: 90 86<355 635>
LayerCount: 2
Fore
SplineSet
176 355 m 1
 570 355 l 1
 570 269 l 1
 90 269 l 1
 90 721 l 1
 570 721 l 1
 570 635 l 1
 176 635 l 1
 176 355 l 1
90 74 m 1
 90 160 l 1
 570 160 l 1
 570 74 l 1
 90 74 l 1
90 -121 m 1
 90 -35 l 1
 570 -35 l 1
 570 -121 l 1
 90 -121 l 1
EndSplineSet
EndChar

StartChar: sym022
Encoding: 73 -1 73
Width: 660
Flags: HW
HStem: -121 86<90 570> 74 86<90 570> 269 86<90 484> 635 86<90 484>
VStem: 484 86<355 635>
LayerCount: 2
Fore
SplineSet
484 355 m 1
 484 635 l 1
 90 635 l 1
 90 721 l 1
 570 721 l 1
 570 269 l 1
 90 269 l 1
 90 355 l 1
 484 355 l 1
570 160 m 1
 570 74 l 1
 90 74 l 1
 90 160 l 1
 570 160 l 1
570 -35 m 1
 570 -121 l 1
 90 -121 l 1
 90 -35 l 1
 570 -35 l 1
EndSplineSet
EndChar

StartChar: sym023
Encoding: 74 -1 74
Width: 660
Flags: HW
HStem: 13 86<176 570> 159 86<322 570> 355 86<322 570> 501 86<176 570>
VStem: 90 86<99 501> 236 86<245 355>
LayerCount: 2
Fore
SplineSet
176 99 m 1
 570 99 l 1
 570 13 l 1
 90 13 l 1
 90 587 l 1
 570 587 l 1
 570 501 l 1
 176 501 l 1
 176 99 l 1
322 245 m 1
 570 245 l 1
 570 159 l 1
 236 159 l 1
 236 441 l 1
 570 441 l 1
 570 355 l 1
 322 355 l 1
 322 245 l 1
EndSplineSet
EndChar

StartChar: sym024
Encoding: 75 -1 75
Width: 660
Flags: HW
HStem: 13 86<90 484> 159 86<90 338> 355 86<90 338> 501 86<90 484>
VStem: 338 86<245 355> 484 86<99 501>
LayerCount: 2
Fore
SplineSet
484 99 m 1
 484 501 l 1
 90 501 l 1
 90 587 l 1
 570 587 l 1
 570 13 l 1
 90 13 l 1
 90 99 l 1
 484 99 l 1
338 245 m 1
 338 355 l 1
 90 355 l 1
 90 441 l 1
 424 441 l 1
 424 159 l 1
 90 159 l 1
 90 245 l 1
 338 245 l 1
EndSplineSet
EndChar

StartChar: propersubset
Encoding: 76 8834 76
Width: 660
Flags: HW
HStem: 13 86<260.955 570> 501 86<260.955 570>
VStem: 90 86<196.532 403.468>
LayerCount: 2
Fore
SplineSet
570 501 m 1
 330 501 l 2
 235 501 176 403 176 300 c 0
 176 197 235 99 330 99 c 2
 570 99 l 1
 570 13 l 1
 330 13 l 2
 188 13 90 149 90 300 c 0
 90 451 188 587 330 587 c 2
 570 587 l 1
 570 501 l 1
EndSplineSet
EndChar

StartChar: propersuperset
Encoding: 77 8835 77
Width: 660
Flags: HW
HStem: 13 86<90 399.045> 501 86<90 399.045>
VStem: 484 86<196.532 403.468>
LayerCount: 2
Fore
SplineSet
90 99 m 1
 330 99 l 2
 425 99 484 197 484 300 c 0
 484 403 425 501 330 501 c 2
 90 501 l 1
 90 587 l 1
 330 587 l 2
 472 587 570 451 570 300 c 0
 570 149 472 13 330 13 c 2
 90 13 l 1
 90 99 l 1
EndSplineSet
EndChar

StartChar: reflexsubset
Encoding: 78 8838 78
Width: 660
Flags: HW
HStem: -23 86<90 570> 172 86<226.408 570> 537 86<226.408 570>
VStem: 90 86<311.82 483.48>
LayerCount: 2
Fore
SplineSet
570 537 m 1
 281 537 l 2
 216 537 176 469 176 398 c 0
 176 326 216 258 281 258 c 2
 570 258 l 1
 570 172 l 1
 281 172 l 2
 169 172 90 279 90 398 c 0
 90 516 169 623 281 623 c 2
 570 623 l 1
 570 537 l 1
90 -23 m 1
 90 63 l 1
 570 63 l 1
 570 -23 l 1
 90 -23 l 1
EndSplineSet
EndChar

StartChar: reflexsuperset
Encoding: 79 8839 79
Width: 660
Flags: HW
HStem: -23 86<90 570> 172 86<90 433.592> 537 86<90 433.592>
VStem: 484 86<311.82 483.48>
LayerCount: 2
Fore
SplineSet
90 258 m 1
 379 258 l 2
 444 258 484 326 484 398 c 0
 484 469 444 537 379 537 c 2
 90 537 l 1
 90 623 l 1
 379 623 l 2
 491 623 570 516 570 398 c 0
 570 279 491 172 379 172 c 2
 90 172 l 1
 90 258 l 1
570 63 m 1
 570 -23 l 1
 90 -23 l 1
 90 63 l 1
 570 63 l 1
EndSplineSet
EndChar

StartChar: uni2AC5
Encoding: 80 10949 80
Width: 660
Flags: HW
HStem: -121 86<90 570> 74 86<90 570> 269 86<226.408 570> 635 86<226.408 570>
VStem: 90 86<408.82 581.18>
LayerCount: 2
Fore
SplineSet
570 635 m 1
 281 635 l 2
 216 635 176 567 176 495 c 0
 176 423 216 355 281 355 c 2
 570 355 l 1
 570 269 l 1
 281 269 l 2
 169 269 90 376 90 495 c 0
 90 614 169 721 281 721 c 2
 570 721 l 1
 570 635 l 1
90 74 m 1
 90 160 l 1
 570 160 l 1
 570 74 l 1
 90 74 l 1
90 -121 m 1
 90 -35 l 1
 570 -35 l 1
 570 -121 l 1
 90 -121 l 1
EndSplineSet
EndChar

StartChar: uni2AC6
Encoding: 81 10950 81
Width: 660
Flags: HW
HStem: -121 86<90 570> 74 86<90 570> 269 86<90 433.592> 635 86<90 433.592>
VStem: 484 86<408.82 581.18>
LayerCount: 2
Fore
SplineSet
90 355 m 1
 379 355 l 2
 444 355 484 423 484 495 c 0
 484 567 444 635 379 635 c 2
 90 635 l 1
 90 721 l 1
 379 721 l 2
 491 721 570 614 570 495 c 0
 570 376 491 269 379 269 c 2
 90 269 l 1
 90 355 l 1
570 160 m 1
 570 74 l 1
 90 74 l 1
 90 160 l 1
 570 160 l 1
570 -35 m 1
 570 -121 l 1
 90 -121 l 1
 90 -35 l 1
 570 -35 l 1
EndSplineSet
EndChar

StartChar: uni22D0
Encoding: 82 8912 82
Width: 660
Flags: HW
HStem: 13 86<260.955 570> 159 86<329.789 570> 355 86<329.789 570> 501 86<260.955 570>
VStem: 90 86<196.532 403.468> 236 86<248.614 351.386>
LayerCount: 2
Fore
SplineSet
570 501 m 1
 330 501 l 2
 235 501 176 403 176 300 c 0
 176 197 235 99 330 99 c 2
 570 99 l 1
 570 13 l 1
 330 13 l 2
 188 13 90 149 90 300 c 0
 90 451 188 587 330 587 c 2
 570 587 l 1
 570 501 l 1
570 355 m 1
 355 355 l 2
 331 355 322 327 322 300 c 0
 322 273 331 245 355 245 c 2
 570 245 l 1
 570 159 l 1
 355 159 l 2
 285 159 236 226 236 300 c 0
 236 374 285 441 355 441 c 2
 570 441 l 1
 570 355 l 1
EndSplineSet
EndChar

StartChar: uni22D1
Encoding: 83 8913 83
Width: 660
Flags: HW
HStem: 13 86<90 399.045> 159 86<90 330.211> 355 86<90 330.211> 501 86<90 399.045>
VStem: 338 86<248.614 351.386> 484 86<196.532 403.468>
LayerCount: 2
Fore
SplineSet
90 99 m 1
 330 99 l 2
 425 99 484 197 484 300 c 0
 484 403 425 501 330 501 c 2
 90 501 l 1
 90 587 l 1
 330 587 l 2
 472 587 570 451 570 300 c 0
 570 149 472 13 330 13 c 2
 90 13 l 1
 90 99 l 1
90 245 m 1
 305 245 l 2
 329 245 338 273 338 300 c 0
 338 327 329 355 305 355 c 2
 90 355 l 1
 90 441 l 1
 305 441 l 2
 375 441 424 374 424 300 c 0
 424 226 375 159 305 159 c 2
 90 159 l 1
 90 245 l 1
EndSplineSet
EndChar

StartChar: uni227A
Encoding: 84 8826 84
Width: 660
Flags: HW
HStem: 257 86<90 241.219>
LayerCount: 2
Fore
SplineSet
309 300 m 1
 407 252 492 169 570 86 c 1
 507 27 l 1
 402 139 286 257 133 257 c 2
 90 257 l 1
 90 343 l 1
 133 343 l 2
 286 343 402 461 507 573 c 1
 570 514 l 1
 492 431 407 348 309 300 c 1
EndSplineSet
EndChar

StartChar: uni227B
Encoding: 85 8827 85
Width: 660
Flags: HW
HStem: 257 86<418.781 570>
LayerCount: 2
Fore
SplineSet
351 300 m 1
 253 348 168 431 90 514 c 1
 153 573 l 1
 258 461 374 343 527 343 c 2
 570 343 l 1
 570 257 l 1
 527 257 l 2
 374 257 258 139 153 27 c 1
 90 86 l 1
 168 169 253 252 351 300 c 1
EndSplineSet
EndChar

StartChar: uni2AAF
Encoding: 86 10927 86
Width: 660
Flags: HW
HStem: 9 86<90 570> 322 86<90 276.141>
LayerCount: 2
Fore
SplineSet
349 365 m 1
 432 331 507 278 570 212 c 1
 507 153 l 1
 410 257 276 322 133 322 c 2
 90 322 l 1
 90 408 l 1
 133 408 l 2
 276 408 410 473 507 577 c 1
 570 518 l 1
 507 452 432 399 349 365 c 1
90 9 m 1
 90 95 l 1
 570 95 l 1
 570 9 l 1
 90 9 l 1
EndSplineSet
EndChar

StartChar: uni2AB0
Encoding: 87 10928 87
Width: 660
Flags: HW
HStem: 9 86<90 570> 322 86<383.859 570>
LayerCount: 2
Fore
SplineSet
311 365 m 1
 228 399 153 452 90 518 c 1
 153 577 l 1
 250 473 384 408 527 408 c 2
 570 408 l 1
 570 322 l 1
 527 322 l 2
 384 322 250 257 153 153 c 1
 90 212 l 1
 153 278 228 331 311 365 c 1
570 95 m 1
 570 9 l 1
 90 9 l 1
 90 95 l 1
 570 95 l 1
EndSplineSet
EndChar

StartChar: uni227C
Encoding: 88 8828 88
Width: 660
Flags: HW
HStem: -8 21G<424.5 487.754> 160 86<90 276.281> 355 86<90 269.869>
LayerCount: 2
Fore
SplineSet
349 398 m 1
 432 364 507 311 570 244 c 1
 507 185 l 1
 410 290 276 355 133 355 c 2
 90 355 l 1
 90 441 l 1
 133 441 l 2
 276 441 410 505 507 610 c 1
 570 551 l 1
 507 484 432 432 349 398 c 1
90 160 m 1
 90 246 l 1
 176 246 l 2
 317 246 427 153 528 49 c 1
 466 -8 l 1
 383 80 294 160 176 160 c 2
 90 160 l 1
EndSplineSet
EndChar

StartChar: uni227D
Encoding: 89 8829 89
Width: 660
Flags: HW
HStem: -8 21G<172.246 235.5> 160 86<383.719 570> 355 86<390.131 570>
LayerCount: 2
Fore
SplineSet
311 398 m 1
 228 432 153 484 90 551 c 1
 153 610 l 1
 250 505 384 441 527 441 c 2
 570 441 l 1
 570 355 l 1
 527 355 l 2
 384 355 250 290 153 185 c 1
 90 244 l 1
 153 311 228 364 311 398 c 1
570 160 m 1
 484 160 l 2
 366 160 277 80 194 -8 c 1
 132 49 l 1
 233 153 343 246 484 246 c 2
 570 246 l 1
 570 160 l 1
EndSplineSet
EndChar

StartChar: uni2AB3
Encoding: 90 10931 90
Width: 660
Flags: HW
HStem: -88 86<90 570> 107 86<90 570> 419 87<90 276.141>
LayerCount: 2
Fore
SplineSet
350 462 m 1
 432 428 508 376 570 309 c 1
 507 250 l 1
 410 355 276 419 133 419 c 2
 90 419 l 1
 90 506 l 1
 133 506 l 2
 276 506 410 570 507 675 c 1
 570 616 l 1
 508 549 432 496 350 462 c 1
90 107 m 1
 90 193 l 1
 570 193 l 1
 570 107 l 1
 90 107 l 1
90 -88 m 1
 90 -2 l 1
 570 -2 l 1
 570 -88 l 1
 90 -88 l 1
EndSplineSet
EndChar

StartChar: uni2AB4
Encoding: 91 10932 91
Width: 660
Flags: HW
HStem: -88 86<90 570> 107 86<90 570> 419 87<383.859 570>
LayerCount: 2
Fore
SplineSet
310 462 m 1
 228 496 152 549 90 616 c 1
 153 675 l 1
 250 570 384 506 527 506 c 2
 570 506 l 1
 570 419 l 1
 527 419 l 2
 384 419 250 355 153 250 c 1
 90 309 l 1
 152 376 228 428 310 462 c 1
570 193 m 1
 570 107 l 1
 90 107 l 1
 90 193 l 1
 570 193 l 1
570 -2 m 1
 570 -88 l 1
 90 -88 l 1
 90 -2 l 1
 570 -2 l 1
EndSplineSet
EndChar

StartChar: uni227E
Encoding: 92 8830 92
Width: 660
Flags: HW
HStem: -23 86<380.175 484.613> 74 86<175.387 279.825> 355 86<90 269.869>
LayerCount: 2
Fore
SplineSet
349 398 m 1
 432 364 507 311 570 244 c 1
 507 185 l 1
 410 290 276 355 133 355 c 2
 90 355 l 1
 90 441 l 1
 133 441 l 2
 276 441 410 505 507 610 c 1
 570 551 l 1
 507 484 432 432 349 398 c 1
436 -23 m 0
 331 -23 291 74 224 74 c 0
 189 74 166 43 141 18 c 1
 90 68 l 1
 130 109 167 160 224 160 c 0
 329 160 369 63 436 63 c 0
 471 63 494 94 519 119 c 1
 570 68 l 1
 530 28 493 -23 436 -23 c 0
EndSplineSet
EndChar

StartChar: uni227F
Encoding: 93 8831 93
Width: 660
Flags: HW
HStem: -23 86<380.175 484.613> 74 86<175.387 279.825> 355 86<390.131 570>
LayerCount: 2
Fore
SplineSet
311 398 m 1
 228 432 153 484 90 551 c 1
 153 610 l 1
 250 505 384 441 527 441 c 2
 570 441 l 1
 570 355 l 1
 527 355 l 2
 384 355 250 290 153 185 c 1
 90 244 l 1
 153 311 228 364 311 398 c 1
436 -23 m 0
 331 -23 291 74 224 74 c 0
 189 74 166 43 141 18 c 1
 90 68 l 1
 130 109 167 160 224 160 c 0
 329 160 369 63 436 63 c 0
 471 63 494 94 519 119 c 1
 570 68 l 1
 530 28 493 -23 436 -23 c 0
EndSplineSet
EndChar

StartChar: uni2AB7
Encoding: 94 10935 94
Width: 660
Flags: HW
HStem: -121 86<379.066 484.613> -23 86<175.387 280.934> 74 86<379.066 484.613> 172 86<175.387 280.934> 452 86<90 276.141> 687 20G<458.5 528.356>
LayerCount: 2
Fore
SplineSet
349 495 m 1
 432 461 507 408 570 342 c 1
 507 283 l 1
 410 387 276 452 133 452 c 2
 90 452 l 1
 90 538 l 1
 133 538 l 2
 276 538 410 603 507 707 c 1
 570 648 l 1
 507 582 432 529 349 495 c 1
141 116 m 1
 90 166 l 1
 130 207 167 258 224 258 c 0
 275 258 320 231 358 199 c 0
 381 179 406 160 436 160 c 0
 471 160 494 191 519 216 c 1
 570 166 l 1
 530 125 493 74 436 74 c 0
 385 74 340 101 302 133 c 0
 279 153 254 172 224 172 c 0
 189 172 166 141 141 116 c 1
141 -79 m 1
 90 -29 l 1
 130 12 167 63 224 63 c 0
 275 63 320 36 358 4 c 0
 381 -16 406 -35 436 -35 c 0
 471 -35 494 -4 519 21 c 1
 570 -29 l 1
 530 -70 493 -121 436 -121 c 0
 385 -121 340 -94 302 -62 c 0
 279 -42 254 -23 224 -23 c 0
 189 -23 166 -54 141 -79 c 1
EndSplineSet
EndChar

StartChar: uni2AB8
Encoding: 95 10936 95
Width: 660
Flags: HW
HStem: -121 86<379.066 484.613> -23 86<175.387 280.934> 74 86<379.066 484.613> 172 86<175.387 280.934> 452 86<383.859 570> 687 20G<131.644 201.5>
LayerCount: 2
Fore
SplineSet
311 495 m 1
 228 529 153 582 90 648 c 1
 153 707 l 1
 250 603 384 538 527 538 c 2
 570 538 l 1
 570 452 l 1
 527 452 l 2
 384 452 250 387 153 283 c 1
 90 342 l 1
 153 408 228 461 311 495 c 1
141 116 m 1
 90 166 l 1
 130 207 167 258 224 258 c 0
 275 258 320 231 358 199 c 0
 381 179 406 160 436 160 c 0
 471 160 494 191 519 216 c 1
 570 166 l 1
 530 125 493 74 436 74 c 0
 385 74 340 101 302 133 c 0
 279 153 254 172 224 172 c 0
 189 172 166 141 141 116 c 1
141 -79 m 1
 90 -29 l 1
 130 12 167 63 224 63 c 0
 275 63 320 36 358 4 c 0
 381 -16 406 -35 436 -35 c 0
 471 -35 494 -4 519 21 c 1
 570 -29 l 1
 530 -70 493 -121 436 -121 c 0
 385 -121 340 -94 302 -62 c 0
 279 -42 254 -23 224 -23 c 0
 189 -23 166 -54 141 -79 c 1
EndSplineSet
EndChar

StartChar: uni22D6
Encoding: 96 8918 96
Width: 660
Flags: HW
HStem: 229 142<464.51 534.496>
VStem: 429 141<264.512 335.488>
LayerCount: 2
Fore
SplineSet
528 570 m 1
 570 495 l 1
 221 300 l 1
 570 105 l 1
 528 30 l 1
 90 275 l 1
 90 325 l 1
 528 570 l 1
570 300 m 0
 570 286 554 270 542 258 c 0
 529 245 514 229 500 229 c 0
 485 229 470 245 457 258 c 0
 445 270 429 286 429 300 c 0
 429 314 445 330 457 342 c 0
 470 355 485 371 500 371 c 0
 514 371 529 355 542 342 c 0
 554 330 570 314 570 300 c 0
EndSplineSet
EndChar

StartChar: uni22D7
Encoding: 97 8919 97
Width: 660
Flags: HW
HStem: 229 142<125.51 195.496>
VStem: 90 141<264.512 335.488>
LayerCount: 2
Fore
SplineSet
132 30 m 1
 90 105 l 1
 439 300 l 1
 90 495 l 1
 132 570 l 1
 570 325 l 1
 570 275 l 1
 132 30 l 1
231 300 m 0
 231 286 215 270 203 258 c 0
 190 245 175 229 161 229 c 0
 146 229 131 245 118 258 c 0
 106 270 90 286 90 300 c 0
 90 314 106 330 118 342 c 0
 131 355 146 371 161 371 c 0
 175 371 190 355 203 342 c 0
 215 330 231 314 231 300 c 0
EndSplineSet
EndChar

StartChar: sym025
Encoding: 98 -1 98
Width: 660
Flags: HW
HStem: 9 86<90 570> 294 142<464.51 534.496>
VStem: 429 141<329.512 400.488>
LayerCount: 2
Fore
SplineSet
537 581 m 1
 570 501 l 1
 244 365 l 1
 570 229 l 1
 537 149 l 1
 90 336 l 1
 90 394 l 1
 537 581 l 1
570 365 m 0
 570 351 554 335 542 323 c 0
 529 310 514 294 500 294 c 0
 485 294 470 310 457 323 c 0
 445 335 429 351 429 365 c 0
 429 379 445 395 457 407 c 0
 470 420 485 436 500 436 c 0
 514 436 529 420 542 407 c 0
 554 395 570 379 570 365 c 0
90 9 m 1
 90 95 l 1
 570 95 l 1
 570 9 l 1
 90 9 l 1
EndSplineSet
EndChar

StartChar: sym026
Encoding: 99 -1 99
Width: 660
Flags: HW
HStem: 9 86<90 570> 294 142<125.51 195.496>
VStem: 90 141<329.512 400.488>
LayerCount: 2
Fore
SplineSet
123 149 m 1
 90 229 l 1
 416 365 l 1
 90 501 l 1
 123 581 l 1
 570 394 l 1
 570 336 l 1
 123 149 l 1
231 365 m 0
 231 351 215 335 203 323 c 0
 190 310 175 294 161 294 c 0
 146 294 131 310 118 323 c 0
 106 335 90 351 90 365 c 0
 90 379 106 395 118 407 c 0
 131 420 146 436 161 436 c 0
 175 436 190 420 203 407 c 0
 215 395 231 379 231 365 c 0
570 95 m 1
 570 9 l 1
 90 9 l 1
 90 95 l 1
 570 95 l 1
EndSplineSet
EndChar

StartChar: uni2A7F
Encoding: 100 10879 100
Width: 660
Flags: HW
HStem: 327 141<463.869 534.901>
VStem: 429 141<361.869 432.901>
LayerCount: 2
Fore
SplineSet
537 613 m 1
 570 534 l 1
 244 398 l 1
 570 261 l 1
 537 182 l 1
 90 369 l 1
 90 426 l 1
 537 613 l 1
500 468 m 0
 519 468 570 417 570 398 c 0
 570 377 519 327 500 327 c 0
 479 327 429 377 429 398 c 0
 429 417 479 468 500 468 c 0
570 66 m 1
 537 -13 l 1
 90 174 l 1
 123 253 l 1
 570 66 l 1
EndSplineSet
EndChar

StartChar: uni2A80
Encoding: 101 10880 101
Width: 660
Flags: HW
HStem: 327 141<124.869 195.901>
VStem: 90 141<361.869 432.901>
LayerCount: 2
Fore
SplineSet
123 182 m 1
 90 261 l 1
 416 398 l 1
 90 534 l 1
 123 613 l 1
 570 426 l 1
 570 369 l 1
 123 182 l 1
161 468 m 0
 180 468 231 417 231 398 c 0
 231 377 180 327 161 327 c 0
 140 327 90 377 90 398 c 0
 90 417 140 468 161 468 c 0
123 -13 m 1
 90 66 l 1
 537 253 l 1
 570 174 l 1
 123 -13 l 1
EndSplineSet
EndChar

StartChar: uni2A95
Encoding: 102 10901 102
Width: 660
Flags: HW
LayerCount: 2
Fore
SplineSet
537 418 m 1
 570 339 l 1
 244 203 l 1
 570 66 l 1
 537 -13 l 1
 90 174 l 1
 90 231 l 1
 537 418 l 1
537 613 m 1
 570 534 l 1
 123 347 l 1
 90 426 l 1
 537 613 l 1
EndSplineSet
EndChar

StartChar: uni2A96
Encoding: 103 10902 103
Width: 660
Flags: HW
LayerCount: 2
Fore
SplineSet
123 -13 m 1
 90 66 l 1
 416 203 l 1
 90 339 l 1
 123 418 l 1
 570 231 l 1
 570 174 l 1
 123 -13 l 1
90 534 m 1
 123 613 l 1
 570 426 l 1
 537 347 l 1
 90 534 l 1
EndSplineSet
EndChar

StartChar: uni22DE
Encoding: 104 8926 104
Width: 660
Flags: HW
HStem: -10 21G<458.5 528.356> 160 86<90 269.869> 354 87<90 276.281>
LayerCount: 2
Fore
SplineSet
349 203 m 1
 432 169 507 116 570 49 c 1
 507 -10 l 1
 410 95 276 160 133 160 c 2
 90 160 l 1
 90 246 l 1
 133 246 l 2
 276 246 410 310 507 415 c 1
 570 356 l 1
 507 289 432 237 349 203 c 1
90 441 m 1
 176 441 l 2
 294 441 383 520 466 608 c 1
 528 551 l 1
 427 447 317 354 176 354 c 2
 90 354 l 1
 90 441 l 1
EndSplineSet
EndChar

StartChar: uni22DF
Encoding: 105 8927 105
Width: 660
Flags: HW
HStem: -10 21G<131.644 201.5> 160 86<390.131 570> 354 87<383.719 570>
LayerCount: 2
Fore
SplineSet
311 203 m 1
 228 237 153 289 90 356 c 1
 153 415 l 1
 250 310 384 246 527 246 c 2
 570 246 l 1
 570 160 l 1
 527 160 l 2
 384 160 250 95 153 -10 c 1
 90 49 l 1
 153 116 228 169 311 203 c 1
570 441 m 1
 570 354 l 1
 484 354 l 2
 343 354 233 447 132 551 c 1
 194 608 l 1
 277 520 366 441 484 441 c 2
 570 441 l 1
EndSplineSet
EndChar

StartChar: notequal
Encoding: 106 8800 106
Width: 660
Flags: HW
HStem: 160 86<90 252 356 570> 355 86<90 305 408 570>
LayerCount: 2
Fore
SplineSet
381 640 m 1
 456 620 l 1
 408 441 l 1
 570 441 l 1
 570 355 l 1
 385 355 l 1
 356 246 l 1
 570 246 l 1
 570 160 l 1
 333 160 l 1
 279 -40 l 1
 204 -20 l 1
 252 160 l 1
 90 160 l 1
 90 246 l 1
 275 246 l 1
 305 355 l 1
 90 355 l 1
 90 441 l 1
 328 441 l 1
 381 640 l 1
EndSplineSet
EndChar

StartChar: uni2262
Encoding: 107 8802 107
Width: 660
Flags: HW
HStem: 62 86<90 226 329 570> 257 86<90 278 382 570> 452 86<90 331 434 570>
CounterMasks: 1 e0
LayerCount: 2
Fore
SplineSet
394 689 m 1
 469 669 l 1
 434 538 l 1
 570 538 l 1
 570 452 l 1
 411 452 l 1
 382 343 l 1
 570 343 l 1
 570 257 l 1
 359 257 l 1
 329 148 l 1
 570 148 l 1
 570 62 l 1
 306 62 l 1
 266 -89 l 1
 191 -69 l 1
 226 62 l 1
 90 62 l 1
 90 148 l 1
 249 148 l 1
 278 257 l 1
 90 257 l 1
 90 343 l 1
 301 343 l 1
 331 452 l 1
 90 452 l 1
 90 538 l 1
 354 538 l 1
 394 689 l 1
EndSplineSet
EndChar

StartChar: uni2241
Encoding: 108 8769 108
Width: 660
Flags: HW
HStem: 208 86<379.389 484.613> 306 86<175.387 280.611>
LayerCount: 2
Fore
SplineSet
368 591 m 1
 443 571 l 1
 375 319 l 1
 393 305 413 294 436 294 c 0
 471 294 494 325 519 350 c 1
 570 300 l 1
 530 259 493 208 436 208 c 0
 406 208 378 218 352 232 c 1
 292 9 l 1
 217 29 l 1
 285 281 l 1
 267 295 247 306 224 306 c 0
 189 306 166 275 141 250 c 1
 90 300 l 1
 130 341 167 392 224 392 c 0
 254 392 282 382 308 368 c 1
 368 591 l 1
EndSplineSet
EndChar

StartChar: uni223D0338
Encoding: 109 -1 109
Width: 660
Flags: HW
HStem: 208 86<175.387 266.51> 306 86<393.49 484.613>
LayerCount: 2
Fore
SplineSet
368 591 m 1
 443 571 l 1
 393 386 l 1
 407 390 421 392 436 392 c 0
 493 392 530 341 570 300 c 1
 519 250 l 1
 494 275 471 306 436 306 c 0
 408 306 384 290 362 271 c 1
 292 9 l 1
 217 29 l 1
 267 214 l 1
 253 210 239 208 224 208 c 0
 167 208 130 259 90 300 c 1
 141 350 l 1
 166 325 189 294 224 294 c 0
 252 294 276 310 298 329 c 1
 368 591 l 1
EndSplineSet
EndChar

StartChar: uni2249
Encoding: 110 8777 110
Width: 660
Flags: HW
HStem: 111 86<380.384 484.613> 198 84<224.984 262> 208 86<175.387 261.688> 306 86<398.312 484.613> 318 84<398 435.016> 403 86<175.387 279.616>
LayerCount: 2
Fore
SplineSet
306 361 m 1xc4
 283 380 256 403 224 403 c 0
 189 403 166 372 141 347 c 1
 90 398 l 1
 130 438 167 489 224 489 c 0
 263 489 298 474 330 452 c 1
 381 640 l 1
 456 620 l 1
 398 402 l 1xcc
 410 396 422 392 436 392 c 0
 471 392 494 423 519 448 c 1
 570 398 l 1
 530 357 493 306 436 306 c 0x94
 415 306 394 310 375 318 c 1
 354 239 l 1
 377 220 404 197 436 197 c 0
 471 197 494 228 519 253 c 1
 570 203 l 1
 530 162 493 111 436 111 c 0
 397 111 362 126 330 148 c 1
 279 -40 l 1
 204 -20 l 1
 262 198 l 1xcc
 250 204 238 208 224 208 c 0
 189 208 166 177 141 152 c 1
 90 203 l 1
 130 243 167 294 224 294 c 0xa4
 245 294 266 290 285 282 c 1
 306 361 l 1xc4
EndSplineSet
EndChar

StartChar: uni224B0338
Encoding: 111 58044 111
Width: 660
Flags: HW
HStem: 13 86<379.567 484.613> 111 86<175.387 239> 208 86<379.389 484.613> 306 86<175.387 280.611> 403 86<421 484.613> 501 86<175.387 280.433> 525 20G<506.5 539.4>
LayerCount: 2
Fore
SplineSet
394 689 m 1xfc
 469 669 l 1
 421 491 l 1
 426 490 431 489 436 489 c 0
 471 489 494 520 519 545 c 1xfa
 570 495 l 1
 530 454 493 403 436 403 c 0
 423 403 411 405 399 408 c 1
 375 319 l 1
 393 305 413 294 436 294 c 0
 471 294 494 325 519 350 c 1
 570 300 l 1
 530 259 493 208 436 208 c 0
 406 208 378 218 352 232 c 1
 332 158 l 1
 341 152 350 145 358 138 c 0
 381 118 406 99 436 99 c 0
 471 99 494 130 519 155 c 1
 570 105 l 1
 530 64 493 13 436 13 c 0
 388 13 345 37 308 67 c 1
 266 -89 l 1
 191 -69 l 1
 239 109 l 1
 234 110 229 111 224 111 c 0
 189 111 166 80 141 55 c 1
 90 105 l 1
 130 146 167 197 224 197 c 0
 237 197 249 195 261 192 c 1
 285 281 l 1
 267 295 247 306 224 306 c 0
 189 306 166 275 141 250 c 1
 90 300 l 1
 130 341 167 392 224 392 c 0
 254 392 282 382 308 368 c 1
 328 442 l 1
 319 448 310 455 302 462 c 0
 279 482 254 501 224 501 c 0
 189 501 166 470 141 445 c 1
 90 495 l 1
 130 536 167 587 224 587 c 0
 272 587 315 563 352 533 c 1
 394 689 l 1xfc
EndSplineSet
EndChar

StartChar: uni2244
Encoding: 112 8772 112
Width: 660
Flags: HW
HStem: 160 86<90 252 356 570> 306 86<398.312 484.613> 318 84<398 435.016> 403 86<175.387 279.616>
LayerCount: 2
Fore
SplineSet
306 361 m 1xb0
 283 380 256 403 224 403 c 0
 189 403 166 372 141 347 c 1
 90 398 l 1
 130 438 167 489 224 489 c 0
 263 489 298 474 330 452 c 1
 381 640 l 1
 456 620 l 1
 398 402 l 1xb0
 410 396 422 392 436 392 c 0
 471 392 494 423 519 448 c 1
 570 398 l 1
 530 357 493 306 436 306 c 0xd0
 415 306 394 310 375 318 c 1
 356 246 l 1
 570 246 l 1
 570 160 l 1
 333 160 l 1
 279 -40 l 1
 204 -20 l 1
 252 160 l 1
 90 160 l 1
 90 246 l 1
 275 246 l 1
 306 361 l 1xb0
EndSplineSet
EndChar

StartChar: uni22CD0338
Encoding: 113 -1 113
Width: 660
Flags: HW
HStem: 160 86<90 252 356 570> 306 86<175.387 281.092> 403 86<421.197 484.613>
LayerCount: 2
Fore
SplineSet
381 640 m 1
 456 620 l 1
 421 488 l 1
 426 489 431 489 436 489 c 0
 493 489 530 438 570 398 c 1
 519 347 l 1
 494 372 471 403 436 403 c 0
 421 403 408 398 395 391 c 1
 356 246 l 1
 570 246 l 1
 570 160 l 1
 333 160 l 1
 279 -40 l 1
 204 -20 l 1
 252 160 l 1
 90 160 l 1
 90 246 l 1
 275 246 l 1
 296 323 l 1
 274 312 250 306 224 306 c 0
 167 306 130 357 90 398 c 1
 141 448 l 1
 166 423 189 392 224 392 c 0
 254 392 279 411 302 430 c 0
 311 438 321 445 331 452 c 1
 381 640 l 1
EndSplineSet
EndChar

StartChar: uni22420338
Encoding: 114 59470 114
Width: 660
Flags: HW
HStem: 111 86<380.384 484.613> 198 84<224.984 262> 208 86<175.387 261.688> 355 86<90 305 408 570>
LayerCount: 2
Fore
SplineSet
354 239 m 1xd0
 377 220 404 197 436 197 c 0
 471 197 494 228 519 253 c 1
 570 203 l 1
 530 162 493 111 436 111 c 0
 397 111 362 126 330 148 c 1
 279 -40 l 1
 204 -20 l 1
 262 198 l 1xd0
 250 204 238 208 224 208 c 0
 189 208 166 177 141 152 c 1
 90 203 l 1
 130 243 167 294 224 294 c 0xb0
 245 294 266 290 285 282 c 1
 305 355 l 1
 90 355 l 1
 90 441 l 1
 328 441 l 1
 381 640 l 1
 456 620 l 1
 408 441 l 1
 570 441 l 1
 570 355 l 1
 385 355 l 1
 354 239 l 1xd0
EndSplineSet
EndChar

StartChar: uni2247
Encoding: 115 8775 115
Width: 660
Flags: HW
HStem: 62 86<90 226 329 570> 257 86<90 278 382 570> 403 86<421 484.613> 501 86<175.387 280.433> 525 20G<506.5 539.4>
LayerCount: 2
Fore
SplineSet
394 689 m 1xf0
 469 669 l 1
 421 491 l 1
 426 490 431 489 436 489 c 0
 471 489 494 520 519 545 c 1xe8
 570 495 l 1
 530 454 493 403 436 403 c 0
 423 403 411 405 399 408 c 1
 382 343 l 1
 570 343 l 1
 570 257 l 1
 359 257 l 1
 329 148 l 1
 570 148 l 1
 570 62 l 1
 306 62 l 1
 266 -89 l 1
 191 -69 l 1
 226 62 l 1
 90 62 l 1
 90 148 l 1
 249 148 l 1
 278 257 l 1
 90 257 l 1
 90 343 l 1
 301 343 l 1
 328 442 l 1
 319 448 310 455 302 462 c 0
 279 482 254 501 224 501 c 0
 189 501 166 470 141 445 c 1
 90 495 l 1
 130 536 167 587 224 587 c 0
 272 587 315 563 352 533 c 1
 394 689 l 1xf0
EndSplineSet
EndChar

StartChar: uni224C0338
Encoding: 116 -1 116
Width: 660
Flags: HW
HStem: 62 86<90 226 329 570> 257 86<90 278 382 570> 403 86<175.387 279.407> 525 20G<120.6 153.5>
LayerCount: 2
Fore
SplineSet
394 689 m 1
 469 669 l 1
 447 586 l 1
 498 580 533 533 570 495 c 1
 519 445 l 1
 494 470 471 501 436 501 c 0
 432 501 428 501 424 500 c 1
 382 343 l 1
 570 343 l 1
 570 257 l 1
 359 257 l 1
 329 148 l 1
 570 148 l 1
 570 62 l 1
 306 62 l 1
 266 -89 l 1
 191 -69 l 1
 226 62 l 1
 90 62 l 1
 90 148 l 1
 249 148 l 1
 278 257 l 1
 90 257 l 1
 90 343 l 1
 301 343 l 1
 327 438 l 1
 296 417 262 403 224 403 c 0
 167 403 130 454 90 495 c 1
 141 545 l 1
 166 520 189 489 224 489 c 0
 275 489 299 537 362 568 c 1
 394 689 l 1
EndSplineSet
EndChar

StartChar: uni224A0338
Encoding: 117 -1 117
Width: 660
Flags: HW
HStem: 62 86<90 226 329 570> 208 86<379.389 484.613> 306 86<175.387 280.611> 403 86<421 484.613> 501 86<175.387 280.433> 525 20G<506.5 539.4>
LayerCount: 2
Fore
SplineSet
394 689 m 1xf8
 469 669 l 1
 421 491 l 1
 426 490 431 489 436 489 c 0
 471 489 494 520 519 545 c 1xf4
 570 495 l 1
 530 454 493 403 436 403 c 0
 423 403 411 405 399 408 c 1
 375 319 l 1
 393 305 413 294 436 294 c 0
 471 294 494 325 519 350 c 1
 570 300 l 1
 530 259 493 208 436 208 c 0
 406 208 378 218 352 232 c 1
 329 148 l 1
 570 148 l 1
 570 62 l 1
 306 62 l 1
 266 -89 l 1
 191 -69 l 1
 226 62 l 1
 90 62 l 1
 90 148 l 1
 249 148 l 1
 285 281 l 1
 267 295 247 306 224 306 c 0
 189 306 166 275 141 250 c 1
 90 300 l 1
 130 341 167 392 224 392 c 0
 254 392 282 382 308 368 c 1
 328 442 l 1
 319 448 310 455 302 462 c 0
 279 482 254 501 224 501 c 0
 189 501 166 470 141 445 c 1
 90 495 l 1
 130 536 167 587 224 587 c 0
 272 587 315 563 352 533 c 1
 394 689 l 1xf8
EndSplineSet
EndChar

StartChar: uni224F0338
Encoding: 118 59469 118
Width: 660
Flags: HW
HStem: 160 86<90 252 356 570> 355 86<90 206.297 452.99 570> 451 86<288.363 330>
LayerCount: 2
Fore
SplineSet
381 640 m 1
 456 620 l 1
 424 500 l 1
 441 484 455 464 462 441 c 1
 570 441 l 1
 570 355 l 1
 385 355 l 1
 356 246 l 1
 570 246 l 1
 570 160 l 1
 333 160 l 1
 279 -40 l 1
 204 -20 l 1
 252 160 l 1
 90 160 l 1
 90 246 l 1
 275 246 l 1
 330 451 l 1
 301 451 277 427 277 398 c 2
 277 355 l 1
 90 355 l 1
 90 441 l 1
 198 441 l 1
 216 496 268 537 330 537 c 0
 338 537 346 536 353 535 c 1
 381 640 l 1
EndSplineSet
EndChar

StartChar: uni2AAE0338
Encoding: 119 -1 119
Width: 660
Flags: HW
HStem: 62 86<90 226 329 570> 257 86<90 278 382 570> 452 86<90 206.297 453.352 570> 548 86<287.986 354.823>
LayerCount: 2
Fore
SplineSet
394 689 m 1
 469 669 l 1
 444 575 l 1
 452 564 458 551 462 538 c 1
 570 538 l 1
 570 452 l 1
 411 452 l 1
 382 343 l 1
 570 343 l 1
 570 257 l 1
 359 257 l 1
 329 148 l 1
 570 148 l 1
 570 62 l 1
 306 62 l 1
 266 -89 l 1
 191 -69 l 1
 226 62 l 1
 90 62 l 1
 90 148 l 1
 249 148 l 1
 278 257 l 1
 90 257 l 1
 90 343 l 1
 301 343 l 1
 355 542 l 1
 348 546 339 548 330 548 c 0
 301 548 277 524 277 495 c 2
 277 452 l 1
 90 452 l 1
 90 538 l 1
 198 538 l 1
 216 594 268 634 330 634 c 0
 347 634 362 631 377 626 c 1
 394 689 l 1
EndSplineSet
EndChar

StartChar: uni224E0338
Encoding: 120 58902 120
Width: 660
Flags: HW
HStem: 63 86<330 371.637> 159 87<90 207.01 453.703 570> 355 86<90 206.297 452.99 570> 451 86<288.363 330>
VStem: 383 187<160.463 246>
LayerCount: 2
Fore
SplineSet
394 689 m 1
 469 669 l 1
 424 500 l 1
 441 484 455 464 462 441 c 1
 570 441 l 1
 570 355 l 1
 385 355 l 1
 330 149 l 1
 359 149 383 173 383 203 c 2
 383 246 l 1
 570 246 l 1
 570 160 l 1
 462 159 l 1
 444 104 392 63 330 63 c 0
 322 63 314 64 307 65 c 1
 266 -89 l 1
 191 -69 l 1
 236 100 l 1
 219 116 205 136 198 159 c 1
 90 160 l 1
 90 246 l 1
 275 246 l 1
 330 451 l 1
 301 451 277 427 277 398 c 2
 277 355 l 1
 90 355 l 1
 90 441 l 1
 198 441 l 1
 216 496 268 537 330 537 c 0
 338 537 346 536 353 535 c 1
 394 689 l 1
EndSplineSet
EndChar

StartChar: uni22500338
Encoding: 121 58250 121
Width: 660
Flags: HW
HStem: 160 86<90 252 356 570> 355 86<90 305 408 570> 522 141<294.676 351.671>
LayerCount: 2
Fore
SplineSet
330 663 m 0
 344 663 360 648 378 629 c 1
 394 689 l 1
 469 669 l 1
 408 441 l 1
 570 441 l 1
 570 355 l 1
 385 355 l 1
 356 246 l 1
 570 246 l 1
 570 160 l 1
 333 160 l 1
 266 -89 l 1
 191 -69 l 1
 252 160 l 1
 90 160 l 1
 90 246 l 1
 275 246 l 1
 305 355 l 1
 90 355 l 1
 90 441 l 1
 328 441 l 1
 352 532 l 1
 345 526 337 522 330 522 c 0
 310 522 260 572 260 592 c 0
 260 614 311 663 330 663 c 0
EndSplineSet
EndChar

StartChar: uni2A660338
Encoding: 122 -1 122
Width: 660
Flags: HW
HStem: -63 141<308.625 365.488> 160 86<90 252 356 570> 355 86<90 305 408 570>
LayerCount: 2
Fore
SplineSet
330 -63 m 0
 317 -63 302 -49 282 -29 c 1
 266 -89 l 1
 191 -69 l 1
 252 160 l 1
 90 160 l 1
 90 246 l 1
 275 246 l 1
 305 355 l 1
 90 355 l 1
 90 441 l 1
 328 441 l 1
 394 689 l 1
 469 669 l 1
 408 441 l 1
 570 441 l 1
 570 355 l 1
 385 355 l 1
 356 246 l 1
 570 246 l 1
 570 160 l 1
 333 160 l 1
 308 68 l 1
 315 74 323 78 330 78 c 0
 344 78 360 62 372 50 c 0
 385 37 401 22 401 8 c 0
 401 -7 385 -22 372 -35 c 0
 360 -47 344 -63 330 -63 c 0
EndSplineSet
EndChar

StartChar: uni22510338
Encoding: 123 -1 123
Width: 660
Flags: HW
HStem: -63 141<308.625 365.488> 160 86<90 252 356 570> 355 86<90 305 408 570> 522 141<294.676 351.671>
LayerCount: 2
Fore
SplineSet
330 663 m 0
 344 663 360 648 378 629 c 1
 394 689 l 1
 469 669 l 1
 408 441 l 1
 570 441 l 1
 570 355 l 1
 385 355 l 1
 356 246 l 1
 570 246 l 1
 570 160 l 1
 333 160 l 1
 308 68 l 1
 315 74 323 78 330 78 c 0
 344 78 360 62 372 50 c 0
 385 37 401 22 401 8 c 0
 401 -7 385 -22 372 -35 c 0
 360 -47 344 -63 330 -63 c 0
 317 -63 302 -49 282 -29 c 1
 266 -89 l 1
 191 -69 l 1
 252 160 l 1
 90 160 l 1
 90 246 l 1
 275 246 l 1
 305 355 l 1
 90 355 l 1
 90 441 l 1
 328 441 l 1
 352 532 l 1
 345 526 337 522 330 522 c 0
 310 522 260 572 260 592 c 0
 260 614 311 663 330 663 c 0
EndSplineSet
EndChar

StartChar: uni22520338
Encoding: 124 -1 124
Width: 660
Flags: HW
HStem: -63 141<463.869 534.901> 160 86<90 252 356 570> 355 86<90 305 408 570> 522 141<124.869 195.901>
VStem: 90 141<557.099 628.131> 429 141<-28.1306 42.9008>
LayerCount: 2
Fore
SplineSet
161 663 m 0
 180 663 231 613 231 592 c 0
 231 573 180 522 161 522 c 0
 140 522 90 573 90 592 c 0
 90 613 140 663 161 663 c 0
500 78 m 0
 519 78 570 27 570 8 c 0
 570 -13 519 -63 500 -63 c 0
 479 -63 429 -13 429 8 c 0
 429 27 479 78 500 78 c 0
394 689 m 1
 469 669 l 1
 408 441 l 1
 570 441 l 1
 570 355 l 1
 385 355 l 1
 356 246 l 1
 570 246 l 1
 570 160 l 1
 333 160 l 1
 266 -89 l 1
 191 -69 l 1
 252 160 l 1
 90 160 l 1
 90 246 l 1
 275 246 l 1
 305 355 l 1
 90 355 l 1
 90 441 l 1
 328 441 l 1
 394 689 l 1
EndSplineSet
EndChar

StartChar: uni22530338
Encoding: 125 -1 125
Width: 660
Flags: HW
HStem: -63 141<124.869 196.17> 160 86<90 252 356 570> 355 86<90 305 408 570> 522 141<464.193 534.901>
LayerCount: 2
Fore
SplineSet
161 78 m 0
 180 78 212 40 218 33 c 1
 252 160 l 1
 90 160 l 1
 90 246 l 1
 275 246 l 1
 305 355 l 1
 90 355 l 1
 90 441 l 1
 328 441 l 1
 394 689 l 1
 469 669 l 1
 461 639 l 1
 473 650 486 663 500 663 c 0
 519 663 570 613 570 592 c 0
 570 573 519 522 500 522 c 0
 481 522 451 557 442 567 c 1
 408 441 l 1
 570 441 l 1
 570 355 l 1
 385 355 l 1
 356 246 l 1
 570 246 l 1
 570 160 l 1
 333 160 l 1
 266 -89 l 1
 191 -69 l 1
 199 -39 l 1
 187 -50 174 -63 161 -63 c 0
 140 -63 90 -13 90 8 c 0
 90 27 140 78 161 78 c 0
EndSplineSet
EndChar

StartChar: uni23230338
Encoding: 126 -1 126
Width: 660
Flags: HW
HStem: 215 83<229.985 267>
LayerCount: 2
Fore
SplineSet
368 591 m 1
 443 571 l 1
 370 298 l 1
 423 309 470 340 509 379 c 1
 570 319 l 1
 510 257 432 213 346 208 c 1
 292 9 l 1
 217 29 l 1
 267 215 l 1
 200 230 139 268 90 319 c 1
 151 379 l 1
 189 340 236 309 289 298 c 1
 368 591 l 1
EndSplineSet
EndChar

StartChar: uni23220338
Encoding: 127 -1 127
Width: 660
Flags: HW
HStem: 302 83<393 430.015>
LayerCount: 2
Fore
SplineSet
368 591 m 1
 443 571 l 1
 393 385 l 1
 460 370 521 332 570 281 c 1
 509 221 l 1
 471 260 424 291 371 302 c 1
 292 9 l 1
 217 29 l 1
 290 302 l 1
 237 291 190 260 151 221 c 1
 90 281 l 1
 150 343 228 387 314 392 c 1
 368 591 l 1
EndSplineSet
EndChar

StartChar: uni226D
Encoding: 128 8813 128
Width: 660
Flags: HW
HStem: 176 84<360 422.1> 340 84<237.9 300>
LayerCount: 2
Fore
SplineSet
394 689 m 1
 469 669 l 1
 407 439 l 1
 445 454 480 479 509 509 c 1
 570 449 l 1
 518 396 454 356 382 343 c 1
 360 260 l 1
 440 252 513 210 570 151 c 1
 509 91 l 1
 463 138 403 174 337 176 c 1
 266 -89 l 1
 191 -69 l 1
 253 161 l 1
 215 146 180 121 151 91 c 1
 90 151 l 1
 142 204 206 244 278 257 c 1
 300 340 l 1
 220 348 147 390 90 449 c 1
 151 509 l 1
 197 462 257 426 323 424 c 1
 394 689 l 1
EndSplineSet
EndChar

StartChar: uni20500338
Encoding: 129 -1 129
Width: 660
Flags: HW
HStem: 78 86<334 420.638> 436 86<239.362 326>
LayerCount: 2
Fore
SplineSet
394 689 m 1
 469 669 l 1
 425 506 l 1
 479 487 529 453 570 411 c 1
 509 351 l 1
 479 382 443 408 403 423 c 1
 334 164 l 1
 401 165 462 201 509 249 c 1
 570 189 l 1
 506 123 422 78 330 78 c 0
 324 78 317 79 311 79 c 1
 266 -89 l 1
 191 -69 l 1
 235 94 l 1
 181 113 131 147 90 189 c 1
 151 249 l 1
 181 218 217 192 257 177 c 1
 326 436 l 1
 259 435 198 399 151 351 c 1
 90 411 l 1
 154 477 238 522 330 522 c 0
 336 522 343 521 349 521 c 1
 394 689 l 1
EndSplineSet
EndChar

StartChar: sym020_uni0338
Encoding: 130 -1 130
Width: 660
Flags: HW
HStem: 62 86<90 226 329 570> 257 86<90 278 382 570> 403 86<238.304 317>
LayerCount: 2
Fore
SplineSet
394 689 m 1
 469 669 l 1
 427 513 l 1
 457 528 485 549 509 574 c 1
 570 514 l 1
 523 465 464 428 400 412 c 1
 382 343 l 1
 570 343 l 1
 570 257 l 1
 359 257 l 1
 329 148 l 1
 570 148 l 1
 570 62 l 1
 306 62 l 1
 266 -89 l 1
 191 -69 l 1
 226 62 l 1
 90 62 l 1
 90 148 l 1
 249 148 l 1
 278 257 l 1
 90 257 l 1
 90 343 l 1
 301 343 l 1
 317 403 l 1
 230 407 151 451 90 514 c 1
 151 574 l 1
 199 525 261 489 330 489 c 0
 334 489 338 489 341 489 c 1
 394 689 l 1
EndSplineSet
EndChar

StartChar: uni22580338
Encoding: 131 -1 131
Width: 660
Flags: HW
HStem: 62 86<90 226 329 570> 257 86<90 278 382 570> 501 86<238.448 343.5>
LayerCount: 2
Fore
SplineSet
394 689 m 1
 469 669 l 1
 441 565 l 1
 489 546 533 514 570 476 c 1
 509 416 l 1
 483 443 453 466 419 481 c 1
 382 343 l 1
 570 343 l 1
 570 257 l 1
 359 257 l 1
 329 148 l 1
 570 148 l 1
 570 62 l 1
 306 62 l 1
 266 -89 l 1
 191 -69 l 1
 226 62 l 1
 90 62 l 1
 90 148 l 1
 249 148 l 1
 278 257 l 1
 90 257 l 1
 90 343 l 1
 301 343 l 1
 344 501 l 1
 340 501 335 501 330 501 c 0
 261 501 199 465 151 416 c 1
 90 476 l 1
 154 542 238 587 330 587 c 0
 342 587 354 587 366 585 c 1
 394 689 l 1
EndSplineSet
EndChar

StartChar: uni22560338
Encoding: 132 -1 132
Width: 660
Flags: HW
HStem: 160 86<90 230 430 570> 355 86<90 231 430 570>
VStem: 217 64<281.342 338.718> 379 65<261.445 318.676>
LayerCount: 2
Fore
SplineSet
300 339 m 1
 297 337 281 324 281 300 c 0
 281 293 283 287 285 281 c 1
 300 339 l 1
360 261 m 1
 363 263 379 276 379 300 c 0
 379 307 377 313 375 319 c 1
 360 261 l 1
381 640 m 1
 456 620 l 1
 408 441 l 1
 570 441 l 1
 570 355 l 1
 430 355 l 1
 439 338 444 319 444 300 c 0
 444 281 439 262 430 246 c 1
 570 246 l 1
 570 160 l 1
 333 160 l 1
 279 -40 l 1
 204 -20 l 1
 252 160 l 1
 90 160 l 1
 90 246 l 1
 230 246 l 1
 221 262 217 281 217 300 c 0
 217 319 222 338 231 355 c 1
 90 355 l 1
 90 441 l 1
 328 441 l 1
 381 640 l 1
EndSplineSet
EndChar

StartChar: uni22570338
Encoding: 133 -1 133
Width: 660
Flags: HW
HStem: 160 86<90 226 330 570> 355 86<90 278 382 570> 690 65<289.395 364.701>
VStem: 217 64<600.912 681.597>
LayerCount: 2
Fore
SplineSet
281 641 m 0
 281 613 304 592 330 592 c 0
 334 592 338 593 342 594 c 1
 365 676 l 1
 355 685 343 690 330 690 c 0
 305 690 281 671 281 641 c 0
217 641 m 0
 217 707 270 755 330 755 c 0
 348 755 366 750 382 742 c 1
 407 835 l 1
 482 815 l 1
 442 664 l 1
 444 656 444 649 444 641 c 0
 444 614 434 587 415 567 c 1
 382 441 l 1
 570 441 l 1
 570 355 l 1
 359 355 l 1
 330 246 l 1
 570 246 l 1
 570 160 l 1
 307 160 l 1
 253 -40 l 1
 178 -20 l 1
 226 160 l 1
 90 160 l 1
 90 246 l 1
 249 246 l 1
 278 355 l 1
 90 355 l 1
 90 441 l 1
 301 441 l 1
 325 528 l 1
 270 531 217 575 217 641 c 0
EndSplineSet
EndChar

StartChar: uni22590338
Encoding: 134 -1 134
Width: 660
Flags: HW
HStem: 160 86<90 226 330 570> 355 86<90 278 382 570>
LayerCount: 2
Fore
SplineSet
407 835 m 1
 482 815 l 1
 443 669 l 1
 538 548 l 1
 470 495 l 1
 415 565 l 1
 382 441 l 1
 570 441 l 1
 570 355 l 1
 359 355 l 1
 330 246 l 1
 570 246 l 1
 570 160 l 1
 307 160 l 1
 253 -40 l 1
 178 -20 l 1
 226 160 l 1
 90 160 l 1
 90 246 l 1
 249 246 l 1
 278 355 l 1
 90 355 l 1
 90 441 l 1
 301 441 l 1
 355 642 l 1
 330 675 l 1
 190 495 l 1
 122 548 l 1
 309 787 l 1
 351 787 l 1
 383 746 l 1
 407 835 l 1
EndSplineSet
EndChar

StartChar: uni225A0338
Encoding: 135 -1 135
Width: 660
Flags: HW
HStem: 160 86<90 226 330 570> 355 86<90 278 382 570>
LayerCount: 2
Fore
SplineSet
407 835 m 1
 482 815 l 1
 474 784 l 1
 538 735 l 1
 420 584 l 1
 382 441 l 1
 570 441 l 1
 570 355 l 1
 359 355 l 1
 330 246 l 1
 570 246 l 1
 570 160 l 1
 307 160 l 1
 253 -40 l 1
 178 -20 l 1
 226 160 l 1
 90 160 l 1
 90 246 l 1
 249 246 l 1
 278 355 l 1
 90 355 l 1
 90 441 l 1
 301 441 l 1
 316 495 l 1
 309 495 l 1
 122 735 l 1
 190 787 l 1
 330 608 l 1
 355 640 l 1
 407 835 l 1
EndSplineSet
EndChar

StartChar: uni225B0338
Encoding: 136 -1 136
Width: 660
Flags: HW
HStem: 160 86<90 226 330 570> 355 86<90 278 382 570>
LayerCount: 2
Fore
SplineSet
407 835 m 1
 482 815 l 1
 451 700 l 1
 507 699 l 1
 437 645 l 1
 416 569 l 1
 440 490 l 1
 402 517 l 1
 382 441 l 1
 570 441 l 1
 570 355 l 1
 359 355 l 1
 330 246 l 1
 570 246 l 1
 570 160 l 1
 307 160 l 1
 253 -40 l 1
 178 -20 l 1
 226 160 l 1
 90 160 l 1
 90 246 l 1
 249 246 l 1
 278 355 l 1
 90 355 l 1
 90 441 l 1
 301 441 l 1
 334 564 l 1
 330 567 l 1
 220 490 l 1
 259 618 l 1
 153 699 l 1
 286 702 l 1
 330 828 l 1
 373 706 l 1
 407 835 l 1
EndSplineSet
EndChar

StartChar: uni225C0338
Encoding: 137 -1 137
Width: 660
Flags: HW
HStem: 160 86<90 226 330 570> 355 86<90 278 382 570> 536 64<259 327>
LayerCount: 2
Fore
SplineSet
330 723 m 1
 259 600 l 1
 344 600 l 1
 362 667 l 1
 330 723 l 1
407 835 m 1
 482 815 l 1
 441 661 l 1
 513 536 l 1
 407 536 l 1
 382 441 l 1
 570 441 l 1
 570 355 l 1
 359 355 l 1
 330 246 l 1
 570 246 l 1
 570 160 l 1
 307 160 l 1
 253 -40 l 1
 178 -20 l 1
 226 160 l 1
 90 160 l 1
 90 246 l 1
 249 246 l 1
 278 355 l 1
 90 355 l 1
 90 441 l 1
 301 441 l 1
 327 536 l 1
 147 536 l 1
 330 852 l 1
 386 756 l 1
 407 835 l 1
EndSplineSet
EndChar

StartChar: notelement
Encoding: 138 8713 138
Width: 660
Flags: HW
HStem: 13 86<316.5 570> 257 86<179 278 382 570> 501 86<260.955 344 447 570>
VStem: 90 89<189.813 257 343 408.547>
CounterMasks: 1 e0
LayerCount: 2
Fore
SplineSet
301 343 m 1
 344 501 l 1
 330 501 l 2
 248 501 193 429 179 343 c 1
 301 343 l 1
278 257 m 1
 179 257 l 1
 187 206 211 160 245 131 c 1
 278 257 l 1
407 737 m 1
 482 717 l 1
 447 587 l 1
 570 587 l 1
 570 501 l 1
 424 501 l 1
 382 343 l 1
 570 343 l 1
 570 257 l 1
 359 257 l 1
 316 100 l 1
 320 100 325 99 330 99 c 2
 570 99 l 1
 570 13 l 1
 330 13 l 2
 318 13 306 14 294 16 c 1
 253 -137 l 1
 178 -117 l 1
 221 43 l 1
 140 91 90 192 90 300 c 0
 90 451 188 587 330 587 c 2
 367 587 l 1
 407 737 l 1
EndSplineSet
EndChar

StartChar: uni220C
Encoding: 139 8716 139
Width: 660
Flags: HW
HStem: 13 86<90 213 316 399.045> 257 86<90 278 382 481> 501 86<90 343.5>
VStem: 481 89<191.453 257 343 410.187>
CounterMasks: 1 e0
LayerCount: 2
Fore
SplineSet
359 257 m 1
 316 99 l 1
 330 99 l 2
 412 99 467 171 481 257 c 1
 359 257 l 1
382 343 m 1
 481 343 l 1
 473 394 449 440 415 469 c 1
 382 343 l 1
407 737 m 1
 482 717 l 1
 439 557 l 1
 520 509 570 408 570 300 c 0
 570 149 472 13 330 13 c 2
 293 13 l 1
 253 -137 l 1
 178 -117 l 1
 213 13 l 1
 90 13 l 1
 90 99 l 1
 236 99 l 1
 278 257 l 1
 90 257 l 1
 90 343 l 1
 301 343 l 1
 344 500 l 1
 340 500 335 501 330 501 c 2
 90 501 l 1
 90 587 l 1
 330 587 l 2
 342 587 354 586 366 584 c 1
 407 737 l 1
EndSplineSet
EndChar

StartChar: uni226E
Encoding: 140 8814 140
Width: 660
Flags: HW
LayerCount: 2
Fore
SplineSet
281 267 m 1
 302 345 l 1
 221 300 l 1
 281 267 l 1
394 689 m 1
 469 669 l 1
 427 514 l 1
 528 570 l 1
 570 495 l 1
 396 398 l 1
 351 227 l 1
 570 105 l 1
 528 30 l 1
 328 142 l 1
 266 -89 l 1
 191 -69 l 1
 258 181 l 1
 90 275 l 1
 90 325 l 1
 333 461 l 1
 394 689 l 1
EndSplineSet
EndChar

StartChar: uni226F
Encoding: 141 8815 141
Width: 660
Flags: HW
LayerCount: 2
Fore
SplineSet
379 333 m 1
 358 255 l 1
 439 300 l 1
 379 333 l 1
394 689 m 1
 469 669 l 1
 402 419 l 1
 570 325 l 1
 570 275 l 1
 327 139 l 1
 266 -89 l 1
 191 -69 l 1
 233 86 l 1
 132 30 l 1
 90 105 l 1
 264 202 l 1
 309 373 l 1
 90 495 l 1
 132 570 l 1
 332 458 l 1
 394 689 l 1
EndSplineSet
EndChar

StartChar: uni2270
Encoding: 142 8816 142
Width: 660
Flags: HW
HStem: 9 86<90 212 315 570>
LayerCount: 2
Fore
SplineSet
301 341 m 1
 315 395 l 1
 244 365 l 1
 301 341 l 1
404 725 m 1
 479 705 l 1
 434 538 l 1
 537 581 l 1
 570 501 l 1
 406 432 l 1
 373 311 l 1
 570 229 l 1
 537 149 l 1
 351 227 l 1
 315 95 l 1
 570 95 l 1
 570 9 l 1
 292 9 l 1
 256 -125 l 1
 181 -105 l 1
 212 9 l 1
 90 9 l 1
 90 95 l 1
 235 95 l 1
 278 257 l 1
 90 336 l 1
 90 394 l 1
 344 500 l 1
 404 725 l 1
EndSplineSet
EndChar

StartChar: uni2271
Encoding: 143 8817 143
Width: 660
Flags: HW
HStem: 9 86<90 212 315 570>
LayerCount: 2
Fore
SplineSet
391 376 m 1
 384 352 l 1
 416 365 l 1
 391 376 l 1
404 725 m 1
 479 705 l 1
 413 460 l 1
 570 394 l 1
 570 336 l 1
 356 246 l 1
 315 95 l 1
 570 95 l 1
 570 9 l 1
 292 9 l 1
 256 -125 l 1
 181 -105 l 1
 212 9 l 1
 90 9 l 1
 90 95 l 1
 235 95 l 1
 265 209 l 1
 123 149 l 1
 90 229 l 1
 294 314 l 1
 318 406 l 1
 90 501 l 1
 123 581 l 1
 341 490 l 1
 404 725 l 1
EndSplineSet
EndChar

StartChar: uni2A7D0338
Encoding: 144 58023 144
Width: 660
Flags: HW
LayerCount: 2
Fore
SplineSet
309 371 m 1
 325 432 l 1
 244 398 l 1
 309 371 l 1
404 725 m 1
 479 705 l 1
 444 574 l 1
 537 613 l 1
 570 534 l 1
 416 470 l 1
 381 340 l 1
 570 261 l 1
 537 182 l 1
 359 257 l 1
 334 165 l 1
 570 66 l 1
 537 -13 l 1
 311 81 l 1
 256 -125 l 1
 181 -105 l 1
 239 112 l 1
 90 174 l 1
 123 253 l 1
 262 195 l 1
 286 287 l 1
 90 369 l 1
 90 426 l 1
 353 536 l 1
 404 725 l 1
EndSplineSet
EndChar

StartChar: uni2A7E0338
Encoding: 145 58022 145
Width: 660
Flags: HW
LayerCount: 2
Fore
SplineSet
398 405 m 1
 394 389 l 1
 416 398 l 1
 398 405 l 1
404 725 m 1
 479 705 l 1
 421 488 l 1
 570 426 l 1
 570 369 l 1
 366 284 l 1
 335 168 l 1
 537 253 l 1
 570 174 l 1
 307 64 l 1
 256 -125 l 1
 181 -105 l 1
 216 26 l 1
 123 -13 l 1
 90 66 l 1
 244 131 l 1
 275 246 l 1
 123 182 l 1
 90 261 l 1
 303 351 l 1
 326 435 l 1
 90 534 l 1
 123 613 l 1
 349 519 l 1
 404 725 l 1
EndSplineSet
EndChar

StartChar: uni22660338
Encoding: 146 58024 146
Width: 660
Flags: HW
HStem: -88 86<90 186 289 570> 107 86<90 238 342 570>
LayerCount: 2
Fore
SplineSet
324 429 m 1
 344 504 l 1
 244 462 l 1
 324 429 l 1
421 790 m 1
 496 770 l 1
 463 647 l 1
 537 678 l 1
 570 599 l 1
 435 542 l 1
 397 398 l 1
 570 326 l 1
 537 247 l 1
 374 315 l 1
 342 193 l 1
 570 193 l 1
 570 107 l 1
 319 107 l 1
 289 -2 l 1
 570 -2 l 1
 570 -88 l 1
 266 -88 l 1
 239 -190 l 1
 164 -170 l 1
 186 -88 l 1
 90 -88 l 1
 90 -2 l 1
 209 -2 l 1
 238 107 l 1
 90 107 l 1
 90 193 l 1
 261 193 l 1
 302 345 l 1
 90 434 l 1
 90 491 l 1
 373 609 l 1
 421 790 l 1
EndSplineSet
EndChar

StartChar: uni22670338
Encoding: 147 58021 147
Width: 660
Flags: HW
HStem: -88 86<90 186 289 570> 107 86<90 238 342 570>
LayerCount: 2
Fore
SplineSet
414 463 m 1
 413 461 l 1
 416 462 l 1
 414 463 l 1
421 790 m 1
 496 770 l 1
 436 547 l 1
 570 491 l 1
 570 434 l 1
 385 357 l 1
 342 193 l 1
 570 193 l 1
 570 107 l 1
 319 107 l 1
 289 -2 l 1
 570 -2 l 1
 570 -88 l 1
 266 -88 l 1
 239 -190 l 1
 164 -170 l 1
 186 -88 l 1
 90 -88 l 1
 90 -2 l 1
 209 -2 l 1
 238 107 l 1
 90 107 l 1
 90 193 l 1
 261 193 l 1
 295 319 l 1
 123 247 l 1
 90 326 l 1
 323 423 l 1
 342 493 l 1
 90 599 l 1
 123 678 l 1
 364 577 l 1
 421 790 l 1
EndSplineSet
EndChar

StartChar: uni2274
Encoding: 148 8820 148
Width: 660
Flags: HW
HStem: -23 86<379.867 484.613> 74 86<175.72 228.719>
LayerCount: 2
Fore
SplineSet
309 371 m 1
 325 432 l 1
 244 398 l 1
 309 371 l 1
436 -23 m 0
 374 -23 330 13 300 38 c 1
 256 -125 l 1
 181 -105 l 1
 229 74 l 1
 227 74 226 74 224 74 c 0
 189 74 166 43 141 18 c 1
 90 68 l 1
 130 109 167 160 224 160 c 0
 233 160 243 159 252 157 c 1
 286 287 l 1
 90 369 l 1
 90 426 l 1
 353 536 l 1
 404 725 l 1
 479 705 l 1
 444 574 l 1
 537 613 l 1
 570 534 l 1
 416 470 l 1
 381 340 l 1
 570 261 l 1
 537 182 l 1
 359 257 l 1
 324 127 l 1
 336 119 347 110 358 101 c 0
 381 82 406 63 436 63 c 0
 471 63 494 94 519 119 c 1
 570 68 l 1
 530 28 493 -23 436 -23 c 0
EndSplineSet
EndChar

StartChar: uni2275
Encoding: 149 8821 149
Width: 660
Flags: HW
HStem: -23 86<379.867 484.613> 74 86<175.72 228.719>
LayerCount: 2
Fore
SplineSet
398 405 m 1
 394 389 l 1
 416 398 l 1
 398 405 l 1
436 -23 m 0
 374 -23 330 13 300 38 c 1
 256 -125 l 1
 181 -105 l 1
 229 74 l 1
 227 74 226 74 224 74 c 0
 189 74 166 43 141 18 c 1
 90 68 l 1
 130 109 167 160 224 160 c 0
 233 160 243 159 252 157 c 1
 275 246 l 1
 123 182 l 1
 90 261 l 1
 303 351 l 1
 326 435 l 1
 90 534 l 1
 123 613 l 1
 349 519 l 1
 404 725 l 1
 479 705 l 1
 421 488 l 1
 570 426 l 1
 570 369 l 1
 366 284 l 1
 324 127 l 1
 336 119 347 110 358 101 c 0
 381 82 406 63 436 63 c 0
 471 63 494 94 519 119 c 1
 570 68 l 1
 530 28 493 -23 436 -23 c 0
EndSplineSet
EndChar

StartChar: uni2A850338
Encoding: 150 -1 150
Width: 660
Flags: HW
HStem: -121 86<380.619 484.613> 74 86<379.813 484.613> 172 86<175.387 253.591> 691 20G<489.593 545.25>
LayerCount: 2
Fore
SplineSet
332 458 m 1
 355 541 l 1
 244 495 l 1
 332 458 l 1
301 43 m 1
 362 12 386 -35 436 -35 c 0
 471 -35 494 -4 519 21 c 1
 570 -29 l 1
 530 -70 493 -121 436 -121 c 0
 385 -121 340 -94 302 -62 c 0
 294 -55 286 -49 278 -43 c 1
 243 -174 l 1
 168 -154 l 1
 202 -27 l 1
 179 -36 160 -60 141 -79 c 1
 90 -29 l 1
 130 12 167 63 224 63 c 0
 225 63 225 63 226 63 c 2
 254 166 l 1
 245 170 235 172 224 172 c 0
 189 172 166 141 141 116 c 1
 90 166 l 1
 130 207 167 258 224 258 c 0
 242 258 259 255 276 249 c 1
 310 374 l 1
 90 466 l 1
 90 524 l 1
 383 646 l 1
 417 774 l 1
 492 754 l 1
 473 684 l 1
 537 711 l 1
 570 631 l 1
 445 579 l 1
 405 428 l 1
 570 359 l 1
 537 279 l 1
 382 344 l 1
 346 209 l 1
 350 206 354 202 358 199 c 0
 381 179 406 160 436 160 c 0
 471 160 494 191 519 216 c 1
 570 166 l 1
 530 125 493 74 436 74 c 0
 393 74 355 93 321 118 c 1
 301 43 l 1
EndSplineSet
EndChar

StartChar: uni2A860338
Encoding: 151 -1 151
Width: 660
Flags: HW
HStem: -121 86<380.619 484.613> 74 86<379.813 484.613> 172 86<175.387 253.591> 691 20G<114.75 170.885>
LayerCount: 2
Fore
SplineSet
301 43 m 1
 362 12 386 -35 436 -35 c 0
 471 -35 494 -4 519 21 c 1
 570 -29 l 1
 530 -70 493 -121 436 -121 c 0
 385 -121 340 -94 302 -62 c 0
 294 -55 286 -49 278 -43 c 1
 243 -174 l 1
 168 -154 l 1
 202 -27 l 1
 179 -36 160 -60 141 -79 c 1
 90 -29 l 1
 130 12 167 63 224 63 c 0
 225 63 225 63 226 63 c 2
 254 166 l 1
 245 170 235 172 224 172 c 0
 189 172 166 141 141 116 c 1
 90 166 l 1
 130 207 167 258 224 258 c 0
 242 258 259 255 276 249 c 1
 305 355 l 1
 123 279 l 1
 90 359 l 1
 333 460 l 1
 350 523 l 1
 90 631 l 1
 123 711 l 1
 372 607 l 1
 417 774 l 1
 492 754 l 1
 444 577 l 1
 570 524 l 1
 570 466 l 1
 395 393 l 1
 346 209 l 1
 350 206 354 202 358 199 c 0
 381 179 406 160 436 160 c 0
 471 160 494 191 519 216 c 1
 570 166 l 1
 530 125 493 74 436 74 c 0
 393 74 355 93 321 118 c 1
 301 43 l 1
EndSplineSet
EndChar

StartChar: uni2278
Encoding: 152 8824 152
Width: 660
Flags: HW
LayerCount: 2
Fore
SplineSet
331 453 m 1
 352 534 l 1
 244 489 l 1
 331 453 l 1
329 147 m 1
 308 66 l 1
 416 111 l 1
 329 147 l 1
428 817 m 1
 503 797 l 1
 471 676 l 1
 537 704 l 1
 570 625 l 1
 443 572 l 1
 403 423 l 1
 570 353 l 1
 537 273 l 1
 380 338 l 1
 352 231 l 1
 570 140 l 1
 570 82 l 1
 280 -39 l 1
 232 -217 l 1
 157 -197 l 1
 189 -76 l 1
 123 -104 l 1
 90 -25 l 1
 217 28 l 1
 257 177 l 1
 90 247 l 1
 123 327 l 1
 280 262 l 1
 308 369 l 1
 90 460 l 1
 90 518 l 1
 380 639 l 1
 428 817 l 1
EndSplineSet
EndChar

StartChar: uni2279
Encoding: 153 8825 153
Width: 660
Flags: HW
LayerCount: 2
Fore
SplineSet
415 768 m 1
 490 748 l 1
 443 571 l 1
 570 518 l 1
 570 460 l 1
 393 386 l 1
 357 252 l 1
 537 327 l 1
 570 247 l 1
 329 147 l 1
 312 83 l 1
 570 -25 l 1
 537 -104 l 1
 290 -1 l 1
 245 -168 l 1
 170 -148 l 1
 217 29 l 1
 90 82 l 1
 90 140 l 1
 267 214 l 1
 303 348 l 1
 123 273 l 1
 90 353 l 1
 331 453 l 1
 348 517 l 1
 90 625 l 1
 123 704 l 1
 370 601 l 1
 415 768 l 1
EndSplineSet
EndChar

StartChar: uni22DA0338
Encoding: 154 -1 154
Width: 660
Flags: HW
HStem: -228 21G<114.646 152> 257 86<90 279 381 570>
LayerCount: 2
Fore
SplineSet
361 564 m 1
 390 674 l 1
 244 613 l 1
 361 564 l 1
299 36 m 1
 270 -74 l 1
 416 -13 l 1
 299 36 l 1
462 941 m 1
 536 920 l 1
 508 816 l 1
 537 828 l 1
 570 749 l 1
 480 712 l 1
 433 534 l 1
 570 477 l 1
 537 397 l 1
 410 450 l 1
 381 343 l 1
 570 343 l 1
 570 257 l 1
 358 257 l 1
 322 120 l 1
 570 16 l 1
 570 -41 l 1
 242 -178 l 1
 198 -341 l 1
 124 -320 l 1
 152 -216 l 1
 123 -228 l 1
 90 -149 l 1
 180 -112 l 1
 227 66 l 1
 90 123 l 1
 123 203 l 1
 250 150 l 1
 279 257 l 1
 90 257 l 1
 90 343 l 1
 302 343 l 1
 338 480 l 1
 90 584 l 1
 90 641 l 1
 418 778 l 1
 462 941 l 1
EndSplineSet
EndChar

StartChar: uni22DB0338
Encoding: 155 -1 155
Width: 660
Flags: HW
HStem: -228 21G<489.241 545.354> 257 86<90 278 382 570>
LayerCount: 2
Fore
SplineSet
435 843 m 1
 510 823 l 1
 472 682 l 1
 570 641 l 1
 570 584 l 1
 430 526 l 1
 382 343 l 1
 570 343 l 1
 570 257 l 1
 359 257 l 1
 320 112 l 1
 537 203 l 1
 570 123 l 1
 292 7 l 1
 282 -29 l 1
 570 -149 l 1
 537 -228 l 1
 260 -112 l 1
 225 -243 l 1
 150 -223 l 1
 188 -82 l 1
 90 -41 l 1
 90 16 l 1
 230 74 l 1
 278 257 l 1
 90 257 l 1
 90 343 l 1
 301 343 l 1
 340 488 l 1
 123 397 l 1
 90 477 l 1
 368 593 l 1
 378 629 l 1
 90 749 l 1
 123 828 l 1
 400 712 l 1
 435 843 l 1
EndSplineSet
EndChar

StartChar: uni2A8B0338
Encoding: 156 -1 156
Width: 660
Flags: HW
HStem: 160 86<90 253 355 570> 355 86<90 305 407 570>
LayerCount: 2
Fore
SplineSet
384 651 m 1
 420 784 l 1
 244 710 l 1
 384 651 l 1
276 -51 m 1
 240 -184 l 1
 416 -110 l 1
 276 -51 l 1
488 1038 m 1
 562 1018 l 1
 537 925 l 1
 570 847 l 1
 509 822 l 1
 456 622 l 1
 570 574 l 1
 537 495 l 1
 434 538 l 1
 407 441 l 1
 570 441 l 1
 570 355 l 1
 384 355 l 1
 355 246 l 1
 570 246 l 1
 570 160 l 1
 332 160 l 1
 298 32 l 1
 570 -82 l 1
 570 -139 l 1
 212 -289 l 1
 172 -438 l 1
 98 -418 l 1
 123 -325 l 1
 90 -247 l 1
 151 -222 l 1
 204 -22 l 1
 90 26 l 1
 123 105 l 1
 226 62 l 1
 253 160 l 1
 90 160 l 1
 90 246 l 1
 276 246 l 1
 305 355 l 1
 90 355 l 1
 90 441 l 1
 328 441 l 1
 362 568 l 1
 90 682 l 1
 90 739 l 1
 448 889 l 1
 488 1038 l 1
EndSplineSet
EndChar

StartChar: uni2A8C0338
Encoding: 157 -1 157
Width: 660
Flags: HW
HStem: 160 86<90 253 355 570> 355 86<90 305 408 570>
LayerCount: 2
Fore
SplineSet
462 941 m 1
 536 920 l 1
 496 770 l 1
 570 739 l 1
 570 682 l 1
 460 636 l 1
 408 441 l 1
 570 441 l 1
 570 355 l 1
 385 355 l 1
 355 246 l 1
 570 246 l 1
 570 160 l 1
 332 160 l 1
 290 2 l 1
 537 105 l 1
 570 26 l 1
 262 -103 l 1
 258 -116 l 1
 570 -247 l 1
 537 -326 l 1
 236 -200 l 1
 198 -341 l 1
 124 -320 l 1
 164 -170 l 1
 90 -139 l 1
 90 -82 l 1
 200 -36 l 1
 253 160 l 1
 90 160 l 1
 90 246 l 1
 276 246 l 1
 305 355 l 1
 90 355 l 1
 90 441 l 1
 328 441 l 1
 370 598 l 1
 123 495 l 1
 90 574 l 1
 398 703 l 1
 402 716 l 1
 90 847 l 1
 123 926 l 1
 424 800 l 1
 462 941 l 1
EndSplineSet
EndChar

StartChar: uni22DA0338.alt
Encoding: 158 -1 158
Width: 660
Flags: HW
LayerCount: 2
Fore
SplineSet
354 540 m 1
 382 644 l 1
 244 586 l 1
 354 540 l 1
306 60 m 1
 278 -44 l 1
 416 14 l 1
 306 60 l 1
454 914 m 1
 529 894 l 1
 500 787 l 1
 537 802 l 1
 570 723 l 1
 472 682 l 1
 426 510 l 1
 570 450 l 1
 537 371 l 1
 404 427 l 1
 377 327 l 1
 570 246 l 1
 537 167 l 1
 355 243 l 1
 328 143 l 1
 570 42 l 1
 570 -15 l 1
 250 -149 l 1
 206 -314 l 1
 131 -294 l 1
 160 -187 l 1
 123 -202 l 1
 90 -123 l 1
 188 -82 l 1
 234 90 l 1
 90 150 l 1
 123 229 l 1
 256 173 l 1
 283 273 l 1
 90 354 l 1
 123 433 l 1
 305 357 l 1
 332 457 l 1
 90 558 l 1
 90 615 l 1
 410 749 l 1
 454 914 l 1
EndSplineSet
EndChar

StartChar: uni22DB0338.alt
Encoding: 159 -1 159
Width: 660
Flags: HW
LayerCount: 2
Fore
SplineSet
428 817 m 1
 503 797 l 1
 466 659 l 1
 570 615 l 1
 570 558 l 1
 423 496 l 1
 389 371 l 1
 537 433 l 1
 570 354 l 1
 361 267 l 1
 328 141 l 1
 537 229 l 1
 570 150 l 1
 300 37 l 1
 289 -5 l 1
 570 -123 l 1
 537 -202 l 1
 266 -89 l 1
 232 -217 l 1
 157 -197 l 1
 194 -59 l 1
 90 -15 l 1
 90 42 l 1
 237 104 l 1
 271 229 l 1
 123 167 l 1
 90 246 l 1
 299 333 l 1
 332 459 l 1
 123 371 l 1
 90 450 l 1
 360 563 l 1
 371 605 l 1
 90 723 l 1
 123 802 l 1
 394 689 l 1
 428 817 l 1
EndSplineSet
EndChar

StartChar: uni226A0338
Encoding: 160 58059 160
Width: 1136
Flags: HW
LayerCount: 2
Fore
SplineSet
543 356 m 1
 570 456 l 1
 235 300 l 1
 495 179 l 1
 516 256 l 1
 480 273 l 1
 480 327 l 1
 543 356 l 1
632 689 m 1
 707 669 l 1
 635 399 l 1
 1010 574 l 1
 1046 496 l 1
 625 300 l 1
 1046 104 l 1
 1010 26 l 1
 588 223 l 1
 567 146 l 1
 656 104 l 1
 620 26 l 1
 544 61 l 1
 504 -89 l 1
 429 -69 l 1
 473 95 l 1
 90 273 l 1
 90 327 l 1
 599 564 l 1
 632 689 l 1
EndSplineSet
EndChar

StartChar: uni226B0338
Encoding: 161 58060 161
Width: 1136
Flags: HW
LayerCount: 2
Fore
SplineSet
593 244 m 1
 566 144 l 1
 901 300 l 1
 641 421 l 1
 620 344 l 1
 656 327 l 1
 656 273 l 1
 593 244 l 1
632 689 m 1
 707 669 l 1
 663 505 l 1
 1046 327 l 1
 1046 273 l 1
 537 36 l 1
 504 -89 l 1
 429 -69 l 1
 501 201 l 1
 126 26 l 1
 90 104 l 1
 511 300 l 1
 90 496 l 1
 126 574 l 1
 548 377 l 1
 569 454 l 1
 480 496 l 1
 516 574 l 1
 592 539 l 1
 632 689 l 1
EndSplineSet
EndChar

StartChar: uni22D80338
Encoding: 162 58061 162
Width: 1526
Flags: HW
LayerCount: 2
Fore
SplineSet
688 271 m 1
 769 367 l 1
 625 300 l 1
 688 271 l 1
1400 574 m 1
 1436 496 l 1
 1015 300 l 1
 1436 104 l 1
 1400 26 l 1
 870 273 l 1
 870 327 l 1
 1400 574 l 1
1045 696 m 1
 1104 646 l 1
 1022 548 l 1
 1046 496 l 1
 934 444 l 1
 761 237 l 1
 1046 104 l 1
 1010 26 l 1
 703 169 l 1
 651 106 l 1
 656 104 l 1
 620 26 l 1
 594 38 l 1
 481 -96 l 1
 422 -46 l 1
 521 72 l 1
 90 273 l 1
 90 327 l 1
 620 574 l 1
 656 496 l 1
 235 300 l 1
 578 140 l 1
 631 203 l 1
 480 273 l 1
 480 327 l 1
 899 522 l 1
 1045 696 l 1
EndSplineSet
EndChar

StartChar: uni22D90338
Encoding: 163 58062 163
Width: 1526
Flags: HW
LayerCount: 2
Fore
SplineSet
838 329 m 1
 757 233 l 1
 901 300 l 1
 838 329 l 1
126 26 m 1
 90 104 l 1
 511 300 l 1
 90 496 l 1
 126 574 l 1
 656 327 l 1
 656 273 l 1
 126 26 l 1
1045 696 m 1
 1104 646 l 1
 1005 528 l 1
 1436 327 l 1
 1436 273 l 1
 906 26 l 1
 870 104 l 1
 1291 300 l 1
 948 460 l 1
 895 397 l 1
 1046 327 l 1
 1046 273 l 1
 627 78 l 1
 481 -96 l 1
 422 -46 l 1
 504 52 l 1
 480 104 l 1
 592 156 l 1
 765 363 l 1
 480 496 l 1
 516 574 l 1
 823 431 l 1
 875 494 l 1
 870 496 l 1
 906 574 l 1
 932 562 l 1
 1045 696 l 1
EndSplineSet
EndChar

StartChar: uni22EA
Encoding: 164 8938 164
Width: 660
Flags: HW
VStem: 484 86<153 447>
LayerCount: 2
Fore
SplineSet
281 267 m 1
 302 345 l 1
 221 300 l 1
 281 267 l 1
484 153 m 1
 484 447 l 1
 396 398 l 1
 351 227 l 1
 484 153 l 1
394 689 m 1
 469 669 l 1
 427 514 l 1
 528 570 l 1
 570 545 l 1
 570 55 l 1
 528 30 l 1
 328 142 l 1
 266 -89 l 1
 191 -69 l 1
 258 181 l 1
 90 275 l 1
 90 325 l 1
 333 461 l 1
 394 689 l 1
EndSplineSet
EndChar

StartChar: uni22EB
Encoding: 165 8939 165
Width: 660
Flags: HW
VStem: 90 86<153 447>
LayerCount: 2
Fore
SplineSet
379 333 m 1
 358 255 l 1
 439 300 l 1
 379 333 l 1
176 447 m 1
 176 153 l 1
 264 202 l 1
 309 373 l 1
 176 447 l 1
394 689 m 1
 469 669 l 1
 402 419 l 1
 570 325 l 1
 570 275 l 1
 327 139 l 1
 266 -89 l 1
 191 -69 l 1
 233 86 l 1
 132 30 l 1
 90 55 l 1
 90 545 l 1
 132 570 l 1
 332 458 l 1
 394 689 l 1
EndSplineSet
EndChar

StartChar: uni22EC
Encoding: 166 8940 166
Width: 660
Flags: HW
HStem: 9 86<90 212 315 570>
VStem: 484 86<265 465>
LayerCount: 2
Fore
SplineSet
301 341 m 1
 315 395 l 1
 244 365 l 1
 301 341 l 1
484 265 m 1
 484 465 l 1
 406 432 l 1
 373 311 l 1
 484 265 l 1
404 725 m 1
 479 705 l 1
 434 538 l 1
 537 581 l 1
 570 558 l 1
 570 172 l 1
 537 149 l 1
 351 227 l 1
 315 95 l 1
 570 95 l 1
 570 9 l 1
 292 9 l 1
 256 -125 l 1
 181 -105 l 1
 212 9 l 1
 90 9 l 1
 90 95 l 1
 235 95 l 1
 278 257 l 1
 90 336 l 1
 90 394 l 1
 344 500 l 1
 404 725 l 1
EndSplineSet
EndChar

StartChar: uni22ED
Encoding: 167 8941 167
Width: 660
Flags: HW
HStem: 9 86<90 212 315 570>
VStem: 90 86<265 465>
LayerCount: 2
Fore
SplineSet
391 376 m 1
 384 352 l 1
 416 365 l 1
 391 376 l 1
176 465 m 1
 176 265 l 1
 294 314 l 1
 318 406 l 1
 176 465 l 1
404 725 m 1
 479 705 l 1
 413 460 l 1
 570 394 l 1
 570 336 l 1
 356 246 l 1
 315 95 l 1
 570 95 l 1
 570 9 l 1
 292 9 l 1
 256 -125 l 1
 181 -105 l 1
 212 9 l 1
 90 9 l 1
 90 95 l 1
 235 95 l 1
 265 209 l 1
 123 149 l 1
 90 172 l 1
 90 558 l 1
 123 581 l 1
 341 490 l 1
 404 725 l 1
EndSplineSet
EndChar

StartChar: uni2AA60338
Encoding: 168 -1 168
Width: 717
Flags: HW
VStem: 535 85<186.815 414.375>
LayerCount: 2
Fore
SplineSet
305 253 m 1
 335 364 l 1
 221 300 l 1
 305 253 l 1
495 147 m 0
 521 195 535 247 535 300 c 0
 535 331 530 392 495 453 c 1
 429 416 l 1
 375 214 l 1
 495 147 l 0
422 689 m 1
 497 669 l 1
 460 532 l 1
 528 570 l 1
 570 495 l 2
 604 435 620 367 620 300 c 0
 620 233 604 165 570 105 c 2
 528 30 l 1
 352 128 l 1
 294 -89 l 1
 219 -69 l 1
 282 167 l 1
 90 275 l 1
 90 325 l 1
 366 479 l 1
 422 689 l 1
EndSplineSet
EndChar

StartChar: uni2AA70338
Encoding: 169 -1 169
Width: 717
Flags: HW
VStem: 96 86<186.6 413.4>
LayerCount: 2
Fore
SplineSet
411 347 m 1
 381 236 l 1
 495 300 l 1
 411 347 l 1
222 453 m 1
 196 406 182 353 182 300 c 0
 182 247 196 194 222 147 c 1
 287 183 l 1
 341 386 l 1
 222 453 l 1
422 689 m 1
 497 669 l 1
 434 433 l 1
 627 325 l 1
 627 275 l 1
 350 120 l 1
 294 -89 l 1
 219 -69 l 1
 255 67 l 1
 189 30 l 1
 147 105 l 2
 113 165 96 233 96 300 c 0
 96 367 113 435 147 495 c 2
 189 570 l 1
 364 472 l 1
 422 689 l 1
EndSplineSet
EndChar

StartChar: uni2AA80338
Encoding: 170 -1 170
Width: 698
Flags: HW
VStem: 502 86<295.946 499.132>
LayerCount: 2
Fore
SplineSet
326 363 m 1
 347 441 l 1
 244 398 l 1
 326 363 l 1
488 295 m 1
 498 328 502 364 502 398 c 0
 502 432 498 467 488 500 c 1
 437 479 l 1
 398 333 l 1
 488 295 l 1
423 725 m 1
 498 705 l 1
 465 583 l 1
 537 613 l 1
 570 534 l 1
 568 533 l 1
 582 489 588 444 588 398 c 0
 588 352 582 306 568 262 c 1
 570 261 l 1
 537 182 l 1
 376 250 l 1
 351 158 l 1
 570 66 l 1
 537 -13 l 1
 329 74 l 1
 275 -125 l 1
 201 -105 l 1
 257 104 l 1
 90 174 l 1
 123 253 l 1
 279 188 l 1
 304 280 l 1
 90 369 l 1
 90 426 l 1
 375 545 l 1
 423 725 l 1
EndSplineSet
EndChar

StartChar: uni2AA90338
Encoding: 171 -1 171
Width: 698
Flags: HW
VStem: 110 86<295.946 499.132>
LayerCount: 2
Fore
SplineSet
419 412 m 1
 411 380 l 1
 454 398 l 1
 419 412 l 1
210 500 m 1
 200 467 196 432 196 398 c 0
 196 364 200 328 210 295 c 1
 321 342 l 1
 347 442 l 1
 210 500 l 1
423 725 m 1
 498 705 l 1
 442 496 l 1
 608 426 l 1
 608 369 l 1
 382 274 l 1
 351 159 l 1
 575 253 l 1
 608 174 l 1
 323 55 l 1
 275 -125 l 1
 201 -105 l 1
 234 17 l 1
 162 -13 l 1
 128 66 l 1
 262 122 l 1
 292 237 l 1
 162 182 l 1
 128 261 l 1
 130 262 l 1
 116 306 110 352 110 398 c 0
 110 444 116 489 130 533 c 1
 128 534 l 1
 162 613 l 1
 370 526 l 1
 423 725 l 1
EndSplineSet
EndChar

StartChar: uni228F0338
Encoding: 172 58884 172
Width: 660
Flags: HW
HStem: 13 86<176 213 316 570> 501 86<176 344 447 570>
VStem: 90 86<99 501>
LayerCount: 2
Fore
SplineSet
176 99 m 1
 236 99 l 1
 344 501 l 1
 176 501 l 1
 176 99 l 1
407 737 m 1
 482 717 l 1
 447 587 l 1
 570 587 l 1
 570 501 l 1
 424 501 l 1
 316 99 l 1
 570 99 l 1
 570 13 l 1
 293 13 l 1
 253 -137 l 1
 178 -117 l 1
 213 13 l 1
 90 13 l 1
 90 587 l 1
 367 587 l 1
 407 737 l 1
EndSplineSet
EndChar

StartChar: uni22900338
Encoding: 173 58901 173
Width: 660
Flags: HW
HStem: 13 86<90 213 316 484> 501 86<90 344 447 484>
VStem: 484 86<99 501>
LayerCount: 2
Fore
SplineSet
484 99 m 1
 484 501 l 1
 424 501 l 1
 316 99 l 1
 484 99 l 1
407 737 m 1
 482 717 l 1
 447 587 l 1
 570 587 l 1
 570 13 l 1
 293 13 l 1
 253 -137 l 1
 178 -117 l 1
 213 13 l 1
 90 13 l 1
 90 99 l 1
 236 99 l 1
 344 501 l 1
 90 501 l 1
 90 587 l 1
 367 587 l 1
 407 737 l 1
EndSplineSet
EndChar

StartChar: uni22E2
Encoding: 174 8930 174
Width: 660
Flags: HW
HStem: -23 86<90 203 307 570> 172 86<176 255 359 570> 537 86<176 353 457 570>
VStem: 90 86<258 537>
LayerCount: 2
Fore
SplineSet
176 258 m 1
 279 258 l 1
 353 537 l 1
 176 537 l 1
 176 258 l 1
417 774 m 1
 492 754 l 1
 457 623 l 1
 570 623 l 1
 570 537 l 1
 434 537 l 1
 359 258 l 1
 570 258 l 1
 570 172 l 1
 336 172 l 1
 307 63 l 1
 570 63 l 1
 570 -23 l 1
 284 -23 l 1
 243 -174 l 1
 168 -154 l 1
 203 -23 l 1
 90 -23 l 1
 90 63 l 1
 226 63 l 1
 255 172 l 1
 90 172 l 1
 90 623 l 1
 376 623 l 1
 417 774 l 1
EndSplineSet
EndChar

StartChar: uni22E3
Encoding: 175 8931 175
Width: 660
Flags: HW
HStem: -23 86<90 203 307 570> 172 86<90 255 359 484> 537 86<90 353 457 484>
VStem: 484 86<258 537>
LayerCount: 2
Fore
SplineSet
484 258 m 1
 484 537 l 1
 434 537 l 1
 359 258 l 1
 484 258 l 1
417 774 m 1
 492 754 l 1
 457 623 l 1
 570 623 l 1
 570 172 l 1
 336 172 l 1
 307 63 l 1
 570 63 l 1
 570 -23 l 1
 284 -23 l 1
 243 -174 l 1
 168 -154 l 1
 203 -23 l 1
 90 -23 l 1
 90 63 l 1
 226 63 l 1
 255 172 l 1
 90 172 l 1
 90 258 l 1
 279 258 l 1
 353 537 l 1
 90 537 l 1
 90 623 l 1
 376 623 l 1
 417 774 l 1
EndSplineSet
EndChar

StartChar: sym021_uni0338
Encoding: 176 -1 176
Width: 660
Flags: HW
HStem: -223 21G<155 235.294> -121 86<90 177 280 570> 74 86<90 229 333 570> 269 86<176 282 385 570> 635 86<176 380 483 570>
VStem: 90 86<355 635>
LayerCount: 2
Fore
SplineSet
176 355 m 1
 305 355 l 1
 380 635 l 1
 176 635 l 1
 176 355 l 1
430 823 m 1
 505 803 l 1
 483 721 l 1
 570 721 l 1
 570 635 l 1
 460 635 l 1
 385 355 l 1
 570 355 l 1
 570 269 l 1
 362 269 l 1
 333 160 l 1
 570 160 l 1
 570 74 l 1
 310 74 l 1
 280 -35 l 1
 570 -35 l 1
 570 -121 l 1
 257 -121 l 1
 230 -223 l 1
 155 -203 l 1
 177 -121 l 1
 90 -121 l 1
 90 -35 l 1
 200 -35 l 1
 229 74 l 1
 90 74 l 1
 90 160 l 1
 252 160 l 1
 282 269 l 1
 90 269 l 1
 90 721 l 1
 403 721 l 1
 430 823 l 1
EndSplineSet
EndChar

StartChar: sym022_uni0338
Encoding: 177 -1 177
Width: 660
Flags: HW
HStem: -223 21G<155 235.294> -121 86<90 177 280 570> 74 86<90 229 333 570> 269 86<90 282 385 484> 635 86<90 380 483 484>
VStem: 484 86<355 635>
LayerCount: 2
Fore
SplineSet
484 355 m 1
 484 635 l 1
 460 635 l 1
 385 355 l 1
 484 355 l 1
430 823 m 1
 505 803 l 1
 483 721 l 1
 570 721 l 1
 570 269 l 1
 362 269 l 1
 333 160 l 1
 570 160 l 1
 570 74 l 1
 310 74 l 1
 280 -35 l 1
 570 -35 l 1
 570 -121 l 1
 257 -121 l 1
 230 -223 l 1
 155 -203 l 1
 177 -121 l 1
 90 -121 l 1
 90 -35 l 1
 200 -35 l 1
 229 74 l 1
 90 74 l 1
 90 160 l 1
 252 160 l 1
 282 269 l 1
 90 269 l 1
 90 355 l 1
 305 355 l 1
 380 635 l 1
 90 635 l 1
 90 721 l 1
 403 721 l 1
 430 823 l 1
EndSplineSet
EndChar

StartChar: sym023_uni0338
Encoding: 178 -1 178
Width: 660
Flags: HW
HStem: 13 86<176 213 316 570> 159 86<355 570> 355 86<408 570> 501 86<176 344 447 570>
VStem: 90 86<99 501>
LayerCount: 2
Fore
SplineSet
252 159 m 1
 236 159 l 1
 236 441 l 1
 328 441 l 1
 344 501 l 1
 176 501 l 1
 176 99 l 1
 236 99 l 1
 252 159 l 1
407 737 m 1
 482 717 l 1
 447 587 l 1
 570 587 l 1
 570 501 l 1
 424 501 l 1
 408 441 l 1
 570 441 l 1
 570 355 l 1
 385 355 l 1
 355 245 l 1
 570 245 l 1
 570 159 l 1
 332 159 l 1
 316 99 l 1
 570 99 l 1
 570 13 l 1
 293 13 l 1
 253 -137 l 1
 178 -117 l 1
 213 13 l 1
 90 13 l 1
 90 587 l 1
 367 587 l 1
 407 737 l 1
EndSplineSet
EndChar

StartChar: sym024_uni0338
Encoding: 179 -1 179
Width: 660
Flags: HW
HStem: 13 86<90 213 316 484> 159 86<90 252> 355 86<90 305> 501 86<90 344 447 484>
VStem: 484 86<99 501>
LayerCount: 2
Fore
SplineSet
332 159 m 1
 316 99 l 1
 484 99 l 1
 484 501 l 1
 424 501 l 1
 408 441 l 1
 424 441 l 1
 424 159 l 1
 332 159 l 1
407 737 m 1
 482 717 l 1
 447 587 l 1
 570 587 l 1
 570 13 l 1
 293 13 l 1
 253 -137 l 1
 178 -117 l 1
 213 13 l 1
 90 13 l 1
 90 99 l 1
 236 99 l 1
 252 159 l 1
 90 159 l 1
 90 245 l 1
 275 245 l 1
 305 355 l 1
 90 355 l 1
 90 441 l 1
 328 441 l 1
 344 501 l 1
 90 501 l 1
 90 587 l 1
 367 587 l 1
 407 737 l 1
EndSplineSet
EndChar

StartChar: notsubset
Encoding: 180 8836 180
Width: 660
Flags: HW
HStem: 13 86<316.5 570> 501 86<260.955 344 447 570>
VStem: 90 86<196.849 403.468>
LayerCount: 2
Fore
SplineSet
245 131 m 1
 344 501 l 1
 330 501 l 2
 235 501 176 403 176 300 c 0
 176 233 201 168 245 131 c 1
407 737 m 1
 482 717 l 1
 447 587 l 1
 570 587 l 1
 570 501 l 1
 424 501 l 1
 316 100 l 1
 320 100 325 99 330 99 c 2
 570 99 l 1
 570 13 l 1
 330 13 l 2
 318 13 306 14 294 16 c 1
 253 -137 l 1
 178 -117 l 1
 221 43 l 1
 140 91 90 192 90 300 c 0
 90 451 188 587 330 587 c 2
 367 587 l 1
 407 737 l 1
EndSplineSet
EndChar

StartChar: uni2285
Encoding: 181 8837 181
Width: 660
Flags: HW
HStem: 13 86<90 213 316 399.045> 501 86<90 343.5>
VStem: 484 86<196.532 403.151>
LayerCount: 2
Fore
SplineSet
415 469 m 1
 316 99 l 1
 330 99 l 2
 425 99 484 197 484 300 c 0
 484 367 459 432 415 469 c 1
407 737 m 1
 482 717 l 1
 439 557 l 1
 520 509 570 408 570 300 c 0
 570 149 472 13 330 13 c 2
 293 13 l 1
 253 -137 l 1
 178 -117 l 1
 213 13 l 1
 90 13 l 1
 90 99 l 1
 236 99 l 1
 344 500 l 1
 340 500 335 501 330 501 c 2
 90 501 l 1
 90 587 l 1
 330 587 l 2
 342 587 354 586 366 584 c 1
 407 737 l 1
EndSplineSet
EndChar

StartChar: uni2288
Encoding: 182 8840 182
Width: 660
Flags: HW
HStem: -23 86<90 203 307 570> 172 86<224.71 256 359 570> 537 86<226.408 353 457 570>
VStem: 90 86<313.129 483.48>
LayerCount: 2
Fore
SplineSet
279 258 m 1
 353 537 l 1
 281 537 l 2
 216 537 176 469 176 398 c 0
 176 327 215 260 279 258 c 1
417 774 m 1
 492 754 l 1
 457 623 l 1
 570 623 l 1
 570 537 l 1
 434 537 l 1
 359 258 l 1
 570 258 l 1
 570 172 l 1
 336 172 l 1
 307 63 l 1
 570 63 l 1
 570 -23 l 1
 284 -23 l 1
 243 -174 l 1
 168 -154 l 1
 203 -23 l 1
 90 -23 l 1
 90 63 l 1
 226 63 l 1
 256 174 l 1
 157 189 90 288 90 398 c 0
 90 516 169 623 281 623 c 2
 376 623 l 1
 417 774 l 1
EndSplineSet
EndChar

StartChar: uni2289
Encoding: 183 8841 183
Width: 660
Flags: HW
HStem: -23 86<90 203 307 570> 172 86<90 255 359 433.592> 537 86<90 353>
VStem: 484 86<311.82 482.873>
LayerCount: 2
Fore
SplineSet
429 521 m 1
 359 258 l 1
 379 258 l 2
 444 258 484 326 484 398 c 0
 484 448 464 497 429 521 c 1
417 774 m 1
 492 754 l 1
 452 606 l 1
 524 571 570 488 570 398 c 0
 570 279 491 172 379 172 c 2
 336 172 l 1
 307 63 l 1
 570 63 l 1
 570 -23 l 1
 284 -23 l 1
 243 -174 l 1
 168 -154 l 1
 203 -23 l 1
 90 -23 l 1
 90 63 l 1
 226 63 l 1
 255 172 l 1
 90 172 l 1
 90 258 l 1
 279 258 l 1
 353 537 l 1
 90 537 l 1
 90 623 l 1
 376 623 l 1
 417 774 l 1
EndSplineSet
EndChar

StartChar: uni2AC50338
Encoding: 184 58030 184
Width: 660
Flags: HW
HStem: -223 21G<155 235.294> -121 86<90 177 280 570> 74 86<90 229 333 570> 269 86<226.408 282 385 570> 635 86<226.408 380 483 570>
VStem: 90 86<408.82 581.18>
LayerCount: 2
Fore
SplineSet
305 355 m 1
 380 635 l 1
 281 635 l 2
 216 635 176 567 176 495 c 0
 176 423 216 355 281 355 c 2
 305 355 l 1
430 823 m 1
 505 803 l 1
 483 721 l 1
 570 721 l 1
 570 635 l 1
 460 635 l 1
 385 355 l 1
 570 355 l 1
 570 269 l 1
 362 269 l 1
 333 160 l 1
 570 160 l 1
 570 74 l 1
 310 74 l 1
 280 -35 l 1
 570 -35 l 1
 570 -121 l 1
 257 -121 l 1
 230 -223 l 1
 155 -203 l 1
 177 -121 l 1
 90 -121 l 1
 90 -35 l 1
 200 -35 l 1
 229 74 l 1
 90 74 l 1
 90 160 l 1
 252 160 l 1
 282 269 l 1
 281 269 l 2
 169 269 90 376 90 495 c 0
 90 614 169 721 281 721 c 2
 403 721 l 1
 430 823 l 1
EndSplineSet
EndChar

StartChar: uni2AC60338
Encoding: 185 58032 185
Width: 660
Flags: HW
HStem: -223 21G<155 235.294> -121 86<90 177 280 570> 74 86<90 229 333 570> 269 86<90 282 385 433.592> 635 86<90 379.747>
VStem: 484 86<409.882 579.963>
LayerCount: 2
Fore
SplineSet
450 599 m 1
 385 355 l 1
 446 359 484 425 484 495 c 0
 484 534 472 572 450 599 c 1
430 823 m 1
 505 803 l 1
 475 691 l 1
 534 651 570 576 570 495 c 0
 570 376 491 269 379 269 c 2
 362 269 l 1
 333 160 l 1
 570 160 l 1
 570 74 l 1
 310 74 l 1
 280 -35 l 1
 570 -35 l 1
 570 -121 l 1
 257 -121 l 1
 230 -223 l 1
 155 -203 l 1
 177 -121 l 1
 90 -121 l 1
 90 -35 l 1
 200 -35 l 1
 229 74 l 1
 90 74 l 1
 90 160 l 1
 252 160 l 1
 282 269 l 1
 90 269 l 1
 90 355 l 1
 305 355 l 1
 380 635 l 1
 379 635 l 2
 90 635 l 1
 90 721 l 1
 379 721 l 2
 387 721 394 720 402 719 c 1
 430 823 l 1
EndSplineSet
EndChar

StartChar: uni22D00338
Encoding: 186 -1 186
Width: 660
Flags: HW
HStem: 13 86<316.5 570> 159 86<355 570> 355 86<408 570> 501 86<260.955 344 447 570>
VStem: 90 86<196.849 403.468>
LayerCount: 2
Fore
SplineSet
327 437 m 1
 344 501 l 1
 330 501 l 2
 235 501 176 403 176 300 c 0
 176 233 201 168 245 131 c 1
 265 207 l 1
 247 232 236 266 236 300 c 0
 236 364 273 422 327 437 c 1
407 737 m 1
 482 717 l 1
 447 587 l 1
 570 587 l 1
 570 501 l 1
 424 501 l 1
 408 441 l 1
 570 441 l 1
 570 355 l 1
 385 355 l 1
 355 245 l 1
 570 245 l 1
 570 159 l 1
 355 159 l 2
 347 159 340 159 333 161 c 1
 316 100 l 1
 320 100 325 99 330 99 c 2
 570 99 l 1
 570 13 l 1
 330 13 l 2
 318 13 306 14 294 16 c 1
 253 -137 l 1
 178 -117 l 1
 221 43 l 1
 140 91 90 192 90 300 c 0
 90 451 188 587 330 587 c 2
 367 587 l 1
 407 737 l 1
EndSplineSet
EndChar

StartChar: uni22D10338
Encoding: 187 -1 187
Width: 660
Flags: HW
HStem: 13 86<90 213 316 399.045> 159 86<90 252> 355 86<90 305> 501 86<90 343.5>
VStem: 484 86<196.532 403.151>
LayerCount: 2
Fore
SplineSet
333 163 m 1
 316 99 l 1
 330 99 l 2
 425 99 484 197 484 300 c 0
 484 367 459 432 415 469 c 1
 395 393 l 1
 413 368 424 334 424 300 c 0
 424 236 387 178 333 163 c 1
407 737 m 1
 482 717 l 1
 439 557 l 1
 520 509 570 408 570 300 c 0
 570 149 472 13 330 13 c 2
 293 13 l 1
 253 -137 l 1
 178 -117 l 1
 213 13 l 1
 90 13 l 1
 90 99 l 1
 236 99 l 1
 252 159 l 1
 90 159 l 1
 90 245 l 1
 275 245 l 1
 305 355 l 1
 90 355 l 1
 90 441 l 1
 305 441 l 2
 313 441 320 441 327 439 c 1
 344 500 l 1
 340 500 335 501 330 501 c 2
 90 501 l 1
 90 587 l 1
 330 587 l 2
 342 587 354 586 366 584 c 1
 407 737 l 1
EndSplineSet
EndChar

StartChar: uni2280
Encoding: 188 8832 188
Width: 660
Flags: HW
HStem: 257 86<90 243.689>
LayerCount: 2
Fore
SplineSet
394 689 m 1
 469 669 l 1
 419 484 l 1
 449 513 479 543 507 573 c 1
 570 514 l 1
 512 452 450 390 382 343 c 1
 362 270 l 1
 438 221 507 154 570 86 c 1
 507 27 l 1
 455 83 400 140 339 183 c 1
 266 -89 l 1
 191 -69 l 1
 270 225 l 1
 228 245 182 257 133 257 c 2
 90 257 l 1
 90 343 l 1
 133 343 l 2
 201 343 261 366 317 402 c 1
 394 689 l 1
EndSplineSet
EndChar

StartChar: uni2281
Encoding: 189 8833 189
Width: 660
Flags: HW
HStem: 257 86<416.311 570>
LayerCount: 2
Fore
SplineSet
394 689 m 1
 469 669 l 1
 390 375 l 1
 432 355 478 343 527 343 c 2
 570 343 l 1
 570 257 l 1
 527 257 l 2
 459 257 399 234 343 198 c 1
 266 -89 l 1
 191 -69 l 1
 241 116 l 1
 211 87 181 57 153 27 c 1
 90 86 l 1
 148 148 210 210 278 257 c 1
 298 330 l 1
 222 379 153 446 90 514 c 1
 153 573 l 1
 205 517 260 460 321 417 c 1
 394 689 l 1
EndSplineSet
EndChar

StartChar: uni2AAF0338
Encoding: 190 58844 190
Width: 660
Flags: HW
HStem: 9 86<90 212 315 570> 322 86<90 273.75>
LayerCount: 2
Fore
SplineSet
404 725 m 1
 479 705 l 1
 425 505 l 1
 454 526 482 550 507 577 c 1
 570 518 l 1
 519 463 459 418 393 385 c 1
 384 350 l 1
 453 316 516 269 570 212 c 1
 507 153 l 1
 465 199 415 237 361 265 c 1
 315 95 l 1
 570 95 l 1
 570 9 l 1
 292 9 l 1
 256 -125 l 1
 181 -105 l 1
 212 9 l 1
 90 9 l 1
 90 95 l 1
 235 95 l 1
 289 296 l 1
 239 313 187 322 133 322 c 2
 90 322 l 1
 90 408 l 1
 133 408 l 2
 202 408 268 423 330 450 c 1
 404 725 l 1
EndSplineSet
EndChar

StartChar: uni2AB00338
Encoding: 191 58865 191
Width: 660
Flags: HW
HStem: 9 86<90 212 315 570> 322 86<405.876 570>
LayerCount: 2
Fore
SplineSet
404 725 m 1
 479 705 l 1
 404 424 l 1
 444 413 485 408 527 408 c 2
 570 408 l 1
 570 322 l 1
 527 322 l 2
 472 322 419 312 369 295 c 1
 315 95 l 1
 570 95 l 1
 570 9 l 1
 292 9 l 1
 256 -125 l 1
 181 -105 l 1
 212 9 l 1
 90 9 l 1
 90 95 l 1
 235 95 l 1
 277 253 l 1
 231 226 190 192 153 153 c 1
 90 212 l 1
 152 277 226 329 307 363 c 1
 308 366 l 1
 226 400 152 452 90 518 c 1
 153 577 l 1
 203 523 264 479 330 450 c 1
 404 725 l 1
EndSplineSet
EndChar

StartChar: uni22E0
Encoding: 192 8928 192
Width: 660
Flags: HW
HStem: -8 21G<443.5 487.754> 149 82<91.3438 249> 160 86<90 247.921> 355 86<90 274.887>
LayerCount: 2
Fore
SplineSet
404 725 m 1xd0
 479 705 l 1
 436 546 l 1
 461 565 485 586 507 610 c 1
 570 551 l 1
 521 499 465 456 403 423 c 1
 391 379 l 1
 457 346 518 299 570 244 c 1
 507 185 l 1
 467 229 419 266 368 294 c 1
 343 200 l 1
 410 163 471 108 528 49 c 1
 466 -8 l 1
 421 40 374 85 321 117 c 1
 256 -125 l 1
 181 -105 l 1
 249 149 l 1xd0
 226 156 202 160 176 160 c 2
 90 160 l 1
 90 246 l 1
 176 246 l 2xb0
 209 246 241 240 271 231 c 1
 297 326 l 1
 245 345 190 355 133 355 c 2
 90 355 l 1
 90 441 l 1
 133 441 l 2
 206 441 276 457 340 487 c 1
 404 725 l 1xd0
EndSplineSet
EndChar

StartChar: uni22E1
Encoding: 193 8929 193
Width: 660
Flags: HW
HStem: -8 21G<172.246 197> 160 86<380.253 570> 355 86<413.736 570>
LayerCount: 2
Fore
SplineSet
404 725 m 1
 479 705 l 1
 412 455 l 1
 449 446 488 441 527 441 c 2
 570 441 l 1
 570 355 l 1
 527 355 l 2
 476 355 426 346 379 331 c 1
 348 216 l 1
 390 235 435 246 484 246 c 2
 570 246 l 1
 570 160 l 1
 484 160 l 2
 421 160 367 137 317 103 c 1
 256 -125 l 1
 181 -105 l 1
 212 11 l 1
 206 5 200 -2 194 -8 c 1
 132 49 l 1
 170 88 210 126 252 158 c 1
 288 291 l 1
 238 263 192 228 153 185 c 1
 90 244 l 1
 153 311 228 364 311 398 c 1
 228 432 153 484 90 551 c 1
 153 610 l 1
 205 553 268 508 338 479 c 1
 404 725 l 1
EndSplineSet
EndChar

StartChar: uni2AB30338
Encoding: 194 -1 194
Width: 660
Flags: HW
HStem: -88 86<90 186 289 570> 107 86<90 238 342 570> 419 87<90 271.49>
LayerCount: 2
Fore
SplineSet
421 790 m 1
 496 770 l 1
 458 628 l 1
 475 643 492 658 507 675 c 1
 570 616 l 1
 527 570 477 530 423 499 c 1
 407 436 l 1
 467 403 522 360 570 309 c 1
 507 250 l 1
 471 289 428 323 383 350 c 1
 342 193 l 1
 570 193 l 1
 570 107 l 1
 319 107 l 1
 289 -2 l 1
 570 -2 l 1
 570 -88 l 1
 266 -88 l 1
 239 -190 l 1
 164 -170 l 1
 186 -88 l 1
 90 -88 l 1
 90 -2 l 1
 209 -2 l 1
 238 107 l 1
 90 107 l 1
 90 193 l 1
 261 193 l 1
 312 384 l 1
 255 406 195 419 133 419 c 2
 90 419 l 1
 90 506 l 1
 133 506 l 2
 213 506 290 526 360 562 c 1
 421 790 l 1
EndSplineSet
EndChar

StartChar: uni2AB40338
Encoding: 195 -1 195
Width: 660
Flags: HW
HStem: -88 86<90 186 289 570> 107 86<90 238 342 570> 419 87<429.501 570>
LayerCount: 2
Fore
SplineSet
421 790 m 1
 496 770 l 1
 428 516 l 1
 460 509 493 506 527 506 c 2
 570 506 l 1
 570 419 l 1
 527 419 l 2
 483 419 439 413 397 401 c 1
 342 193 l 1
 570 193 l 1
 570 107 l 1
 319 107 l 1
 289 -2 l 1
 570 -2 l 1
 570 -88 l 1
 266 -88 l 1
 239 -190 l 1
 164 -170 l 1
 186 -88 l 1
 90 -88 l 1
 90 -2 l 1
 209 -2 l 1
 238 107 l 1
 90 107 l 1
 90 193 l 1
 261 193 l 1
 308 367 l 1
 250 338 198 298 153 250 c 1
 90 309 l 1
 152 376 228 428 310 462 c 1
 228 496 152 549 90 616 c 1
 153 675 l 1
 209 614 278 567 354 538 c 1
 421 790 l 1
EndSplineSet
EndChar

StartChar: uni227E0338
Encoding: 196 59446 196
Width: 660
Flags: HW
HStem: -23 86<379.867 484.613> 74 86<175.72 228.719> 355 86<90 274.887>
LayerCount: 2
Fore
SplineSet
436 -23 m 0
 374 -23 330 13 300 38 c 1
 256 -125 l 1
 181 -105 l 1
 229 74 l 1
 227 74 226 74 224 74 c 0
 189 74 166 43 141 18 c 1
 90 68 l 1
 130 109 167 160 224 160 c 0
 233 160 243 159 252 157 c 1
 297 326 l 1
 245 345 190 355 133 355 c 2
 90 355 l 1
 90 441 l 1
 133 441 l 2
 206 441 276 457 340 487 c 1
 404 725 l 1
 479 705 l 1
 436 546 l 1
 461 565 485 586 507 610 c 1
 570 551 l 1
 521 499 465 456 403 423 c 1
 391 379 l 1
 457 346 518 299 570 244 c 1
 507 185 l 1
 467 229 419 266 368 294 c 1
 324 127 l 1
 336 119 347 110 358 101 c 0
 381 82 406 63 436 63 c 0
 471 63 494 94 519 119 c 1
 570 68 l 1
 530 28 493 -23 436 -23 c 0
EndSplineSet
EndChar

StartChar: uni227F0338
Encoding: 197 59447 197
Width: 660
Flags: HW
HStem: -23 86<379.867 484.613> 74 86<175.72 228.719> 355 86<413.736 570>
LayerCount: 2
Fore
SplineSet
436 -23 m 0
 374 -23 330 13 300 38 c 1
 256 -125 l 1
 181 -105 l 1
 229 74 l 1
 227 74 226 74 224 74 c 0
 189 74 166 43 141 18 c 1
 90 68 l 1
 130 109 167 160 224 160 c 0
 233 160 243 159 252 157 c 1
 288 291 l 1
 238 263 192 228 153 185 c 1
 90 244 l 1
 153 311 228 364 311 398 c 1
 228 432 153 484 90 551 c 1
 153 610 l 1
 205 553 268 508 338 479 c 1
 404 725 l 1
 479 705 l 1
 412 455 l 1
 449 446 488 441 527 441 c 2
 570 441 l 1
 570 355 l 1
 527 355 l 2
 476 355 426 346 379 331 c 1
 324 127 l 1
 336 119 347 110 358 101 c 0
 381 82 406 63 436 63 c 0
 471 63 494 94 519 119 c 1
 570 68 l 1
 530 28 493 -23 436 -23 c 0
EndSplineSet
EndChar

StartChar: uni2AB70338
Encoding: 198 -1 198
Width: 660
Flags: HW
HStem: -121 86<380.619 484.613> 74 86<379.813 484.613> 172 86<175.387 253.591> 452 86<90 274.52> 687 20G<501 528.356>
LayerCount: 2
Fore
SplineSet
301 43 m 1
 362 12 386 -35 436 -35 c 0
 471 -35 494 -4 519 21 c 1
 570 -29 l 1
 530 -70 493 -121 436 -121 c 0
 385 -121 340 -94 302 -62 c 0
 294 -55 286 -49 278 -43 c 1
 243 -174 l 1
 168 -154 l 1
 202 -27 l 1
 179 -36 160 -60 141 -79 c 1
 90 -29 l 1
 130 12 167 63 224 63 c 0
 225 63 225 63 226 63 c 2
 254 166 l 1
 245 170 235 172 224 172 c 0
 189 172 166 141 141 116 c 1
 90 166 l 1
 130 207 167 258 224 258 c 0
 242 258 259 255 276 249 c 1
 320 414 l 1
 261 439 198 452 133 452 c 2
 90 452 l 1
 90 538 l 1
 133 538 l 2
 217 538 298 560 370 600 c 1
 417 774 l 1
 492 754 l 1
 470 670 l 1
 483 682 495 694 507 707 c 1
 570 648 l 1
 529 605 484 568 434 538 c 1
 414 464 l 1
 471 432 524 391 570 342 c 1
 507 283 l 1
 473 320 433 352 391 378 c 1
 346 209 l 1
 350 206 354 202 358 199 c 0
 381 179 406 160 436 160 c 0
 471 160 494 191 519 216 c 1
 570 166 l 1
 530 125 493 74 436 74 c 0
 393 74 355 93 321 118 c 1
 301 43 l 1
EndSplineSet
EndChar

StartChar: uni2AB80338
Encoding: 199 -1 199
Width: 660
Flags: HW
HStem: -121 86<380.619 484.613> 74 86<379.813 484.613> 172 86<175.387 253.591> 452 86<437.406 570> 687 20G<131.644 182>
LayerCount: 2
Fore
SplineSet
301 43 m 1
 362 12 386 -35 436 -35 c 0
 471 -35 494 -4 519 21 c 1
 570 -29 l 1
 530 -70 493 -121 436 -121 c 0
 385 -121 340 -94 302 -62 c 0
 294 -55 286 -49 278 -43 c 1
 243 -174 l 1
 168 -154 l 1
 202 -27 l 1
 179 -36 160 -60 141 -79 c 1
 90 -29 l 1
 130 12 167 63 224 63 c 0
 225 63 225 63 226 63 c 2
 254 166 l 1
 245 170 235 172 224 172 c 0
 189 172 166 141 141 116 c 1
 90 166 l 1
 130 207 167 258 224 258 c 0
 242 258 259 255 276 249 c 1
 318 404 l 1
 256 375 200 334 153 283 c 1
 90 342 l 1
 153 408 228 461 311 495 c 1
 228 529 153 582 90 648 c 1
 153 707 l 1
 211 645 283 597 362 568 c 1
 417 774 l 1
 492 754 l 1
 436 547 l 1
 466 541 496 538 527 538 c 2
 570 538 l 1
 570 452 l 1
 527 452 l 2
 486 452 446 447 407 437 c 1
 346 209 l 1
 350 206 354 202 358 199 c 0
 381 179 406 160 436 160 c 0
 471 160 494 191 519 216 c 1
 570 166 l 1
 530 125 493 74 436 74 c 0
 393 74 355 93 321 118 c 1
 301 43 l 1
EndSplineSet
EndChar

StartChar: uni22D60338
Encoding: 200 -1 200
Width: 660
Flags: HW
HStem: 229 142<464.51 534.496>
VStem: 429 141<264.512 335.488>
LayerCount: 2
Fore
SplineSet
281 267 m 1
 302 345 l 1
 221 300 l 1
 281 267 l 1
570 300 m 0
 570 286 554 270 542 258 c 0
 529 245 514 229 500 229 c 0
 485 229 470 245 457 258 c 0
 445 270 429 286 429 300 c 0
 429 314 445 330 457 342 c 0
 470 355 485 371 500 371 c 0
 514 371 529 355 542 342 c 0
 554 330 570 314 570 300 c 0
394 689 m 1
 469 669 l 1
 427 514 l 1
 528 570 l 1
 570 495 l 1
 396 398 l 1
 351 227 l 1
 570 105 l 1
 528 30 l 1
 328 142 l 1
 266 -89 l 1
 191 -69 l 1
 258 181 l 1
 90 275 l 1
 90 325 l 1
 333 461 l 1
 394 689 l 1
EndSplineSet
EndChar

StartChar: uni22D70338
Encoding: 201 -1 201
Width: 660
Flags: HW
HStem: 229 142<125.51 195.496>
VStem: 90 141<264.512 335.488>
LayerCount: 2
Fore
SplineSet
379 333 m 1
 358 255 l 1
 439 300 l 1
 379 333 l 1
231 300 m 0
 231 286 215 270 203 258 c 0
 190 245 175 229 161 229 c 0
 146 229 131 245 118 258 c 0
 106 270 90 286 90 300 c 0
 90 314 106 330 118 342 c 0
 131 355 146 371 161 371 c 0
 175 371 190 355 203 342 c 0
 215 330 231 314 231 300 c 0
394 689 m 1
 469 669 l 1
 402 419 l 1
 570 325 l 1
 570 275 l 1
 327 139 l 1
 266 -89 l 1
 191 -69 l 1
 233 86 l 1
 132 30 l 1
 90 105 l 1
 264 202 l 1
 309 373 l 1
 90 495 l 1
 132 570 l 1
 332 458 l 1
 394 689 l 1
EndSplineSet
EndChar

StartChar: sym025_uni0338
Encoding: 202 -1 202
Width: 660
Flags: HW
HStem: 9 86<90 212 315 570> 294 142<464.51 534.496>
VStem: 429 141<329.512 400.488>
LayerCount: 2
Fore
SplineSet
301 341 m 1
 315 395 l 1
 244 365 l 1
 301 341 l 1
570 365 m 0
 570 351 554 335 542 323 c 0
 529 310 514 294 500 294 c 0
 485 294 470 310 457 323 c 0
 445 335 429 351 429 365 c 0
 429 379 445 395 457 407 c 0
 470 420 485 436 500 436 c 0
 514 436 529 420 542 407 c 0
 554 395 570 379 570 365 c 0
404 725 m 1
 479 705 l 1
 434 538 l 1
 537 581 l 1
 570 501 l 1
 406 432 l 1
 373 311 l 1
 570 229 l 1
 537 149 l 1
 351 227 l 1
 315 95 l 1
 570 95 l 1
 570 9 l 1
 292 9 l 1
 256 -125 l 1
 181 -105 l 1
 212 9 l 1
 90 9 l 1
 90 95 l 1
 235 95 l 1
 278 257 l 1
 90 336 l 1
 90 394 l 1
 344 500 l 1
 404 725 l 1
EndSplineSet
EndChar

StartChar: sym026_uni0338
Encoding: 203 -1 203
Width: 660
Flags: HW
HStem: 9 86<90 212 315 570> 294 142<125.51 195.496>
VStem: 90 141<329.512 400.488>
LayerCount: 2
Fore
SplineSet
391 376 m 1
 384 352 l 1
 416 365 l 1
 391 376 l 1
231 365 m 0
 231 351 215 335 203 323 c 0
 190 310 175 294 161 294 c 0
 146 294 131 310 118 323 c 0
 106 335 90 351 90 365 c 0
 90 379 106 395 118 407 c 0
 131 420 146 436 161 436 c 0
 175 436 190 420 203 407 c 0
 215 395 231 379 231 365 c 0
404 725 m 1
 479 705 l 1
 413 460 l 1
 570 394 l 1
 570 336 l 1
 356 246 l 1
 315 95 l 1
 570 95 l 1
 570 9 l 1
 292 9 l 1
 256 -125 l 1
 181 -105 l 1
 212 9 l 1
 90 9 l 1
 90 95 l 1
 235 95 l 1
 265 209 l 1
 123 149 l 1
 90 229 l 1
 294 314 l 1
 318 406 l 1
 90 501 l 1
 123 581 l 1
 341 490 l 1
 404 725 l 1
EndSplineSet
EndChar

StartChar: uni2A7F0338
Encoding: 204 -1 204
Width: 660
Flags: HW
HStem: 327 141<463.869 534.901>
VStem: 429 141<361.869 432.901>
LayerCount: 2
Fore
SplineSet
309 371 m 1
 325 432 l 1
 244 398 l 1
 309 371 l 1
500 468 m 0
 519 468 570 417 570 398 c 0
 570 377 519 327 500 327 c 0
 479 327 429 377 429 398 c 0
 429 417 479 468 500 468 c 0
404 725 m 1
 479 705 l 1
 444 574 l 1
 537 613 l 1
 570 534 l 1
 416 470 l 1
 381 340 l 1
 570 261 l 1
 537 182 l 1
 359 257 l 1
 334 165 l 1
 570 66 l 1
 537 -13 l 1
 311 81 l 1
 256 -125 l 1
 181 -105 l 1
 239 112 l 1
 90 174 l 1
 123 253 l 1
 262 195 l 1
 286 287 l 1
 90 369 l 1
 90 426 l 1
 353 536 l 1
 404 725 l 1
EndSplineSet
EndChar

StartChar: uni2A800338
Encoding: 205 -1 205
Width: 660
Flags: HW
HStem: 327 141<124.869 195.901>
VStem: 90 141<361.869 432.901>
LayerCount: 2
Fore
SplineSet
398 405 m 1
 394 389 l 1
 416 398 l 1
 398 405 l 1
161 468 m 0
 180 468 231 417 231 398 c 0
 231 377 180 327 161 327 c 0
 140 327 90 377 90 398 c 0
 90 417 140 468 161 468 c 0
404 725 m 1
 479 705 l 1
 421 488 l 1
 570 426 l 1
 570 369 l 1
 366 284 l 1
 335 168 l 1
 537 253 l 1
 570 174 l 1
 307 64 l 1
 256 -125 l 1
 181 -105 l 1
 216 26 l 1
 123 -13 l 1
 90 66 l 1
 244 131 l 1
 275 246 l 1
 123 182 l 1
 90 261 l 1
 303 351 l 1
 326 435 l 1
 90 534 l 1
 123 613 l 1
 349 519 l 1
 404 725 l 1
EndSplineSet
EndChar

StartChar: uni2A950338
Encoding: 206 60772 206
Width: 660
Flags: HW
LayerCount: 2
Fore
SplineSet
262 196 m 1
 266 212 l 1
 244 203 l 1
 262 196 l 1
404 725 m 1
 479 705 l 1
 444 574 l 1
 537 613 l 1
 570 534 l 1
 416 469 l 1
 385 354 l 1
 537 418 l 1
 570 339 l 1
 357 250 l 1
 334 165 l 1
 570 66 l 1
 537 -13 l 1
 311 81 l 1
 256 -125 l 1
 181 -105 l 1
 239 112 l 1
 90 174 l 1
 90 231 l 1
 294 316 l 1
 325 432 l 1
 123 347 l 1
 90 426 l 1
 353 536 l 1
 404 725 l 1
EndSplineSet
EndChar

StartChar: uni2A960338
Encoding: 207 60773 207
Width: 660
Flags: HW
LayerCount: 2
Fore
SplineSet
351 230 m 1
 335 169 l 1
 416 203 l 1
 351 230 l 1
404 725 m 1
 479 705 l 1
 421 488 l 1
 570 426 l 1
 537 347 l 1
 398 405 l 1
 374 313 l 1
 570 231 l 1
 570 174 l 1
 307 64 l 1
 256 -125 l 1
 181 -105 l 1
 216 26 l 1
 123 -13 l 1
 90 66 l 1
 244 131 l 1
 279 260 l 1
 90 339 l 1
 123 418 l 1
 301 343 l 1
 326 435 l 1
 90 534 l 1
 123 613 l 1
 349 519 l 1
 404 725 l 1
EndSplineSet
EndChar

StartChar: uni22DE0338
Encoding: 208 60796 208
Width: 660
Flags: HW
HStem: -10 21G<481 528.356> 160 86<90 246.264> 354 87<90 279.747>
LayerCount: 2
Fore
SplineSet
404 725 m 1
 479 705 l 1
 448 589 l 1
 454 595 460 602 466 608 c 1
 528 551 l 1
 490 512 450 474 408 442 c 1
 373 309 l 1
 423 337 468 372 507 415 c 1
 570 356 l 1
 507 289 432 237 349 203 c 1
 432 169 507 116 570 49 c 1
 507 -10 l 1
 455 47 391 92 322 121 c 1
 256 -125 l 1
 181 -105 l 1
 248 146 l 1
 211 155 172 160 133 160 c 2
 90 160 l 1
 90 246 l 1
 133 246 l 2
 184 246 234 254 282 269 c 1
 312 384 l 1
 270 365 225 354 176 354 c 2
 90 354 l 1
 90 441 l 1
 176 441 l 2
 239 441 293 463 343 497 c 1
 404 725 l 1
EndSplineSet
EndChar

StartChar: uni22DF0338
Encoding: 209 60797 209
Width: 660
Flags: HW
HStem: -10 21G<131.644 164> 160 86<385.113 570> 354 87<412.079 570> 369 82<411 568.656>
LayerCount: 2
Fore
SplineSet
404 725 m 1xd0
 479 705 l 1
 411 451 l 1xd0
 434 444 458 441 484 441 c 2
 570 441 l 1
 570 354 l 1
 484 354 l 2xe0
 451 354 419 360 389 369 c 1
 363 275 l 1
 415 256 470 246 527 246 c 2
 570 246 l 1
 570 160 l 1
 527 160 l 2
 454 160 384 143 320 113 c 1
 256 -125 l 1
 181 -105 l 1
 224 55 l 1
 199 36 175 14 153 -10 c 1
 90 49 l 1
 139 101 195 145 257 178 c 1
 269 222 l 1
 203 255 142 300 90 356 c 1
 153 415 l 1
 193 371 241 335 292 307 c 1
 317 400 l 1
 250 437 189 492 132 551 c 1
 194 608 l 1
 239 560 286 514 339 483 c 1
 404 725 l 1xd0
EndSplineSet
EndChar

StartChar: uni2246
Encoding: 210 8774 210
Width: 660
Flags: HW
HStem: 62 86<90 259 362 570> 257 86<90 311 414 570> 403 86<379.066 484.613> 501 86<175.387 280.934> 525 20G<506.5 539.4>
LayerCount: 2
Fore
SplineSet
141 445 m 1xf0
 90 495 l 1
 130 536 167 587 224 587 c 0xf0
 275 587 320 560 358 528 c 0
 381 508 406 489 436 489 c 0
 471 489 494 520 519 545 c 1xe8
 570 495 l 1
 530 454 493 403 436 403 c 0
 385 403 340 430 302 462 c 0
 279 482 254 501 224 501 c 0
 189 501 166 470 141 445 c 1xf0
348 396 m 1
 423 376 l 1
 414 343 l 1
 570 343 l 1
 570 257 l 1
 391 257 l 1
 362 148 l 1
 570 148 l 1
 570 62 l 1
 339 62 l 1
 312 -40 l 1
 237 -20 l 1
 259 62 l 1
 90 62 l 1
 90 148 l 1
 282 148 l 1
 311 257 l 1
 90 257 l 1
 90 343 l 1
 334 343 l 1
 348 396 l 1
EndSplineSet
EndChar

StartChar: sym027
Encoding: 211 -1 211
Width: 660
Flags: HW
HStem: 62 86<90 252 356 570> 257 86<90 304 408 570> 403 86<175.387 280.934> 501 86<379.066 484.613> 525 20G<120.6 153.5>
LayerCount: 2
Fore
SplineSet
519 445 m 1xf0
 494 470 471 501 436 501 c 0xf0
 406 501 381 482 358 462 c 0
 320 430 275 403 224 403 c 0
 167 403 130 454 90 495 c 1
 141 545 l 1xe8
 166 520 189 489 224 489 c 0
 254 489 279 508 302 528 c 0
 340 560 385 587 436 587 c 0
 493 587 530 536 570 495 c 1
 519 445 l 1xf0
355 445 m 1
 430 425 l 1
 408 343 l 1
 570 343 l 1
 570 257 l 1
 385 257 l 1
 356 148 l 1
 570 148 l 1
 570 62 l 1
 332 62 l 1
 305 -40 l 1
 230 -20 l 1
 252 62 l 1
 90 62 l 1
 90 148 l 1
 275 148 l 1
 304 257 l 1
 90 257 l 1
 90 343 l 1
 328 343 l 1
 355 445 l 1
EndSplineSet
EndChar

StartChar: uni2A87
Encoding: 212 10887 212
Width: 660
Flags: HW
HStem: 9 86<90 278 382 570>
LayerCount: 2
Fore
SplineSet
537 581 m 1
 570 501 l 1
 244 365 l 1
 570 229 l 1
 537 149 l 1
 90 336 l 1
 90 394 l 1
 537 581 l 1
329 197 m 1
 404 177 l 1
 382 95 l 1
 570 95 l 1
 570 9 l 1
 359 9 l 1
 331 -93 l 1
 256 -73 l 1
 278 9 l 1
 90 9 l 1
 90 95 l 1
 301 95 l 1
 329 197 l 1
EndSplineSet
EndChar

StartChar: uni2A88
Encoding: 213 10888 213
Width: 660
Flags: HW
HStem: 9 86<90 278 382 570>
LayerCount: 2
Fore
SplineSet
123 149 m 1
 90 229 l 1
 416 365 l 1
 90 501 l 1
 123 581 l 1
 570 394 l 1
 570 336 l 1
 123 149 l 1
329 197 m 1
 404 177 l 1
 382 95 l 1
 570 95 l 1
 570 9 l 1
 359 9 l 1
 331 -93 l 1
 256 -73 l 1
 278 9 l 1
 90 9 l 1
 90 95 l 1
 301 95 l 1
 329 197 l 1
EndSplineSet
EndChar

StartChar: uni2268
Encoding: 214 8808 214
Width: 660
Flags: HW
HStem: -88 86<90 252 356 570> 107 86<90 304 408 570>
LayerCount: 2
Fore
SplineSet
537 678 m 1
 570 599 l 1
 244 462 l 1
 570 326 l 1
 537 247 l 1
 90 434 l 1
 90 491 l 1
 537 678 l 1
355 295 m 1
 430 275 l 1
 408 193 l 1
 570 193 l 1
 570 107 l 1
 385 107 l 1
 356 -2 l 1
 570 -2 l 1
 570 -88 l 1
 332 -88 l 1
 305 -190 l 1
 230 -170 l 1
 252 -88 l 1
 90 -88 l 1
 90 -2 l 1
 275 -2 l 1
 304 107 l 1
 90 107 l 1
 90 193 l 1
 328 193 l 1
 355 295 l 1
EndSplineSet
EndChar

StartChar: uni2269
Encoding: 215 8809 215
Width: 660
Flags: HW
HStem: -88 86<90 252 356 570> 107 86<90 304 408 570>
LayerCount: 2
Fore
SplineSet
123 247 m 1
 90 326 l 1
 416 462 l 1
 90 599 l 1
 123 678 l 1
 570 491 l 1
 570 434 l 1
 123 247 l 1
355 295 m 1
 430 275 l 1
 408 193 l 1
 570 193 l 1
 570 107 l 1
 385 107 l 1
 356 -2 l 1
 570 -2 l 1
 570 -88 l 1
 332 -88 l 1
 305 -190 l 1
 230 -170 l 1
 252 -88 l 1
 90 -88 l 1
 90 -2 l 1
 275 -2 l 1
 304 107 l 1
 90 107 l 1
 90 193 l 1
 328 193 l 1
 355 295 l 1
EndSplineSet
EndChar

StartChar: uni22E6
Encoding: 216 8934 216
Width: 660
Flags: HW
HStem: -23 86<378.319 484.613> 74 86<175.387 281.681>
LayerCount: 2
Fore
SplineSet
537 613 m 1
 570 534 l 1
 244 398 l 1
 570 261 l 1
 537 182 l 1
 90 369 l 1
 90 426 l 1
 537 613 l 1
329 213 m 1
 404 193 l 1
 375 87 l 1
 393 74 413 63 436 63 c 0
 471 63 494 94 519 119 c 1
 570 68 l 1
 530 28 493 -23 436 -23 c 0
 406 -23 378 -14 352 0 c 1
 331 -76 l 1
 256 -56 l 1
 285 50 l 1
 267 63 247 74 224 74 c 0
 189 74 166 43 141 18 c 1
 90 68 l 1
 130 109 167 160 224 160 c 0
 254 160 282 151 308 137 c 1
 329 213 l 1
EndSplineSet
EndChar

StartChar: uni22E7
Encoding: 217 8935 217
Width: 660
Flags: HW
HStem: -23 86<378.319 484.613> 74 86<175.387 281.681>
LayerCount: 2
Fore
SplineSet
123 182 m 1
 90 261 l 1
 416 398 l 1
 90 534 l 1
 123 613 l 1
 570 426 l 1
 570 369 l 1
 123 182 l 1
329 213 m 1
 404 193 l 1
 375 87 l 1
 393 74 413 63 436 63 c 0
 471 63 494 94 519 119 c 1
 570 68 l 1
 530 28 493 -23 436 -23 c 0
 406 -23 378 -14 352 0 c 1
 331 -76 l 1
 256 -56 l 1
 285 50 l 1
 267 63 247 74 224 74 c 0
 189 74 166 43 141 18 c 1
 90 68 l 1
 130 109 167 160 224 160 c 0
 254 160 282 151 308 137 c 1
 329 213 l 1
EndSplineSet
EndChar

StartChar: uni2A89
Encoding: 218 10889 218
Width: 660
Flags: HW
HStem: -121 86<379.694 484.613> -23 86<175.387 261.688> 74 86<398.312 484.613> 172 86<175.387 280.306> 691 20G<489.193 545.25>
LayerCount: 2
Fore
SplineSet
537 711 m 1
 570 631 l 1
 244 495 l 1
 570 359 l 1
 537 279 l 1
 90 466 l 1
 90 524 l 1
 537 711 l 1
306 130 m 1
 272 158 254 172 224 172 c 0
 189 172 166 141 141 116 c 1
 90 166 l 1
 130 207 167 258 224 258 c 0
 263 258 299 242 331 220 c 1
 355 311 l 1
 430 291 l 1
 398 170 l 1
 410 164 422 160 436 160 c 0
 471 160 494 191 519 216 c 1
 570 166 l 1
 530 125 493 74 436 74 c 0
 415 74 394 79 375 87 c 1
 354 7 l 1
 388 -21 406 -35 436 -35 c 0
 471 -35 494 -4 519 21 c 1
 570 -29 l 1
 530 -70 493 -121 436 -121 c 0
 397 -121 361 -105 329 -83 c 1
 305 -174 l 1
 230 -154 l 1
 262 -33 l 1
 250 -27 238 -23 224 -23 c 0
 189 -23 166 -54 141 -79 c 1
 90 -29 l 1
 130 12 167 63 224 63 c 0
 245 63 266 58 285 50 c 1
 306 130 l 1
EndSplineSet
EndChar

StartChar: uni2A8A
Encoding: 219 10890 219
Width: 660
Flags: HW
HStem: -121 86<379.694 484.613> -23 86<175.387 261.688> 74 86<398.312 484.613> 172 86<175.387 280.306> 691 20G<114.75 170.807>
LayerCount: 2
Fore
SplineSet
123 279 m 1
 90 359 l 1
 416 495 l 1
 90 631 l 1
 123 711 l 1
 570 524 l 1
 570 466 l 1
 123 279 l 1
306 130 m 1
 272 158 254 172 224 172 c 0
 189 172 166 141 141 116 c 1
 90 166 l 1
 130 207 167 258 224 258 c 0
 263 258 299 242 331 220 c 1
 355 311 l 1
 430 291 l 1
 398 170 l 1
 410 164 422 160 436 160 c 0
 471 160 494 191 519 216 c 1
 570 166 l 1
 530 125 493 74 436 74 c 0
 415 74 394 79 375 87 c 1
 354 7 l 1
 388 -21 406 -35 436 -35 c 0
 471 -35 494 -4 519 21 c 1
 570 -29 l 1
 530 -70 493 -121 436 -121 c 0
 397 -121 361 -105 329 -83 c 1
 305 -174 l 1
 230 -154 l 1
 262 -33 l 1
 250 -27 238 -23 224 -23 c 0
 189 -23 166 -54 141 -79 c 1
 90 -29 l 1
 130 12 167 63 224 63 c 0
 245 63 266 58 285 50 c 1
 306 130 l 1
EndSplineSet
EndChar

StartChar: uni22E4
Encoding: 220 8932 220
Width: 660
Flags: HW
HStem: -23 86<90 252 356 570> 172 86<176 304 408 570> 537 86<176 570>
VStem: 90 86<258 537>
LayerCount: 2
Fore
SplineSet
355 360 m 1
 430 340 l 1
 408 258 l 1
 570 258 l 1
 570 172 l 1
 385 172 l 1
 356 63 l 1
 570 63 l 1
 570 -23 l 1
 332 -23 l 1
 305 -125 l 1
 230 -105 l 1
 252 -23 l 1
 90 -23 l 1
 90 63 l 1
 275 63 l 1
 304 172 l 1
 90 172 l 1
 90 623 l 1
 570 623 l 1
 570 537 l 1
 176 537 l 1
 176 258 l 1
 328 258 l 1
 355 360 l 1
EndSplineSet
EndChar

StartChar: uni22E5
Encoding: 221 8933 221
Width: 660
Flags: HW
HStem: -23 86<90 252 356 570> 172 86<90 304 408 484> 537 86<90 484>
VStem: 484 86<258 537>
LayerCount: 2
Fore
SplineSet
355 360 m 1
 430 340 l 1
 408 258 l 1
 484 258 l 1
 484 537 l 1
 90 537 l 1
 90 623 l 1
 570 623 l 1
 570 172 l 1
 385 172 l 1
 356 63 l 1
 570 63 l 1
 570 -23 l 1
 332 -23 l 1
 305 -125 l 1
 230 -105 l 1
 252 -23 l 1
 90 -23 l 1
 90 63 l 1
 275 63 l 1
 304 172 l 1
 90 172 l 1
 90 258 l 1
 328 258 l 1
 355 360 l 1
EndSplineSet
EndChar

StartChar: sym028
Encoding: 222 -1 222
Width: 660
Flags: HW
HStem: -223 21G<230 310.294> -121 86<90 252 356 570> 74 86<90 304 408 570> 269 86<176 570> 635 86<176 570>
VStem: 90 86<355 635>
LayerCount: 2
Fore
SplineSet
176 355 m 1
 570 355 l 1
 570 269 l 1
 90 269 l 1
 90 721 l 1
 570 721 l 1
 570 635 l 1
 176 635 l 1
 176 355 l 1
355 262 m 1
 430 242 l 1
 408 160 l 1
 570 160 l 1
 570 74 l 1
 385 74 l 1
 356 -35 l 1
 570 -35 l 1
 570 -121 l 1
 332 -121 l 1
 305 -223 l 1
 230 -203 l 1
 252 -121 l 1
 90 -121 l 1
 90 -35 l 1
 275 -35 l 1
 304 74 l 1
 90 74 l 1
 90 160 l 1
 328 160 l 1
 355 262 l 1
EndSplineSet
EndChar

StartChar: sym029
Encoding: 223 -1 223
Width: 660
Flags: HW
HStem: -223 21G<230 310.294> -121 86<90 252 356 570> 74 86<90 304 408 570> 269 86<90 484> 635 86<90 484>
VStem: 484 86<355 635>
LayerCount: 2
Fore
SplineSet
484 355 m 1
 484 635 l 1
 90 635 l 1
 90 721 l 1
 570 721 l 1
 570 269 l 1
 90 269 l 1
 90 355 l 1
 484 355 l 1
355 262 m 1
 430 242 l 1
 408 160 l 1
 570 160 l 1
 570 74 l 1
 385 74 l 1
 356 -35 l 1
 570 -35 l 1
 570 -121 l 1
 332 -121 l 1
 305 -223 l 1
 230 -203 l 1
 252 -121 l 1
 90 -121 l 1
 90 -35 l 1
 275 -35 l 1
 304 74 l 1
 90 74 l 1
 90 160 l 1
 328 160 l 1
 355 262 l 1
EndSplineSet
EndChar

StartChar: uni228A
Encoding: 224 8842 224
Width: 660
Flags: HW
HStem: -23 86<90 252 356 570> 172 86<226.408 304 408 570> 537 86<226.408 570>
VStem: 90 86<311.82 483.48>
LayerCount: 2
Fore
SplineSet
355 360 m 1
 430 340 l 1
 408 258 l 1
 570 258 l 1
 570 172 l 1
 385 172 l 1
 356 63 l 1
 570 63 l 1
 570 -23 l 1
 332 -23 l 1
 305 -125 l 1
 230 -105 l 1
 252 -23 l 1
 90 -23 l 1
 90 63 l 1
 275 63 l 1
 304 172 l 1
 281 172 l 2
 169 172 90 279 90 398 c 0
 90 516 169 623 281 623 c 2
 570 623 l 1
 570 537 l 1
 281 537 l 2
 216 537 176 469 176 398 c 0
 176 326 216 258 281 258 c 2
 328 258 l 1
 355 360 l 1
EndSplineSet
EndChar

StartChar: uni228B
Encoding: 225 8843 225
Width: 660
Flags: HW
HStem: -23 86<90 252 356 570> 172 86<90 304> 537 86<90 433.592>
VStem: 484 86<313.01 483.48>
LayerCount: 2
Fore
SplineSet
355 360 m 1
 430 340 l 1
 409 263 l 1
 456 280 484 338 484 398 c 0
 484 469 444 537 379 537 c 2
 90 537 l 1
 90 623 l 1
 379 623 l 2
 491 623 570 516 570 398 c 0
 570 281 494 176 385 172 c 1
 356 63 l 1
 570 63 l 1
 570 -23 l 1
 332 -23 l 1
 305 -125 l 1
 230 -105 l 1
 252 -23 l 1
 90 -23 l 1
 90 63 l 1
 275 63 l 1
 304 172 l 1
 90 172 l 1
 90 258 l 1
 328 258 l 1
 355 360 l 1
EndSplineSet
EndChar

StartChar: uni2ACB
Encoding: 226 10955 226
Width: 660
Flags: HW
HStem: -223 21G<230 310.294> -121 86<90 252 356 570> 74 86<90 304 408 570> 269 86<226.408 570> 635 86<226.408 570>
VStem: 90 86<408.82 581.18>
LayerCount: 2
Fore
SplineSet
570 635 m 1
 281 635 l 2
 216 635 176 567 176 495 c 0
 176 423 216 355 281 355 c 2
 570 355 l 1
 570 269 l 1
 281 269 l 2
 169 269 90 376 90 495 c 0
 90 614 169 721 281 721 c 2
 570 721 l 1
 570 635 l 1
355 262 m 1
 430 242 l 1
 408 160 l 1
 570 160 l 1
 570 74 l 1
 385 74 l 1
 356 -35 l 1
 570 -35 l 1
 570 -121 l 1
 332 -121 l 1
 305 -223 l 1
 230 -203 l 1
 252 -121 l 1
 90 -121 l 1
 90 -35 l 1
 275 -35 l 1
 304 74 l 1
 90 74 l 1
 90 160 l 1
 328 160 l 1
 355 262 l 1
EndSplineSet
EndChar

StartChar: uni2ACC
Encoding: 227 10956 227
Width: 660
Flags: HW
HStem: -223 21G<230 310.294> -121 86<90 252 356 570> 74 86<90 304 408 570> 269 86<90 433.592> 635 86<90 433.592>
VStem: 484 86<408.82 581.18>
LayerCount: 2
Fore
SplineSet
90 355 m 1
 379 355 l 2
 444 355 484 423 484 495 c 0
 484 567 444 635 379 635 c 2
 90 635 l 1
 90 721 l 1
 379 721 l 2
 491 721 570 614 570 495 c 0
 570 376 491 269 379 269 c 2
 90 269 l 1
 90 355 l 1
355 262 m 1
 430 242 l 1
 408 160 l 1
 570 160 l 1
 570 74 l 1
 385 74 l 1
 356 -35 l 1
 570 -35 l 1
 570 -121 l 1
 332 -121 l 1
 305 -223 l 1
 230 -203 l 1
 252 -121 l 1
 90 -121 l 1
 90 -35 l 1
 275 -35 l 1
 304 74 l 1
 90 74 l 1
 90 160 l 1
 328 160 l 1
 355 262 l 1
EndSplineSet
EndChar

StartChar: uni2AB1
Encoding: 228 10929 228
Width: 660
Flags: HW
HStem: 9 86<90 278 382 570> 322 86<90 276.141>
LayerCount: 2
Fore
SplineSet
349 365 m 1
 432 331 507 278 570 212 c 1
 507 153 l 1
 410 257 276 322 133 322 c 2
 90 322 l 1
 90 408 l 1
 133 408 l 2
 276 408 410 473 507 577 c 1
 570 518 l 1
 507 452 432 399 349 365 c 1
329 197 m 1
 404 177 l 1
 382 95 l 1
 570 95 l 1
 570 9 l 1
 359 9 l 1
 331 -93 l 1
 256 -73 l 1
 278 9 l 1
 90 9 l 1
 90 95 l 1
 301 95 l 1
 329 197 l 1
EndSplineSet
EndChar

StartChar: uni2AB2
Encoding: 229 10930 229
Width: 660
Flags: HW
HStem: 9 86<90 278 382 570> 322 86<383.859 570>
LayerCount: 2
Fore
SplineSet
311 365 m 1
 228 399 153 452 90 518 c 1
 153 577 l 1
 250 473 384 408 527 408 c 2
 570 408 l 1
 570 322 l 1
 527 322 l 2
 384 322 250 257 153 153 c 1
 90 212 l 1
 153 278 228 331 311 365 c 1
329 197 m 1
 404 177 l 1
 382 95 l 1
 570 95 l 1
 570 9 l 1
 359 9 l 1
 331 -93 l 1
 256 -73 l 1
 278 9 l 1
 90 9 l 1
 90 95 l 1
 301 95 l 1
 329 197 l 1
EndSplineSet
EndChar

StartChar: uni2AB5
Encoding: 230 10933 230
Width: 660
Flags: HW
HStem: -88 86<90 252 356 570> 107 86<90 304 408 570> 419 87<90 276.141>
LayerCount: 2
Fore
SplineSet
350 462 m 1
 432 428 508 376 570 309 c 1
 507 250 l 1
 410 355 276 419 133 419 c 2
 90 419 l 1
 90 506 l 1
 133 506 l 2
 276 506 410 570 507 675 c 1
 570 616 l 1
 508 549 432 496 350 462 c 1
355 295 m 1
 430 275 l 1
 408 193 l 1
 570 193 l 1
 570 107 l 1
 385 107 l 1
 356 -2 l 1
 570 -2 l 1
 570 -88 l 1
 332 -88 l 1
 305 -190 l 1
 230 -170 l 1
 252 -88 l 1
 90 -88 l 1
 90 -2 l 1
 275 -2 l 1
 304 107 l 1
 90 107 l 1
 90 193 l 1
 328 193 l 1
 355 295 l 1
EndSplineSet
EndChar

StartChar: uni2AB6
Encoding: 231 10934 231
Width: 660
Flags: HW
HStem: -88 86<90 252 356 570> 107 86<90 304 408 570> 419 87<383.859 570>
LayerCount: 2
Fore
SplineSet
310 462 m 1
 228 496 152 549 90 616 c 1
 153 675 l 1
 250 570 384 506 527 506 c 2
 570 506 l 1
 570 419 l 1
 527 419 l 2
 384 419 250 355 153 250 c 1
 90 309 l 1
 152 376 228 428 310 462 c 1
355 295 m 1
 430 275 l 1
 408 193 l 1
 570 193 l 1
 570 107 l 1
 385 107 l 1
 356 -2 l 1
 570 -2 l 1
 570 -88 l 1
 332 -88 l 1
 305 -190 l 1
 230 -170 l 1
 252 -88 l 1
 90 -88 l 1
 90 -2 l 1
 275 -2 l 1
 304 107 l 1
 90 107 l 1
 90 193 l 1
 328 193 l 1
 355 295 l 1
EndSplineSet
EndChar

StartChar: uni22E8
Encoding: 232 8936 232
Width: 660
Flags: HW
HStem: -23 86<378.319 484.613> 74 86<175.387 281.681> 355 86<90 269.869>
LayerCount: 2
Fore
SplineSet
349 398 m 1
 432 364 507 311 570 244 c 1
 507 185 l 1
 410 290 276 355 133 355 c 2
 90 355 l 1
 90 441 l 1
 133 441 l 2
 276 441 410 505 507 610 c 1
 570 551 l 1
 507 484 432 432 349 398 c 1
329 213 m 1
 404 193 l 1
 375 87 l 1
 393 74 413 63 436 63 c 0
 471 63 494 94 519 119 c 1
 570 68 l 1
 530 28 493 -23 436 -23 c 0
 406 -23 378 -14 352 0 c 1
 331 -76 l 1
 256 -56 l 1
 285 50 l 1
 267 63 247 74 224 74 c 0
 189 74 166 43 141 18 c 1
 90 68 l 1
 130 109 167 160 224 160 c 0
 254 160 282 151 308 137 c 1
 329 213 l 1
EndSplineSet
EndChar

StartChar: uni22E9
Encoding: 233 8937 233
Width: 660
Flags: HW
HStem: -23 86<378.319 484.613> 74 86<175.387 281.681> 355 86<390.131 570>
LayerCount: 2
Fore
SplineSet
311 398 m 1
 228 432 153 484 90 551 c 1
 153 610 l 1
 250 505 384 441 527 441 c 2
 570 441 l 1
 570 355 l 1
 527 355 l 2
 384 355 250 290 153 185 c 1
 90 244 l 1
 153 311 228 364 311 398 c 1
329 213 m 1
 404 193 l 1
 375 87 l 1
 393 74 413 63 436 63 c 0
 471 63 494 94 519 119 c 1
 570 68 l 1
 530 28 493 -23 436 -23 c 0
 406 -23 378 -14 352 0 c 1
 331 -76 l 1
 256 -56 l 1
 285 50 l 1
 267 63 247 74 224 74 c 0
 189 74 166 43 141 18 c 1
 90 68 l 1
 130 109 167 160 224 160 c 0
 254 160 282 151 308 137 c 1
 329 213 l 1
EndSplineSet
EndChar

StartChar: uni2AB9
Encoding: 234 10937 234
Width: 660
Flags: HW
HStem: -121 86<379.694 484.613> -23 86<175.387 261.688> 74 86<398.312 484.613> 172 86<175.387 280.306> 452 86<90 276.141> 687 20G<458.5 528.356>
LayerCount: 2
Fore
SplineSet
349 495 m 1
 432 461 507 408 570 342 c 1
 507 283 l 1
 410 387 276 452 133 452 c 2
 90 452 l 1
 90 538 l 1
 133 538 l 2
 276 538 410 603 507 707 c 1
 570 648 l 1
 507 582 432 529 349 495 c 1
306 130 m 1
 272 158 254 172 224 172 c 0
 189 172 166 141 141 116 c 1
 90 166 l 1
 130 207 167 258 224 258 c 0
 263 258 299 242 331 220 c 1
 355 311 l 1
 430 291 l 1
 398 170 l 1
 410 164 422 160 436 160 c 0
 471 160 494 191 519 216 c 1
 570 166 l 1
 530 125 493 74 436 74 c 0
 415 74 394 79 375 87 c 1
 354 7 l 1
 388 -21 406 -35 436 -35 c 0
 471 -35 494 -4 519 21 c 1
 570 -29 l 1
 530 -70 493 -121 436 -121 c 0
 397 -121 361 -105 329 -83 c 1
 305 -174 l 1
 230 -154 l 1
 262 -33 l 1
 250 -27 238 -23 224 -23 c 0
 189 -23 166 -54 141 -79 c 1
 90 -29 l 1
 130 12 167 63 224 63 c 0
 245 63 266 58 285 50 c 1
 306 130 l 1
EndSplineSet
EndChar

StartChar: uni2ABA
Encoding: 235 10938 235
Width: 660
Flags: HW
HStem: -121 86<379.694 484.613> -23 86<175.387 261.688> 74 86<398.312 484.613> 172 86<175.387 280.306> 452 86<383.859 570> 687 20G<131.644 201.5>
LayerCount: 2
Fore
SplineSet
311 495 m 1
 228 529 153 582 90 648 c 1
 153 707 l 1
 250 603 384 538 527 538 c 2
 570 538 l 1
 570 452 l 1
 527 452 l 2
 384 452 250 387 153 283 c 1
 90 342 l 1
 153 408 228 461 311 495 c 1
306 130 m 1
 272 158 254 172 224 172 c 0
 189 172 166 141 141 116 c 1
 90 166 l 1
 130 207 167 258 224 258 c 0
 263 258 299 242 331 220 c 1
 355 311 l 1
 430 291 l 1
 398 170 l 1
 410 164 422 160 436 160 c 0
 471 160 494 191 519 216 c 1
 570 166 l 1
 530 125 493 74 436 74 c 0
 415 74 394 79 375 87 c 1
 354 7 l 1
 388 -21 406 -35 436 -35 c 0
 471 -35 494 -4 519 21 c 1
 570 -29 l 1
 530 -70 493 -121 436 -121 c 0
 397 -121 361 -105 329 -83 c 1
 305 -174 l 1
 230 -154 l 1
 262 -33 l 1
 250 -27 238 -23 224 -23 c 0
 189 -23 166 -54 141 -79 c 1
 90 -29 l 1
 130 12 167 63 224 63 c 0
 245 63 266 58 285 50 c 1
 306 130 l 1
EndSplineSet
EndChar
